<?xml version="1.0" encoding="UTF-8"?>
<!DOCTYPE svg PUBLIC "-//W3C//DTD SVG 1.1//EN" "http://www.w3.org/Graphics/SVG/1.1/DTD/svg11.dtd">
<svg xmlns="http://www.w3.org/2000/svg" version="1.1" width="512px" height="512px" style="shape-rendering:geometricPrecision; text-rendering:geometricPrecision; image-rendering:optimizeQuality; fill-rule:evenodd; clip-rule:evenodd" xmlns:xlink="http://www.w3.org/1999/xlink">
<g><path style="opacity:0.942" fill="#020201" d="M 117.5,5.5 C 173.867,1.7636 216.7,23.7636 246,71.5C 269.451,119.828 266.118,166.162 236,210.5C 200.075,253.698 154.575,269.198 99.5,257C 46.6289,240.117 15.4622,204.284 6,149.5C 1.34689,92.3013 23.5136,49.1346 72.5,20C 86.874,12.8185 101.874,7.98512 117.5,5.5 Z"/></g>
<g><path style="opacity:1" fill="#f8c742" d="M 208.5,43.5 C 220.261,65.2863 224.261,88.2863 220.5,112.5C 212.13,79.6373 191.796,57.8039 159.5,47C 114.965,36.8638 80.1318,50.6971 55,88.5C 39.4112,118.992 39.7446,149.325 56,179.5C 69.3477,200.675 88.181,214.341 112.5,220.5C 88.2931,224.262 65.2931,220.262 43.5,208.5C 15.9266,173.692 9.09323,135.026 23,92.5C 37.6411,55.8591 63.8078,31.6924 101.5,20C 141.245,10.1789 176.912,18.0123 208.5,43.5 Z"/></g>
<g><path style="opacity:1" fill="#080603" d="M 220.5,112.5 C 228.168,153.671 214.835,186.171 180.5,210C 159.125,222.512 136.459,226.012 112.5,220.5C 88.181,214.341 69.3477,200.675 56,179.5C 39.7446,149.325 39.4112,118.992 55,88.5C 80.1318,50.6971 114.965,36.8638 159.5,47C 191.796,57.8039 212.13,79.6373 220.5,112.5 Z"/></g>
<g><path style="opacity:1" fill="#f9d983" d="M 208.5,43.5 C 245.587,76.8159 258.087,117.816 246,166.5C 231.617,209.55 202.451,236.716 158.5,248C 112.655,256.22 74.3218,243.053 43.5,208.5C 65.2931,220.262 88.2931,224.262 112.5,220.5C 136.459,226.012 159.125,222.512 180.5,210C 214.835,186.171 228.168,153.671 220.5,112.5C 224.261,88.2863 220.261,65.2863 208.5,43.5 Z"/></g>
<g><path style="opacity:1" fill="#f9c842" d="M 183.5,71.5 C 197.483,105.938 192.316,137.271 168,165.5C 140.085,191.268 108.252,197.602 72.5,184.5C 53.9959,161.131 49.1625,135.131 58,106.5C 77.3052,64.0972 109.805,47.5972 155.5,57C 165.866,60.015 175.199,64.8483 183.5,71.5 Z"/></g>
<g><path style="opacity:1" fill="#fada83" d="M 183.5,71.5 C 212.348,97.5643 219.848,128.898 206,165.5C 186.733,202.05 156.567,217.217 115.5,211C 98.2636,206.723 83.9303,197.889 72.5,184.5C 108.252,197.602 140.085,191.268 168,165.5C 192.316,137.271 197.483,105.938 183.5,71.5 Z"/></g>
<g><path style="opacity:1" fill="#080602" d="M 131.5,81.5 C 134.325,81.0807 136.491,82.0807 138,84.5C 138.499,88.1516 138.665,91.8183 138.5,95.5C 143.844,95.334 149.177,95.5006 154.5,96C 157.167,99 157.167,102 154.5,105C 145.5,105.333 136.5,105.667 127.5,106C 118.146,111.452 117.146,118.119 124.5,126C 125.833,126.667 127.167,127.333 128.5,128C 148.488,126.654 157.655,135.821 156,155.5C 153.389,164.279 147.556,169.279 138.5,170.5C 138.665,174.182 138.499,177.848 138,181.5C 135.294,184.978 132.294,185.311 129,182.5C 128.501,178.848 128.335,175.182 128.5,171.5C 123.156,171.666 117.823,171.499 112.5,171C 108.5,167.667 108.5,164.333 112.5,161C 121.5,160.667 130.5,160.333 139.5,160C 145.327,156.867 147.493,152.034 146,145.5C 144.878,143.376 143.378,141.543 141.5,140C 136.25,138.826 130.916,138.159 125.5,138C 109.657,130.47 105.823,118.97 114,103.5C 117.771,98.8933 122.604,96.2266 128.5,95.5C 128.335,91.8183 128.501,88.1516 129,84.5C 129.698,83.3094 130.531,82.3094 131.5,81.5 Z"/></g>
<g><path style="opacity:0.891" fill="#000000" d="M 425.5,118.5 C 441.601,120.62 457.434,123.953 473,128.5C 473.781,129.729 474.281,131.062 474.5,132.5C 471.731,145.514 468.897,158.514 466,171.5C 465.79,175.376 463.79,177.71 460,178.5C 454.772,176.674 453.105,173.007 455,167.5C 456.861,160.199 458.195,152.866 459,145.5C 357.213,212.46 255.047,278.793 152.5,344.5C 146.551,342.767 145.217,339.267 148.5,334C 250.004,268.082 351.337,201.915 452.5,135.5C 443.555,133.144 434.555,130.977 425.5,129C 422.88,125.502 422.88,122.002 425.5,118.5 Z"/></g>
<g><path style="opacity:0.956" fill="#010000" d="M 446.5,233.5 C 459.837,233.333 473.171,233.5 486.5,234C 495.573,236.739 501.74,242.573 505,251.5C 505.667,330.167 505.667,408.833 505,487.5C 502.5,496.667 496.667,502.5 487.5,505C 472.432,505.951 457.432,505.617 442.5,504C 433.842,499.867 428.675,493.034 427,483.5C 426.333,407.5 426.333,331.5 427,255.5C 429.175,244.167 435.675,236.834 446.5,233.5 Z"/></g>
<g><path style="opacity:1" fill="#f9565a" d="M 473.5,244.5 C 473.667,314.834 473.5,385.167 473,455.5C 471.381,464.454 466.214,470.287 457.5,473C 451.175,473.5 444.842,473.666 438.5,473.5C 438.5,476.833 438.5,480.167 438.5,483.5C 437.334,407.668 437.168,331.668 438,255.5C 439.406,250.427 442.572,246.927 447.5,245C 456.16,244.5 464.827,244.334 473.5,244.5 Z"/></g>
<g><path style="opacity:1" fill="#f88f91" d="M 473.5,244.5 C 483.805,242.414 490.972,246.081 495,255.5C 495.667,331.167 495.667,406.833 495,482.5C 494.004,488.159 490.838,491.993 485.5,494C 479.077,495.105 472.577,495.605 466,495.5C 459.423,495.605 452.923,495.105 446.5,494C 442.081,491.758 439.414,488.258 438.5,483.5C 438.5,480.167 438.5,476.833 438.5,473.5C 444.842,473.666 451.175,473.5 457.5,473C 466.214,470.287 471.381,464.454 473,455.5C 473.5,385.167 473.667,314.834 473.5,244.5 Z"/></g>
<g><path style="opacity:0.951" fill="#010302" d="M 345.5,306.5 C 356.505,306.333 367.505,306.5 378.5,307C 390.879,309.046 398.379,316.212 401,328.5C 401.667,380.5 401.667,432.5 401,484.5C 399.049,495.119 392.882,501.952 382.5,505C 368.5,505.667 354.5,505.667 340.5,505C 331.573,501.74 325.739,495.573 323,486.5C 322.333,432.833 322.333,379.167 323,325.5C 327.011,314.986 334.511,308.653 345.5,306.5 Z"/></g>
<g><path style="opacity:1" fill="#04b08a" d="M 378.5,318.5 C 376.167,318.5 373.833,318.5 371.5,318.5C 371.667,366.168 371.5,413.834 371,461.5C 368.928,468.573 364.428,473.406 357.5,476C 349.507,476.5 341.507,476.666 333.5,476.5C 333.333,426.832 333.5,377.166 334,327.5C 335.927,322.572 339.427,319.406 344.5,318C 356.008,317.174 367.341,317.341 378.5,318.5 Z"/></g>
<g><path style="opacity:1" fill="#5ac9b0" d="M 378.5,318.5 C 383.987,319.813 387.82,323.147 390,328.5C 390.667,380.167 390.667,431.833 390,483.5C 388.167,489.333 384.333,493.167 378.5,495C 367.167,495.667 355.833,495.667 344.5,495C 336.082,491.732 332.415,485.565 333.5,476.5C 341.507,476.666 349.507,476.5 357.5,476C 364.428,473.406 368.928,468.573 371,461.5C 371.5,413.834 371.667,366.168 371.5,318.5C 373.833,318.5 376.167,318.5 378.5,318.5 Z"/></g>
<g><path style="opacity:0.949" fill="#010202" d="M 239.5,359.5 C 252.885,359.097 266.218,359.597 279.5,361C 287.849,364.679 293.349,370.846 296,379.5C 296.667,415.167 296.667,450.833 296,486.5C 293.234,495.598 287.401,501.765 278.5,505C 264.5,505.667 250.5,505.667 236.5,505C 228.159,502.659 222.326,497.493 219,489.5C 217.359,453.214 217.026,416.88 218,380.5C 221.115,369.217 228.282,362.217 239.5,359.5 Z"/></g>
<g><path style="opacity:1" fill="#0482cc" d="M 263.5,370.5 C 263.969,400.883 263.469,431.217 262,461.5C 258.837,467.344 254.004,471.177 247.5,473C 241.175,473.5 234.842,473.666 228.5,473.5C 228.022,441.771 228.522,410.104 230,378.5C 232.452,375.179 235.618,372.679 239.5,371C 247.493,370.5 255.493,370.334 263.5,370.5 Z"/></g>
<g><path style="opacity:1" fill="#5aacdc" d="M 263.5,370.5 C 269.602,369.733 275.269,370.899 280.5,374C 282.617,375.731 284.117,377.898 285,380.5C 285.98,416.227 285.647,451.894 284,487.5C 281.337,491.161 277.837,493.661 273.5,495C 262.5,495.667 251.5,495.667 240.5,495C 230.692,491.229 226.692,484.062 228.5,473.5C 234.842,473.666 241.175,473.5 247.5,473C 254.004,471.177 258.837,467.344 262,461.5C 263.469,431.217 263.969,400.883 263.5,370.5 Z"/></g>
<g><path style="opacity:0.946" fill="#000000" d="M 136.5,406.5 C 148.886,406.106 161.22,406.606 173.5,408C 181.502,410.003 187.002,414.836 190,422.5C 191.633,444.103 191.967,465.769 191,487.5C 188.588,495.177 183.754,500.677 176.5,504C 161.568,505.617 146.568,505.951 131.5,505C 122.763,502.596 116.929,497.096 114,488.5C 112.895,477.88 112.395,467.214 112.5,456.5C 112.395,445.786 112.895,435.12 114,424.5C 117.894,413.824 125.394,407.824 136.5,406.5 Z"/></g>
<g><path style="opacity:1" fill="#f9565a" d="M 169.5,418.5 C 167.167,418.5 164.833,418.5 162.5,418.5C 162.667,432.837 162.5,447.171 162,461.5C 159.833,469 155,473.833 147.5,476C 139.507,476.5 131.507,476.666 123.5,476.5C 123.333,460.497 123.5,444.497 124,428.5C 126.256,423.243 130.09,419.743 135.5,418C 147.008,417.174 158.341,417.341 169.5,418.5 Z"/></g>
<g><path style="opacity:1" fill="#f78e90" d="M 169.5,418.5 C 175.409,419.908 179.243,423.574 181,429.5C 181.667,447.167 181.667,464.833 181,482.5C 179.5,489.333 175.333,493.5 168.5,495C 157.5,495.667 146.5,495.667 135.5,495C 126.612,492.066 122.612,485.9 123.5,476.5C 131.507,476.666 139.507,476.5 147.5,476C 155,473.833 159.833,469 162,461.5C 162.5,447.171 162.667,432.837 162.5,418.5C 164.833,418.5 167.167,418.5 169.5,418.5 Z"/></g>
</svg>
