<?xml version="1.0" encoding="UTF-8"?>
<!DOCTYPE svg PUBLIC "-//W3C//DTD SVG 1.1//EN" "http://www.w3.org/Graphics/SVG/1.1/DTD/svg11.dtd">
<svg xmlns="http://www.w3.org/2000/svg" version="1.1" width="512px" height="512px" style="shape-rendering:geometricPrecision; text-rendering:geometricPrecision; image-rendering:optimizeQuality; fill-rule:evenodd; clip-rule:evenodd" xmlns:xlink="http://www.w3.org/1999/xlink">
<g><path style="opacity:0.932" fill="#000000" d="M 448.5,9.5 C 453.072,12.5633 457.239,16.23 461,20.5C 461.667,21.1667 461.667,21.8333 461,22.5C 447.833,35.6667 434.667,48.8333 421.5,62C 407.594,63.2991 393.594,63.9658 379.5,64C 371.803,72.0311 363.803,79.6978 355.5,87C 352.036,87.8166 348.702,87.4833 345.5,86C 334.311,76.6438 322.978,67.4771 311.5,58.5C 302.692,64.8076 294.025,71.3076 285.5,78C 281.5,80 277.5,80 273.5,78C 259.302,68.3037 244.969,58.8037 230.5,49.5C 215.922,56.7055 201.422,64.0388 187,71.5C 184.5,66.5 182,61.5 179.5,56.5C 196.355,47.0718 213.688,38.7385 231.5,31.5C 233.634,31.5153 235.634,32.0153 237.5,33C 251.264,42.2968 265.098,51.4635 279,60.5C 288.104,54.4004 296.937,47.9004 305.5,41C 308.702,39.5167 312.036,39.1834 315.5,40C 327.31,48.976 338.977,58.1427 350.5,67.5C 357.35,60.8163 364.35,54.3163 371.5,48C 384.833,47.6667 398.167,47.3333 411.5,47C 424.035,34.6318 436.369,22.1318 448.5,9.5 Z"/></g>
<g><path style="opacity:0.99" fill="#000000" d="M 211.5,71.5 C 222.172,71.3335 232.839,71.5002 243.5,72C 245.333,72.5 246.5,73.6667 247,75.5C 247.667,96.8333 247.667,118.167 247,139.5C 246.5,141.333 245.333,142.5 243.5,143C 232.833,143.667 222.167,143.667 211.5,143C 209.667,142.5 208.5,141.333 208,139.5C 207.333,118.167 207.333,96.8333 208,75.5C 208.69,73.6498 209.856,72.3164 211.5,71.5 Z"/></g>
<g><path style="opacity:1" fill="#51a37d" d="M 223.5,87.5 C 226.167,87.5 228.833,87.5 231.5,87.5C 231.5,100.833 231.5,114.167 231.5,127.5C 228.833,127.5 226.167,127.5 223.5,127.5C 223.5,114.167 223.5,100.833 223.5,87.5 Z"/></g>
<g><path style="opacity:0.994" fill="#000000" d="M 259.5,87.5 C 270.172,87.3335 280.839,87.5002 291.5,88C 293.333,88.5 294.5,89.6667 295,91.5C 295.667,131.5 295.667,171.5 295,211.5C 294.5,213.333 293.333,214.5 291.5,215C 280.833,215.667 270.167,215.667 259.5,215C 257.667,214.5 256.5,213.333 256,211.5C 255.333,171.5 255.333,131.5 256,91.5C 256.69,89.6498 257.856,88.3164 259.5,87.5 Z"/></g>
<g><path style="opacity:0.995" fill="#000000" d="M 403.5,87.5 C 414.172,87.3335 424.839,87.5002 435.5,88C 437.333,88.5 438.5,89.6667 439,91.5C 439.667,136.833 439.667,182.167 439,227.5C 438.5,229.333 437.333,230.5 435.5,231C 424.833,231.667 414.167,231.667 403.5,231C 401.667,230.5 400.5,229.333 400,227.5C 399.333,182.167 399.333,136.833 400,91.5C 400.69,89.6498 401.856,88.3164 403.5,87.5 Z"/></g>
<g><path style="opacity:1" fill="#ec6444" d="M 271.5,103.5 C 274.167,103.5 276.833,103.5 279.5,103.5C 279.5,135.5 279.5,167.5 279.5,199.5C 276.833,199.5 274.167,199.5 271.5,199.5C 271.5,167.5 271.5,135.5 271.5,103.5 Z"/></g>
<g><path style="opacity:1" fill="#51a37d" d="M 415.5,103.5 C 418.167,103.5 420.833,103.5 423.5,103.5C 423.5,140.833 423.5,178.167 423.5,215.5C 420.833,215.5 418.167,215.5 415.5,215.5C 415.5,178.167 415.5,140.833 415.5,103.5 Z"/></g>
<g><path style="opacity:0.99" fill="#000000" d="M 307.5,119.5 C 318.172,119.333 328.839,119.5 339.5,120C 341.333,120.5 342.5,121.667 343,123.5C 343.667,144.833 343.667,166.167 343,187.5C 342.5,189.333 341.333,190.5 339.5,191C 328.833,191.667 318.167,191.667 307.5,191C 305.667,190.5 304.5,189.333 304,187.5C 303.333,166.167 303.333,144.833 304,123.5C 304.69,121.65 305.856,120.316 307.5,119.5 Z"/></g>
<g><path style="opacity:0.995" fill="#000000" d="M 355.5,119.5 C 366.172,119.333 376.839,119.5 387.5,120C 389.333,120.5 390.5,121.667 391,123.5C 391.667,168.833 391.667,214.167 391,259.5C 390.5,261.333 389.333,262.5 387.5,263C 376.833,263.667 366.167,263.667 355.5,263C 353.667,262.5 352.5,261.333 352,259.5C 351.333,214.167 351.333,168.833 352,123.5C 352.69,121.65 353.856,120.316 355.5,119.5 Z"/></g>
<g><path style="opacity:1" fill="#ec6444" d="M 319.5,135.5 C 322.167,135.5 324.833,135.5 327.5,135.5C 327.5,148.833 327.5,162.167 327.5,175.5C 324.833,175.5 322.167,175.5 319.5,175.5C 319.5,162.167 319.5,148.833 319.5,135.5 Z"/></g>
<g><path style="opacity:1" fill="#51a37d" d="M 367.5,135.5 C 370.167,135.5 372.833,135.5 375.5,135.5C 375.5,172.833 375.5,210.167 375.5,247.5C 372.833,247.5 370.167,247.5 367.5,247.5C 367.5,210.167 367.5,172.833 367.5,135.5 Z"/></g>
<g><path style="opacity:0.989" fill="#020101" d="M 109.5,487.5 C 99.7031,481.887 90.8698,474.887 83,466.5C 71.3333,452.5 59.6667,438.5 48,424.5C 47.5,445.497 47.3334,466.497 47.5,487.5C 47.5,490.167 47.5,492.833 47.5,495.5C 42.1667,495.5 36.8333,495.5 31.5,495.5C 31.6666,465.498 31.5,435.498 31,405.5C 15.8035,386.52 11.4702,365.187 18,341.5C 27.1619,316.669 44.6619,301.502 70.5,296C 80.1667,295.667 89.8333,295.333 99.5,295C 103.333,291.167 107.167,287.333 111,283.5C 111.667,275.5 111.667,267.5 111,259.5C 103.317,253.661 98.8167,245.995 97.5,236.5C 97.9812,233.917 98.6479,231.417 99.5,229C 88.4994,212.166 88.9994,195.666 101,179.5C 106.621,173.554 113.454,169.721 121.5,168C 145.167,167.333 168.833,167.333 192.5,168C 204.864,173.561 209.698,183.061 207,196.5C 205.651,200.533 203.318,203.866 200,206.5C 199.667,225.5 199.333,244.5 199,263.5C 195.656,274.177 188.823,281.677 178.5,286C 181.5,289 184.5,292 187.5,295C 198.5,295.333 209.5,295.667 220.5,296C 233.697,299.194 244.197,306.361 252,317.5C 270.463,344.928 289.297,372.095 308.5,399C 321.18,399.833 333.846,399.666 346.5,398.5C 351.333,388.833 356.167,379.167 361,369.5C 361.75,368.874 362.584,368.374 363.5,368C 406.167,367.333 448.833,367.333 491.5,368C 494.516,369.529 495.849,372.029 495.5,375.5C 495.333,376.833 495.167,378.167 495,379.5C 476,417.5 457,455.5 438,493.5C 437.25,494.126 436.416,494.626 435.5,495C 334.5,495.667 233.5,495.667 132.5,495C 124.266,493.867 116.6,491.367 109.5,487.5 Z M 207.5,395.5 C 211.269,400.039 214.269,405.039 216.5,410.5C 213.552,410.223 210.719,410.556 208,411.5C 207.501,406.177 207.334,400.844 207.5,395.5 Z"/></g>
<g><path style="opacity:1" fill="#b06d41" d="M 124.5,183.5 C 145.503,183.333 166.503,183.5 187.5,184C 191.994,186.467 192.66,189.8 189.5,194C 184.533,195.933 179.533,197.767 174.5,199.5C 160.559,196.277 146.559,193.777 132.5,192C 130.333,192.833 128.833,194.333 128,196.5C 127.667,201.833 127.333,207.167 127,212.5C 126.167,213.333 125.333,214.167 124.5,215C 120.471,215.303 116.471,215.803 112.5,216.5C 104.81,201.505 108.81,190.505 124.5,183.5 Z"/></g>
<g><path style="opacity:1" fill="#fcccb4" d="M 143.5,209.5 C 154.024,211.305 164.524,213.305 175,215.5C 177.822,214.725 180.656,214.058 183.5,213.5C 183.667,228.837 183.5,244.17 183,259.5C 177.604,270.947 169.104,274.113 157.5,269C 154.605,266.443 152.105,263.61 150,260.5C 145.28,262.443 140.78,264.776 136.5,267.5C 141.321,277.259 148.988,283.759 159.5,287C 153.972,293.227 148.806,299.727 144,306.5C 138.424,299.68 133.091,292.68 128,285.5C 127.667,274.5 127.333,263.5 127,252.5C 123.368,247.866 119.368,243.533 115,239.5C 113.959,236.364 114.793,233.864 117.5,232C 122.584,231.827 127.584,231.161 132.5,230C 135.667,226.833 138.833,223.667 142,220.5C 143.237,216.94 143.737,213.273 143.5,209.5 Z"/></g>
<g><path style="opacity:1" fill="#f0967a" d="M 117.5,300.5 C 119.017,300.511 120.184,301.177 121,302.5C 125.027,307.694 128.86,313.027 132.5,318.5C 129.5,322.167 126.167,325.5 122.5,328.5C 119.11,321.332 116.11,313.998 113.5,306.5C 114.432,304.235 115.765,302.235 117.5,300.5 Z"/></g>
<g><path style="opacity:1" fill="#ef957a" d="M 168.5,300.5 C 170.899,301.898 172.566,303.898 173.5,306.5C 170.89,313.998 167.89,321.332 164.5,328.5C 160.833,325.5 157.5,322.167 154.5,318.5C 159.175,312.47 163.842,306.47 168.5,300.5 Z"/></g>
<g><path style="opacity:1" fill="#eb6344" d="M 73.5,311.5 C 81.8599,311.169 90.1932,311.502 98.5,312.5C 103.277,323.721 107.777,335.054 112,346.5C 114.983,351.568 119.149,352.735 124.5,350C 128,346.5 131.5,343 135,339.5C 135.5,351.495 135.667,363.495 135.5,375.5C 140.833,375.5 146.167,375.5 151.5,375.5C 151.333,363.495 151.5,351.495 152,339.5C 155.867,343.702 160.033,347.535 164.5,351C 167.783,351.743 170.783,351.076 173.5,349C 178.398,336.81 183.398,324.643 188.5,312.5C 197.482,311.335 206.482,311.168 215.5,312C 221.471,312.986 226.804,315.319 231.5,319C 242.534,333.569 253.201,348.402 263.5,363.5C 252.005,373.492 240.338,383.325 228.5,393C 227.004,393.507 225.837,393.007 225,391.5C 218.667,381.833 212.333,372.167 206,362.5C 200.522,357.998 195.855,358.665 192,364.5C 191.833,380.844 191.333,397.177 190.5,413.5C 177.247,416.158 163.913,417.491 150.5,417.5C 131.74,393.651 112.74,369.984 93.5,346.5C 89.5,349.833 85.5,353.167 81.5,356.5C 90.5,367.833 99.5,379.167 108.5,390.5C 95.5748,401.967 82.2414,412.967 68.5,423.5C 58.4686,412.968 48.9686,401.968 40,390.5C 24.2322,360.309 30.3988,335.809 58.5,317C 63.4337,314.637 68.4337,312.804 73.5,311.5 Z"/></g>
<g><path style="opacity:1" fill="#fccbb4" d="M 271.5,377.5 C 272.496,377.414 273.329,377.748 274,378.5C 281.796,390.594 289.963,402.428 298.5,414C 311.739,415.297 325.072,415.964 338.5,416C 332.5,427.667 326.5,439.333 320.5,451C 312.647,453.253 304.647,454.753 296.5,455.5C 296.245,452.984 295.411,450.65 294,448.5C 286.522,439.054 278.689,429.888 270.5,421C 260.22,413.851 248.886,409.351 236.5,407.5C 248.186,397.477 259.853,387.477 271.5,377.5 Z"/></g>
<g><path style="opacity:1" fill="#e3e8f1" d="M 372.5,383.5 C 406.502,383.333 440.502,383.5 474.5,384C 458.5,415.667 442.5,447.333 426.5,479C 392.5,479.667 358.5,479.667 324.5,479C 340.641,447.218 356.641,415.384 372.5,383.5 Z"/></g>
<g><path style="opacity:1" fill="#fcccb4" d="M 117.5,403.5 C 118.496,403.414 119.329,403.748 120,404.5C 123.976,409.977 128.142,415.31 132.5,420.5C 132.291,421.086 131.957,421.586 131.5,422C 127.833,422.333 124.167,422.667 120.5,423C 119.692,423.308 119.025,423.808 118.5,424.5C 119.124,429.529 119.958,434.529 121,439.5C 156.193,435.044 191.36,430.211 226.5,425C 238.026,423.549 248.693,425.882 258.5,432C 265.639,439.293 272.305,446.959 278.5,455C 271.167,455.667 263.833,455.667 256.5,455C 250.945,451.804 245.111,449.304 239,447.5C 212.891,457.804 186.724,467.971 160.5,478C 132.543,483.099 109.71,474.599 92,452.5C 87.5919,447.348 83.4252,442.015 79.5,436.5C 92.1863,425.477 104.853,414.477 117.5,403.5 Z"/></g>
<g><path style="opacity:1" fill="#eb6344" d="M 109.5,487.5 C 88.8333,487.5 68.1667,487.5 47.5,487.5C 47.3334,466.497 47.5,445.497 48,424.5C 59.6667,438.5 71.3333,452.5 83,466.5C 90.8698,474.887 99.7031,481.887 109.5,487.5 Z"/></g>
<g><path style="opacity:1" fill="#c8d6eb" d="M 219.5,471.5 C 249.835,471.333 280.168,471.5 310.5,472C 309.167,474.333 307.833,476.667 306.5,479C 271.5,479.667 236.5,479.667 201.5,479C 207.704,476.724 213.704,474.224 219.5,471.5 Z"/></g>
</svg>
