<?xml version="1.0" encoding="UTF-8"?>
<!DOCTYPE svg PUBLIC "-//W3C//DTD SVG 1.1//EN" "http://www.w3.org/Graphics/SVG/1.1/DTD/svg11.dtd">
<svg xmlns="http://www.w3.org/2000/svg" version="1.1" width="512px" height="512px" style="shape-rendering:geometricPrecision; text-rendering:geometricPrecision; image-rendering:optimizeQuality; fill-rule:evenodd; clip-rule:evenodd" xmlns:xlink="http://www.w3.org/1999/xlink">
<g><path style="opacity:0.98" fill="#f9bc45" d="M 441.5,67.5 C 439.539,65.0365 437.372,62.7032 435,60.5C 434.102,57.9309 432.935,55.5976 431.5,53.5C 429.384,40.5661 434.051,31.0661 445.5,25C 465.019,19.9232 476.686,27.2566 480.5,47C 477.831,65.6691 467.165,73.6691 448.5,71C 445.861,70.3471 443.527,69.1804 441.5,67.5 Z"/></g>
<g><path style="opacity:0.993" fill="#f9bc46" d="M 223.5,66.5 C 217.82,62.2288 212.487,62.5622 207.5,67.5C 207.333,56.8281 207.5,46.1615 208,35.5C 209.529,32.484 212.029,31.1506 215.5,31.5C 218.971,31.1506 221.471,32.484 223,35.5C 223.5,45.828 223.666,56.1613 223.5,66.5 Z"/></g>
<g><path style="opacity:0.972" fill="#ed9b2f" d="M 431.5,53.5 C 432.935,55.5976 434.102,57.9309 435,60.5C 437.372,62.7032 439.539,65.0365 441.5,67.5C 420.312,79.8388 398.979,92.0055 377.5,104C 350.47,112.382 323.303,120.215 296,127.5C 292.871,127.671 290.037,126.838 287.5,125C 263.964,110.634 240.298,96.4677 216.5,82.5C 190.719,104.778 165.386,127.612 140.5,151C 120.103,157.078 99.7699,163.244 79.5,169.5C 80.0433,163.135 78.3766,157.468 74.5,152.5C 92.122,147.344 109.789,142.344 127.5,137.5C 133.998,134.675 139.331,130.342 143.5,124.5C 164.833,105.5 186.167,86.5 207.5,67.5C 212.487,62.5622 217.82,62.2288 223.5,66.5C 244.833,79.1667 266.167,91.8333 287.5,104.5C 290.365,106.856 293.532,108.856 297,110.5C 299.154,109.726 301.321,109.059 303.5,108.5C 324.706,101.765 346.039,95.4318 367.5,89.5C 373.442,87.5305 378.775,84.5305 383.5,80.5C 399.5,71.5 415.5,62.5 431.5,53.5 Z"/></g>
<g><path style="opacity:0.992" fill="#f9bc45" d="M 383.5,80.5 C 378.775,84.5305 373.442,87.5305 367.5,89.5C 367.334,79.4944 367.5,69.4944 368,59.5C 369.529,56.484 372.029,55.1506 375.5,55.5C 377.926,55.4035 380.093,56.0702 382,57.5C 383.432,65.0542 383.932,72.7208 383.5,80.5 Z"/></g>
<g><path style="opacity:0.992" fill="#f9bc46" d="M 303.5,108.5 C 301.321,109.059 299.154,109.726 297,110.5C 293.532,108.856 290.365,106.856 287.5,104.5C 287.334,97.4921 287.5,90.4921 288,83.5C 288.5,81.6667 289.667,80.5 291.5,80C 294.167,79.3333 296.833,79.3333 299.5,80C 301.333,80.5 302.5,81.6667 303,83.5C 303.5,91.8267 303.666,100.16 303.5,108.5 Z"/></g>
<g><path style="opacity:0.993" fill="#5dc168" d="M 463.5,135.5 C 458.167,135.5 452.833,135.5 447.5,135.5C 447.333,123.495 447.5,111.495 448,99.5C 449.529,96.484 452.029,95.1506 455.5,95.5C 458.971,95.1506 461.471,96.484 463,99.5C 463.5,111.495 463.667,123.495 463.5,135.5 Z"/></g>
<g><path style="opacity:0.992" fill="#f9bc45" d="M 143.5,124.5 C 139.331,130.342 133.998,134.675 127.5,137.5C 127.334,127.494 127.5,117.494 128,107.5C 129.529,104.484 132.029,103.151 135.5,103.5C 137.926,103.404 140.093,104.07 142,105.5C 143.416,111.715 143.916,118.048 143.5,124.5 Z"/></g>
<g><path style="opacity:0.993" fill="#5dc168" d="M 223.5,151.5 C 218.167,151.5 212.833,151.5 207.5,151.5C 207.333,139.495 207.5,127.495 208,115.5C 209.529,112.484 212.029,111.151 215.5,111.5C 218.971,111.151 221.471,112.484 223,115.5C 223.5,127.495 223.667,139.495 223.5,151.5 Z"/></g>
<g><path style="opacity:0.988" fill="#e45252" d="M 383.5,159.5 C 378.167,159.5 372.833,159.5 367.5,159.5C 367.333,147.495 367.5,135.495 368,123.5C 369.529,120.484 372.029,119.151 375.5,119.5C 378.971,119.151 381.471,120.484 383,123.5C 383.5,135.495 383.667,147.495 383.5,159.5 Z"/></g>
<g><path style="opacity:1" fill="#77d887" d="M 447.5,135.5 C 452.833,135.5 458.167,135.5 463.5,135.5C 468.833,135.5 474.167,135.5 479.5,135.5C 479.5,159.5 479.5,183.5 479.5,207.5C 463.5,207.5 447.5,207.5 431.5,207.5C 431.5,183.5 431.5,159.5 431.5,135.5C 436.833,135.5 442.167,135.5 447.5,135.5 Z"/></g>
<g><path style="opacity:0.983" fill="#f9bc46" d="M 74.5,152.5 C 78.3766,157.468 80.0433,163.135 79.5,169.5C 76.5081,186.965 66.1747,194.132 48.5,191C 31.1685,183.163 26.6685,170.663 35,153.5C 44.791,142.757 56.291,140.59 69.5,147C 71.3734,148.704 73.0401,150.537 74.5,152.5 Z"/></g>
<g><path style="opacity:1" fill="#77d887" d="M 207.5,151.5 C 212.833,151.5 218.167,151.5 223.5,151.5C 228.833,151.5 234.167,151.5 239.5,151.5C 239.5,183.5 239.5,215.5 239.5,247.5C 223.5,247.5 207.5,247.5 191.5,247.5C 191.5,215.5 191.5,183.5 191.5,151.5C 196.833,151.5 202.167,151.5 207.5,151.5 Z"/></g>
<g><path style="opacity:0.99" fill="#e45252" d="M 303.5,199.5 C 298.167,199.5 292.833,199.5 287.5,199.5C 287.333,184.83 287.5,170.163 288,155.5C 289.529,152.484 292.029,151.151 295.5,151.5C 298.971,151.151 301.471,152.484 303,155.5C 303.5,170.163 303.667,184.83 303.5,199.5 Z"/></g>
<g><path style="opacity:1" fill="#e47675" d="M 367.5,159.5 C 372.833,159.5 378.167,159.5 383.5,159.5C 388.833,159.5 394.167,159.5 399.5,159.5C 399.5,191.5 399.5,223.5 399.5,255.5C 383.5,255.5 367.5,255.5 351.5,255.5C 351.5,223.5 351.5,191.5 351.5,159.5C 356.833,159.5 362.167,159.5 367.5,159.5 Z"/></g>
<g><path style="opacity:0.99" fill="#e45252" d="M 143.5,223.5 C 138.167,223.5 132.833,223.5 127.5,223.5C 127.333,208.83 127.5,194.163 128,179.5C 129.529,176.484 132.029,175.151 135.5,175.5C 138.971,175.151 141.471,176.484 143,179.5C 143.5,194.163 143.667,208.83 143.5,223.5 Z"/></g>
<g><path style="opacity:1" fill="#e47675" d="M 287.5,199.5 C 292.833,199.5 298.167,199.5 303.5,199.5C 308.833,199.5 314.167,199.5 319.5,199.5C 319.5,231.5 319.5,263.5 319.5,295.5C 303.5,295.5 287.5,295.5 271.5,295.5C 271.5,263.5 271.5,231.5 271.5,199.5C 276.833,199.5 282.167,199.5 287.5,199.5 Z"/></g>
<g><path style="opacity:0.999" fill="#5dc168" d="M 431.5,207.5 C 447.5,207.5 463.5,207.5 479.5,207.5C 479.5,228.833 479.5,250.167 479.5,271.5C 474.167,271.5 468.833,271.5 463.5,271.5C 463.667,291.503 463.5,311.503 463,331.5C 461.471,334.516 458.971,335.849 455.5,335.5C 452.029,335.849 449.529,334.516 448,331.5C 447.5,311.503 447.333,291.503 447.5,271.5C 442.167,271.5 436.833,271.5 431.5,271.5C 431.5,250.167 431.5,228.833 431.5,207.5 Z"/></g>
<g><path style="opacity:0.993" fill="#5dc168" d="M 63.5,255.5 C 58.1667,255.5 52.8333,255.5 47.5,255.5C 47.3335,243.495 47.5001,231.495 48,219.5C 49.5286,216.484 52.0286,215.151 55.5,215.5C 58.9714,215.151 61.4714,216.484 63,219.5C 63.4999,231.495 63.6665,243.495 63.5,255.5 Z"/></g>
<g><path style="opacity:1" fill="#e47675" d="M 127.5,223.5 C 132.833,223.5 138.167,223.5 143.5,223.5C 148.833,223.5 154.167,223.5 159.5,223.5C 159.5,247.5 159.5,271.5 159.5,295.5C 143.5,295.5 127.5,295.5 111.5,295.5C 111.5,271.5 111.5,247.5 111.5,223.5C 116.833,223.5 122.167,223.5 127.5,223.5 Z"/></g>
<g><path style="opacity:0.999" fill="#5dc168" d="M 191.5,247.5 C 207.5,247.5 223.5,247.5 239.5,247.5C 239.5,268.833 239.5,290.167 239.5,311.5C 234.167,311.5 228.833,311.5 223.5,311.5C 223.667,323.505 223.5,335.505 223,347.5C 221.471,350.516 218.971,351.849 215.5,351.5C 212.029,351.849 209.529,350.516 208,347.5C 207.5,335.505 207.333,323.505 207.5,311.5C 202.167,311.5 196.833,311.5 191.5,311.5C 191.5,290.167 191.5,268.833 191.5,247.5 Z"/></g>
<g><path style="opacity:1" fill="#77d887" d="M 47.5,255.5 C 52.8333,255.5 58.1667,255.5 63.5,255.5C 68.8333,255.5 74.1667,255.5 79.5,255.5C 79.5,279.5 79.5,303.5 79.5,327.5C 63.5,327.5 47.5,327.5 31.5,327.5C 31.5,303.5 31.5,279.5 31.5,255.5C 36.8333,255.5 42.1667,255.5 47.5,255.5 Z"/></g>
<g><path style="opacity:0.998" fill="#e45353" d="M 351.5,255.5 C 367.5,255.5 383.5,255.5 399.5,255.5C 399.5,276.833 399.5,298.167 399.5,319.5C 394.167,319.5 388.833,319.5 383.5,319.5C 383.667,334.17 383.5,348.837 383,363.5C 381.471,366.516 378.971,367.849 375.5,367.5C 372.029,367.849 369.529,366.516 368,363.5C 367.5,348.837 367.333,334.17 367.5,319.5C 362.167,319.5 356.833,319.5 351.5,319.5C 351.5,298.167 351.5,276.833 351.5,255.5 Z"/></g>
<g><path style="opacity:0.998" fill="#e45353" d="M 111.5,295.5 C 127.5,295.5 143.5,295.5 159.5,295.5C 159.5,316.833 159.5,338.167 159.5,359.5C 154.167,359.5 148.833,359.5 143.5,359.5C 143.667,374.17 143.5,388.837 143,403.5C 141.471,406.516 138.971,407.849 135.5,407.5C 132.029,407.849 129.529,406.516 128,403.5C 127.5,388.837 127.333,374.17 127.5,359.5C 122.167,359.5 116.833,359.5 111.5,359.5C 111.5,338.167 111.5,316.833 111.5,295.5 Z"/></g>
<g><path style="opacity:0.998" fill="#e45353" d="M 271.5,295.5 C 287.5,295.5 303.5,295.5 319.5,295.5C 319.5,316.833 319.5,338.167 319.5,359.5C 314.167,359.5 308.833,359.5 303.5,359.5C 303.667,374.17 303.5,388.837 303,403.5C 301.471,406.516 298.971,407.849 295.5,407.5C 292.029,407.849 289.529,406.516 288,403.5C 287.5,388.837 287.333,374.17 287.5,359.5C 282.167,359.5 276.833,359.5 271.5,359.5C 271.5,338.167 271.5,316.833 271.5,295.5 Z"/></g>
<g><path style="opacity:0.999" fill="#5dc168" d="M 31.5,327.5 C 47.5,327.5 63.5,327.5 79.5,327.5C 79.5,348.833 79.5,370.167 79.5,391.5C 74.1667,391.5 68.8333,391.5 63.5,391.5C 63.6665,403.505 63.4999,415.505 63,427.5C 61.4714,430.516 58.9714,431.849 55.5,431.5C 52.0286,431.849 49.5286,430.516 48,427.5C 47.5001,415.505 47.3335,403.505 47.5,391.5C 42.1667,391.5 36.8333,391.5 31.5,391.5C 31.5,370.167 31.5,348.833 31.5,327.5 Z"/></g>
<g><path style="opacity:1" fill="#adc4cb" d="M 503.5,479.5 C 338.167,479.5 172.833,479.5 7.5,479.5C 7.5,471.5 7.5,463.5 7.5,455.5C 172.833,455.5 338.167,455.5 503.5,455.5C 503.5,463.5 503.5,471.5 503.5,479.5 Z"/></g>
<g><path style="opacity:1" fill="#7e99a4" d="M 7.5,479.5 C 172.833,479.5 338.167,479.5 503.5,479.5C 503.5,487.5 503.5,495.5 503.5,503.5C 338.167,503.5 172.833,503.5 7.5,503.5C 7.5,495.5 7.5,487.5 7.5,479.5 Z"/></g>
</svg>
