<?xml version="1.0" encoding="UTF-8"?>
<!DOCTYPE svg PUBLIC "-//W3C//DTD SVG 1.1//EN" "http://www.w3.org/Graphics/SVG/1.1/DTD/svg11.dtd">
<svg xmlns="http://www.w3.org/2000/svg" version="1.1" width="512px" height="512px" style="shape-rendering:geometricPrecision; text-rendering:geometricPrecision; image-rendering:optimizeQuality; fill-rule:evenodd; clip-rule:evenodd" xmlns:xlink="http://www.w3.org/1999/xlink">
<g><path style="opacity:0.997" fill="#d0d2d4" d="M 31.5,259.5 C 31.5,265.5 31.5,271.5 31.5,277.5C 31.5,291.5 31.5,305.5 31.5,319.5C 31.5,328.5 31.5,337.5 31.5,346.5C 31.5,390.833 31.5,435.167 31.5,479.5C 36.8333,479.5 42.1667,479.5 47.5,479.5C 47.3335,467.495 47.5001,455.495 48,443.5C 49.5286,440.484 52.0286,439.151 55.5,439.5C 58.9714,439.151 61.4714,440.484 63,443.5C 63.4999,455.495 63.6665,467.495 63.5,479.5C 68.8333,479.5 74.1667,479.5 79.5,479.5C 79.3334,459.497 79.5,439.497 80,419.5C 81.5286,416.484 84.0286,415.151 87.5,415.5C 90.9714,415.151 93.4714,416.484 95,419.5C 95.5,439.497 95.6666,459.497 95.5,479.5C 100.833,479.5 106.167,479.5 111.5,479.5C 111.333,454.164 111.5,428.831 112,403.5C 113.529,400.484 116.029,399.151 119.5,399.5C 122.971,399.151 125.471,400.484 127,403.5C 127.5,428.831 127.667,454.164 127.5,479.5C 132.833,479.5 138.167,479.5 143.5,479.5C 143.333,464.83 143.5,450.163 144,435.5C 145.529,432.484 148.029,431.151 151.5,431.5C 154.971,431.151 157.471,432.484 159,435.5C 159.5,450.163 159.667,464.83 159.5,479.5C 164.833,479.5 170.167,479.5 175.5,479.5C 175.334,472.825 175.5,466.158 176,459.5C 177.529,456.484 180.029,455.151 183.5,455.5C 186.971,455.151 189.471,456.484 191,459.5C 191.5,466.158 191.666,472.825 191.5,479.5C 199.5,479.5 207.5,479.5 215.5,479.5C 215.334,472.825 215.5,466.158 216,459.5C 217.529,456.484 220.029,455.151 223.5,455.5C 226.971,455.151 229.471,456.484 231,459.5C 231.5,466.158 231.666,472.825 231.5,479.5C 236.833,479.5 242.167,479.5 247.5,479.5C 247.333,456.831 247.5,434.164 248,411.5C 249.529,408.484 252.029,407.151 255.5,407.5C 258.971,407.151 261.471,408.484 263,411.5C 263.5,434.164 263.667,456.831 263.5,479.5C 268.833,479.5 274.167,479.5 279.5,479.5C 279.333,464.83 279.5,450.163 280,435.5C 281.529,432.484 284.029,431.151 287.5,431.5C 290.971,431.151 293.471,432.484 295,435.5C 295.5,450.163 295.667,464.83 295.5,479.5C 300.833,479.5 306.167,479.5 311.5,479.5C 311.333,467.495 311.5,455.495 312,443.5C 313.529,440.484 316.029,439.151 319.5,439.5C 322.971,439.151 325.471,440.484 327,443.5C 327.5,455.495 327.667,467.495 327.5,479.5C 332.833,479.5 338.167,479.5 343.5,479.5C 343.333,467.495 343.5,455.495 344,443.5C 345.529,440.484 348.029,439.151 351.5,439.5C 354.971,439.151 357.471,440.484 359,443.5C 359.5,455.495 359.667,467.495 359.5,479.5C 367.5,479.5 375.5,479.5 383.5,479.5C 383.334,472.825 383.5,466.158 384,459.5C 385.529,456.484 388.029,455.151 391.5,455.5C 394.971,455.151 397.471,456.484 399,459.5C 399.5,466.158 399.666,472.825 399.5,479.5C 404.833,479.5 410.167,479.5 415.5,479.5C 415.333,456.831 415.5,434.164 416,411.5C 417.529,408.484 420.029,407.151 423.5,407.5C 426.971,407.151 429.471,408.484 431,411.5C 431.5,434.164 431.667,456.831 431.5,479.5C 436.833,479.5 442.167,479.5 447.5,479.5C 447.333,464.83 447.5,450.163 448,435.5C 449.529,432.484 452.029,431.151 455.5,431.5C 458.971,431.151 461.471,432.484 463,435.5C 463.5,450.163 463.667,464.83 463.5,479.5C 468.833,479.5 474.167,479.5 479.5,479.5C 479.333,467.495 479.5,455.495 480,443.5C 481.529,440.484 484.029,439.151 487.5,439.5C 490.971,439.151 493.471,440.484 495,443.5C 495.667,459.5 495.667,475.5 495,491.5C 494.5,493.333 493.333,494.5 491.5,495C 334.167,495.667 176.833,495.667 19.5,495C 18.5838,494.626 17.7504,494.126 17,493.5C 15.8363,419.541 15.003,345.541 14.5,271.5C 15.3306,187.54 15.8306,103.54 16,19.5C 16.5,17.6667 17.6667,16.5 19.5,16C 22.1667,15.3333 24.8333,15.3333 27.5,16C 29.3333,16.5 30.5,17.6667 31,19.5C 31.5,99.4993 31.6667,179.499 31.5,259.5 Z"/></g>
<g><path style="opacity:0.986" fill="#ffb632" d="M 241.5,15.5 C 285.51,11.7451 317.344,29.4118 337,68.5C 351.656,110.049 342.489,145.216 309.5,174C 283.729,192.183 255.729,196.516 225.5,187C 181.02,167.222 162.186,133.055 169,84.5C 179.095,46.569 203.261,23.569 241.5,15.5 Z"/></g>
<g><path style="opacity:1" fill="#ffd239" d="M 245.5,31.5 C 276.899,29.2832 301.066,41.2832 318,67.5C 332.229,95.7327 330.229,122.733 312,148.5C 291.707,171.486 266.541,179.653 236.5,173C 202.975,161.461 185.309,137.961 183.5,102.5C 187.111,63.8918 207.778,40.2251 245.5,31.5 Z"/></g>
<g><path style="opacity:1" fill="#ffb632" d="M 252.5,47.5 C 256.115,47.2055 259.282,48.2055 262,50.5C 263.367,54.6996 263.867,59.0329 263.5,63.5C 267.936,63.2101 272.27,63.7101 276.5,65C 280.5,69.3333 280.5,73.6667 276.5,78C 268.577,79.2355 260.577,79.9021 252.5,80C 246.741,83.8919 246.074,88.5586 250.5,94C 264.556,93.9378 274.056,100.438 279,113.5C 281.177,127.103 276.011,136.437 263.5,141.5C 263.825,146.599 263.325,151.599 262,156.5C 257.631,160.379 253.298,160.379 249,156.5C 247.71,152.27 247.21,147.936 247.5,143.5C 243.033,143.867 238.7,143.367 234.5,142C 229.998,136.522 230.665,131.855 236.5,128C 243.833,127.667 251.167,127.333 258.5,127C 264.259,123.108 264.926,118.441 260.5,113C 246.793,112.569 237.293,106.069 232,93.5C 229.787,79.9207 234.954,70.5874 247.5,65.5C 247.334,61.1539 247.501,56.8206 248,52.5C 249.025,50.313 250.525,48.6464 252.5,47.5 Z"/></g>
<g><path style="opacity:0.974" fill="#ea423f" d="M 449.5,226.5 C 449.34,224.801 449.506,223.134 450,221.5C 451.379,217.152 453.213,213.152 455.5,209.5C 458.621,211.448 461.621,213.615 464.5,216C 465.332,216.688 465.998,216.521 466.5,215.5C 471.023,197.407 475.856,179.407 481,161.5C 485.456,157.953 489.789,157.953 494,161.5C 495.504,165.039 495.837,168.705 495,172.5C 489.823,193.543 484.489,214.543 479,235.5C 478.5,237.333 477.333,238.5 475.5,239C 472.833,239.667 470.167,239.667 467.5,239C 461.344,235.003 455.344,230.836 449.5,226.5 Z"/></g>
<g><path style="opacity:0.969" fill="#3dc185" d="M 396.5,204.5 C 399.08,210.668 402.414,216.335 406.5,221.5C 411.132,231.43 416.299,241.097 422,250.5C 426.18,238.812 430.347,227.146 434.5,215.5C 437.309,210.195 439.309,204.528 440.5,198.5C 443.28,191.589 446.113,184.589 449,177.5C 460.256,172.794 464.923,176.461 463,188.5C 460.394,195.486 457.894,202.486 455.5,209.5C 453.213,213.152 451.379,217.152 450,221.5C 449.506,223.134 449.34,224.801 449.5,226.5C 443.401,241.952 437.568,257.619 432,273.5C 429.646,279.095 425.479,280.928 419.5,279C 418.584,278.626 417.75,278.126 417,277.5C 409.821,264.473 402.654,251.473 395.5,238.5C 393.26,232.35 390.26,226.684 386.5,221.5C 382.679,214.527 378.846,207.527 375,200.5C 358.5,226.333 342,252.167 325.5,278C 321.961,279.504 318.295,279.837 314.5,279C 306.573,276.191 298.573,273.691 290.5,271.5C 290.5,270.833 290.167,270.5 289.5,270.5C 284.273,268.312 278.939,266.312 273.5,264.5C 261.856,273.812 250.856,283.812 240.5,294.5C 239.833,294.5 239.5,294.833 239.5,295.5C 230.41,302.417 221.743,309.917 213.5,318C 209.219,320.109 205.052,319.942 201,317.5C 200.138,315.913 199.471,314.246 199,312.5C 194.822,286.432 190.322,260.432 185.5,234.5C 167.652,252.182 149.652,269.682 131.5,287C 128.036,287.817 124.702,287.483 121.5,286C 113.626,279.287 105.626,272.787 97.5,266.5C 93.8363,262.843 89.8363,259.509 85.5,256.5C 83.4734,257.513 81.4734,258.513 79.5,259.5C 78.8333,259.5 78.5,259.833 78.5,260.5C 62.757,265.97 47.0903,271.636 31.5,277.5C 31.5,271.5 31.5,265.5 31.5,259.5C 49.8346,252.333 68.3346,245.667 87,239.5C 89.2998,239.494 91.4664,239.994 93.5,241C 104.356,250.023 115.356,258.856 126.5,267.5C 146.32,248.181 165.986,228.681 185.5,209C 189.5,207 193.5,207 197.5,209C 198.717,210.648 199.55,212.481 200,214.5C 204.24,241.273 208.906,267.94 214,294.5C 228.959,281.61 243.792,268.61 258.5,255.5C 261.938,253.241 265.271,250.741 268.5,248C 272.904,247.742 277.238,248.242 281.5,249.5C 292.952,253.93 304.619,257.43 316.5,260C 332.792,234.585 348.958,209.085 365,183.5C 368.512,175.434 374.178,173.434 382,177.5C 386.846,186.527 391.679,195.527 396.5,204.5 Z M 434.5,215.5 C 430.347,227.146 426.18,238.812 422,250.5C 416.299,241.097 411.132,231.43 406.5,221.5C 410.11,215.384 413.943,209.384 418,203.5C 423.378,207.718 428.878,211.718 434.5,215.5 Z"/></g>
<g><path style="opacity:0.967" fill="#ea423f" d="M 440.5,198.5 C 439.309,204.528 437.309,210.195 434.5,215.5C 428.878,211.718 423.378,207.718 418,203.5C 413.943,209.384 410.11,215.384 406.5,221.5C 402.414,216.335 399.08,210.668 396.5,204.5C 400.643,198.232 404.81,191.899 409,185.5C 412.256,183.571 415.756,183.071 419.5,184C 426.529,188.843 433.529,193.677 440.5,198.5 Z"/></g>
<g><path style="opacity:0.966" fill="#ea423e" d="M 386.5,221.5 C 390.26,226.684 393.26,232.35 395.5,238.5C 369.53,277.991 343.696,317.658 318,357.5C 313.667,360.167 309.333,360.167 305,357.5C 293.471,328.579 282.137,299.579 271,270.5C 246.409,323.35 222.076,376.35 198,429.5C 193.667,432.167 189.333,432.167 185,429.5C 170.424,395.353 155.591,361.353 140.5,327.5C 132.681,334.819 125.014,342.319 117.5,350C 113.219,352.109 109.052,351.942 105,349.5C 97.4016,327.037 90.4016,304.37 84,281.5C 66.9606,303.603 49.4606,325.269 31.5,346.5C 31.5,337.5 31.5,328.5 31.5,319.5C 47.5165,300.146 63.1832,280.479 78.5,260.5C 79.1667,260.5 79.5,260.167 79.5,259.5C 81.4734,258.513 83.4734,257.513 85.5,256.5C 89.8363,259.509 93.8363,262.843 97.5,266.5C 103.175,286.688 109.341,306.688 116,326.5C 123.167,319.333 130.333,312.167 137.5,305C 141.781,302.891 145.948,303.058 150,305.5C 164.008,337.534 178.008,369.534 192,401.5C 208.126,366.253 223.959,330.919 239.5,295.5C 240.167,295.5 240.5,295.167 240.5,294.5C 250.856,283.812 261.856,273.812 273.5,264.5C 278.939,266.312 284.273,268.312 289.5,270.5C 290.167,270.5 290.5,270.833 290.5,271.5C 297.597,291.698 305.264,311.698 313.5,331.5C 313.833,331.333 314.167,331.167 314.5,331C 338.151,294.178 362.151,257.678 386.5,221.5 Z"/></g>
<g><path style="opacity:0.928" fill="#e8443f" d="M 281.5,249.5 C 277.238,248.242 272.904,247.742 268.5,248C 265.271,250.741 261.938,253.241 258.5,255.5C 260.369,249.584 263.369,244.418 267.5,240C 275.717,237.942 280.384,241.108 281.5,249.5 Z"/></g>
</svg>
