<?xml version="1.0" encoding="UTF-8"?>
<!DOCTYPE svg PUBLIC "-//W3C//DTD SVG 1.1//EN" "http://www.w3.org/Graphics/SVG/1.1/DTD/svg11.dtd">
<svg xmlns="http://www.w3.org/2000/svg" version="1.1" width="512px" height="512px" style="shape-rendering:geometricPrecision; text-rendering:geometricPrecision; image-rendering:optimizeQuality; fill-rule:evenodd; clip-rule:evenodd" xmlns:xlink="http://www.w3.org/1999/xlink">
<g><path style="opacity:0.982" fill="#010202" d="M 271.5,-0.5 C 274.167,-0.5 276.833,-0.5 279.5,-0.5C 280.836,1.01027 282.003,2.67694 283,4.5C 283.5,15.1615 283.667,25.8281 283.5,36.5C 291.578,34.9597 297.744,37.6263 302,44.5C 303.409,55.7702 303.909,67.1035 303.5,78.5C 302.671,85.6552 302.171,92.9885 302,100.5C 300.188,103.821 297.355,105.155 293.5,104.5C 290.909,103.746 289.076,102.079 288,99.5C 287.5,83.8369 287.333,68.1702 287.5,52.5C 279.35,51.5073 271.017,51.1739 262.5,51.5C 262.168,97.0031 262.501,142.336 263.5,187.5C 271.5,187.5 279.5,187.5 287.5,187.5C 287.333,167.497 287.5,147.497 288,127.5C 289.076,124.921 290.909,123.254 293.5,122.5C 297.355,121.845 300.188,123.179 302,126.5C 302.667,148.167 302.667,169.833 302,191.5C 298.64,200.436 292.14,204.103 282.5,202.5C 282.667,216.837 282.5,231.171 282,245.5C 279.487,249.212 275.987,250.378 271.5,249C 269.951,247.786 268.785,246.286 268,244.5C 267.5,230.504 267.333,216.504 267.5,202.5C 258.483,204.126 252.316,200.793 249,192.5C 248.833,154.331 248.333,116.331 247.5,78.5C 247.067,67.0898 247.567,55.7564 249,44.5C 253.256,37.6263 259.422,34.9597 267.5,36.5C 267.333,25.495 267.5,14.495 268,3.5C 268.69,1.64977 269.856,0.316435 271.5,-0.5 Z"/></g>
<g><path style="opacity:0.978" fill="#020202" d="M 511.5,116.5 C 511.5,205.833 511.5,295.167 511.5,384.5C 509.319,406.656 497.652,421.489 476.5,429C 434.214,430.478 391.881,430.978 349.5,430.5C 349.333,443.171 349.5,455.838 350,468.5C 357.833,477.667 365.667,486.833 373.5,496C 377.5,496.333 381.5,496.667 385.5,497C 389.212,499.513 390.378,503.013 389,507.5C 388.31,509.35 387.144,510.684 385.5,511.5C 298.5,511.5 211.5,511.5 124.5,511.5C 119.214,506.665 119.214,501.831 124.5,497C 128.833,496.667 133.167,496.333 137.5,496C 145.333,486.833 153.167,477.667 161,468.5C 161.5,455.838 161.667,443.171 161.5,430.5C 119.119,430.978 76.7859,430.478 34.5,429C 13.2289,421.578 1.56226,406.745 -0.5,384.5C -0.5,295.167 -0.5,205.833 -0.5,116.5C 2.49403,91.3339 16.494,76.1673 41.5,71C 87.1655,70.5 132.832,70.3333 178.5,70.5C 178.886,60.2264 183.719,57.2264 193,61.5C 194.289,64.3508 194.789,67.3508 194.5,70.5C 205.838,70.3335 217.172,70.5001 228.5,71C 231.789,72.4103 233.456,74.9103 233.5,78.5C 232.961,81.0416 231.628,83.2082 229.5,85C 217.838,85.4999 206.171,85.6665 194.5,85.5C 194.5,90.5 194.5,95.5 194.5,100.5C 202.333,99.5037 208.5,102.17 213,108.5C 214.146,125.27 214.646,142.103 214.5,159C 214.333,174.833 214.167,190.667 214,206.5C 210.31,214.933 203.81,218.6 194.5,217.5C 194.667,240.169 194.5,262.836 194,285.5C 191.133,290.687 186.967,291.854 181.5,289C 180.809,287.933 180.309,286.766 180,285.5C 179.5,262.836 179.333,240.169 179.5,217.5C 177.833,217.5 176.167,217.5 174.5,217.5C 167.171,217.089 162.337,213.422 160,206.5C 159.333,174.833 159.333,143.167 160,111.5C 163.406,102.634 169.906,98.9671 179.5,100.5C 179.5,95.5 179.5,90.5 179.5,85.5C 134.165,85.3333 88.8321,85.5 43.5,86C 29.1868,88.9808 20.0201,97.4808 16,111.5C 15.5,199.499 15.3333,287.499 15.5,375.5C 175.668,375.833 335.668,375.5 495.5,374.5C 495.667,286.833 495.5,199.166 495,111.5C 490.859,97.0267 481.359,88.5267 466.5,86C 434.835,85.5 403.168,85.3334 371.5,85.5C 371.5,96.1667 371.5,106.833 371.5,117.5C 380.731,116.365 387.231,120.032 391,128.5C 391.667,160.167 391.667,191.833 391,223.5C 387.31,231.933 380.81,235.6 371.5,234.5C 371.667,254.836 371.5,275.169 371,295.5C 369.268,300.617 365.768,302.45 360.5,301C 358.951,299.786 357.785,298.286 357,296.5C 356.5,275.836 356.333,255.169 356.5,234.5C 348.422,236.04 342.256,233.374 338,226.5C 336.854,209.564 336.354,192.564 336.5,175.5C 336.667,159.5 336.833,143.5 337,127.5C 340.665,119.692 346.832,116.358 355.5,117.5C 356.494,107.013 356.828,96.3464 356.5,85.5C 345.5,85.5 334.5,85.5 323.5,85.5C 320.092,84.4222 318.092,82.0889 317.5,78.5C 317.327,74.8296 318.993,72.3296 322.5,71C 333.495,70.5002 344.495,70.3335 355.5,70.5C 355.333,59.8281 355.5,49.1615 356,38.5C 360.661,30.9728 365.661,30.6394 371,37.5C 371.5,48.495 371.667,59.495 371.5,70.5C 404.168,70.3334 436.835,70.5 469.5,71C 494.506,76.1673 508.506,91.3339 511.5,116.5 Z"/></g>
<g><path style="opacity:1" fill="#387f64" d="M 287.5,52.5 C 279.5,52.5 271.5,52.5 263.5,52.5C 263.5,97.5 263.5,142.5 263.5,187.5C 262.501,142.336 262.168,97.0031 262.5,51.5C 271.017,51.1739 279.35,51.5073 287.5,52.5 Z"/></g>
<g><path style="opacity:1" fill="#6bf4c1" d="M 287.5,52.5 C 287.333,68.1702 287.5,83.8369 288,99.5C 289.076,102.079 290.909,103.746 293.5,104.5C 296.167,110.5 296.167,116.5 293.5,122.5C 290.909,123.254 289.076,124.921 288,127.5C 287.5,147.497 287.333,167.497 287.5,187.5C 279.5,187.5 271.5,187.5 263.5,187.5C 263.5,142.5 263.5,97.5 263.5,52.5C 271.5,52.5 279.5,52.5 287.5,52.5 Z"/></g>
<g><path style="opacity:1" fill="#98e4fa" d="M 233.5,78.5 C 238.167,78.5 242.833,78.5 247.5,78.5C 248.333,116.331 248.833,154.331 249,192.5C 252.316,200.793 258.483,204.126 267.5,202.5C 267.333,216.504 267.5,230.504 268,244.5C 268.785,246.286 269.951,247.786 271.5,249C 275.987,250.378 279.487,249.212 282,245.5C 282.5,231.171 282.667,216.837 282.5,202.5C 292.14,204.103 298.64,200.436 302,191.5C 302.667,169.833 302.667,148.167 302,126.5C 300.188,123.179 297.355,121.845 293.5,122.5C 296.167,116.5 296.167,110.5 293.5,104.5C 297.355,105.155 300.188,103.821 302,100.5C 302.171,92.9885 302.671,85.6552 303.5,78.5C 308.167,78.5 312.833,78.5 317.5,78.5C 318.092,82.0889 320.092,84.4222 323.5,85.5C 333.987,86.4944 344.654,86.8278 355.5,86.5C 355.5,96.8333 355.5,107.167 355.5,117.5C 346.832,116.358 340.665,119.692 337,127.5C 336.833,143.5 336.667,159.5 336.5,175.5C 336.354,192.564 336.854,209.564 338,226.5C 342.256,233.374 348.422,236.04 356.5,234.5C 356.333,255.169 356.5,275.836 357,296.5C 357.785,298.286 358.951,299.786 360.5,301C 365.768,302.45 369.268,300.617 371,295.5C 371.5,275.169 371.667,254.836 371.5,234.5C 380.81,235.6 387.31,231.933 391,223.5C 391.667,191.833 391.667,160.167 391,128.5C 387.231,120.032 380.731,116.365 371.5,117.5C 371.5,106.833 371.5,96.1667 371.5,85.5C 403.168,85.3334 434.835,85.5 466.5,86C 481.359,88.5267 490.859,97.0267 495,111.5C 495.5,199.166 495.667,286.833 495.5,374.5C 388.5,374.5 281.5,374.5 174.5,374.5C 174.5,362.833 174.5,351.167 174.5,339.5C 225.612,311.441 276.945,283.608 328.5,256C 335.977,251.33 336.311,246.33 329.5,241C 327.833,240.333 326.167,240.333 324.5,241C 274.605,268.113 224.605,294.946 174.5,321.5C 174.5,286.833 174.5,252.167 174.5,217.5C 176.167,217.5 177.833,217.5 179.5,217.5C 179.333,240.169 179.5,262.836 180,285.5C 180.309,286.766 180.809,287.933 181.5,289C 186.967,291.854 191.133,290.687 194,285.5C 194.5,262.836 194.667,240.169 194.5,217.5C 203.81,218.6 210.31,214.933 214,206.5C 214.167,190.667 214.333,174.833 214.5,159C 214.646,142.103 214.146,125.27 213,108.5C 208.5,102.17 202.333,99.5037 194.5,100.5C 194.5,95.5 194.5,90.5 194.5,85.5C 206.171,85.6665 217.838,85.4999 229.5,85C 231.628,83.2082 232.961,81.0416 233.5,78.5 Z"/></g>
<g><path style="opacity:1" fill="#61d8f8" d="M 174.5,217.5 C 174.5,252.167 174.5,286.833 174.5,321.5C 173.171,323.377 171.838,323.544 170.5,322C 167.805,314.777 164.972,307.611 162,300.5C 159.588,297.208 156.421,296.041 152.5,297C 117.167,312.333 81.8333,327.667 46.5,343C 42.4961,352.336 45.4961,356.336 55.5,355C 87.058,341.638 118.558,328.138 150,314.5C 150.772,314.645 151.439,314.978 152,315.5C 155,323.167 158,330.833 161,338.5C 162.333,340.833 164.333,341.833 167,341.5C 169.635,341.261 172.135,340.594 174.5,339.5C 174.5,351.167 174.5,362.833 174.5,374.5C 281.5,374.5 388.5,374.5 495.5,374.5C 335.668,375.5 175.668,375.833 15.5,375.5C 15.3333,287.499 15.5,199.499 16,111.5C 20.0201,97.4808 29.1868,88.9808 43.5,86C 88.8321,85.5 134.165,85.3333 179.5,85.5C 179.5,90.5 179.5,95.5 179.5,100.5C 169.906,98.9671 163.406,102.634 160,111.5C 159.333,143.167 159.333,174.833 160,206.5C 162.337,213.422 167.171,217.089 174.5,217.5 Z"/></g>
<g><path style="opacity:1" fill="#6a9fae" d="M 323.5,85.5 C 334.5,85.5 345.5,85.5 356.5,85.5C 356.828,96.3464 356.494,107.013 355.5,117.5C 355.5,107.167 355.5,96.8333 355.5,86.5C 344.654,86.8278 333.987,86.4944 323.5,85.5 Z"/></g>
<g><path style="opacity:1" fill="#cb495a" d="M 174.5,115.5 C 182.833,115.5 191.167,115.5 199.5,115.5C 199.5,144.5 199.5,173.5 199.5,202.5C 191.167,202.5 182.833,202.5 174.5,202.5C 174.5,173.5 174.5,144.5 174.5,115.5 Z"/></g>
<g><path style="opacity:1" fill="#ea5568" d="M 175.5,116.5 C 183.167,116.5 190.833,116.5 198.5,116.5C 198.5,144.833 198.5,173.167 198.5,201.5C 190.833,201.5 183.167,201.5 175.5,201.5C 175.5,173.167 175.5,144.833 175.5,116.5 Z"/></g>
<g><path style="opacity:1" fill="#020404" d="M 91.5,299.5 C 91.5,285.5 91.5,271.5 91.5,257.5C 88.5,257.5 85.5,257.5 82.5,257.5C 76.9266,256.428 73.4266,253.095 72,247.5C 71.3333,239.167 71.3333,230.833 72,222.5C 73.5707,220.077 75.7374,218.744 78.5,218.5C 82.1398,218.475 84.4731,220.142 85.5,223.5C 85.5,230.167 85.5,236.833 85.5,243.5C 94.1667,243.5 102.833,243.5 111.5,243.5C 111.831,214.329 111.498,185.329 110.5,156.5C 102.5,156.5 94.5,156.5 86.5,156.5C 86.6666,169.504 86.4999,182.504 86,195.5C 84.7435,199.046 82.2435,201.046 78.5,201.5C 75.7374,201.256 73.5707,199.923 72,197.5C 71.3333,181.833 71.3333,166.167 72,150.5C 76.3895,143.057 82.8895,140.057 91.5,141.5C 91.334,136.156 91.5006,130.823 92,125.5C 94.9087,122.606 98.4087,121.773 102.5,123C 104.049,124.214 105.215,125.714 106,127.5C 106.499,132.155 106.666,136.821 106.5,141.5C 114.729,140.403 120.895,143.403 125,150.5C 125.667,183.167 125.667,215.833 125,248.5C 121.365,256.403 115.198,259.736 106.5,258.5C 106.667,272.171 106.5,285.837 106,299.5C 103.375,305.632 99.208,306.966 93.5,303.5C 92.2949,302.423 91.6282,301.09 91.5,299.5 Z"/></g>
<g><path style="opacity:1" fill="#ea5568" d="M 351.5,133.5 C 359.5,133.5 367.5,133.5 375.5,133.5C 375.5,162.167 375.5,190.833 375.5,219.5C 367.5,219.5 359.5,219.5 351.5,219.5C 351.5,190.833 351.5,162.167 351.5,133.5 Z"/></g>
<g><path style="opacity:1" fill="#9e3946" d="M 351.5,133.5 C 359.65,132.507 367.983,132.174 376.5,132.5C 376.831,161.671 376.498,190.671 375.5,219.5C 375.5,190.833 375.5,162.167 375.5,133.5C 367.5,133.5 359.5,133.5 351.5,133.5 Z"/></g>
<g><path style="opacity:1" fill="#6bf4c1" d="M 110.5,156.5 C 110.5,185.167 110.5,213.833 110.5,242.5C 102.5,242.5 94.5,242.5 86.5,242.5C 86.8235,235.978 86.4902,229.645 85.5,223.5C 84.4731,220.142 82.1398,218.475 78.5,218.5C 78.5,212.833 78.5,207.167 78.5,201.5C 82.2435,201.046 84.7435,199.046 86,195.5C 86.4999,182.504 86.6666,169.504 86.5,156.5C 94.5,156.5 102.5,156.5 110.5,156.5 Z"/></g>
<g><path style="opacity:1" fill="#317159" d="M 110.5,156.5 C 111.498,185.329 111.831,214.329 111.5,243.5C 102.833,243.5 94.1667,243.5 85.5,243.5C 85.5,236.833 85.5,230.167 85.5,223.5C 86.4902,229.645 86.8235,235.978 86.5,242.5C 94.5,242.5 102.5,242.5 110.5,242.5C 110.5,213.833 110.5,185.167 110.5,156.5 Z"/></g>
<g><path style="opacity:1" fill="#030405" d="M 437.5,160.5 C 442.034,160.267 446.368,161.1 450.5,163C 456.421,165.529 462.421,167.863 468.5,170C 471.491,172.141 472.658,174.975 472,178.5C 468.862,186.913 465.529,195.246 462,203.5C 455.409,207.369 450.909,205.702 448.5,198.5C 449.477,195.42 450.311,192.42 451,189.5C 439.753,195.54 428.586,201.706 417.5,208C 408.667,209.833 405.167,206.333 407,197.5C 418.762,190.033 430.929,183.2 443.5,177C 439.291,175.813 436.124,173.313 434,169.5C 433.333,167.833 433.333,166.167 434,164.5C 435.376,163.295 436.542,161.962 437.5,160.5 Z"/></g>
<g><path style="opacity:1" fill="#020405" d="M 174.5,339.5 C 172.135,340.594 169.635,341.261 167,341.5C 164.333,341.833 162.333,340.833 161,338.5C 158,330.833 155,323.167 152,315.5C 151.439,314.978 150.772,314.645 150,314.5C 118.558,328.138 87.058,341.638 55.5,355C 45.4961,356.336 42.4961,352.336 46.5,343C 81.8333,327.667 117.167,312.333 152.5,297C 156.421,296.041 159.588,297.208 162,300.5C 164.972,307.611 167.805,314.777 170.5,322C 171.838,323.544 173.171,323.377 174.5,321.5C 224.605,294.946 274.605,268.113 324.5,241C 326.167,240.333 327.833,240.333 329.5,241C 336.311,246.33 335.977,251.33 328.5,256C 276.945,283.608 225.612,311.441 174.5,339.5 Z"/></g>
<g><path style="opacity:1" fill="#347586" d="M 82.5,257.5 C 85.5,257.5 88.5,257.5 91.5,257.5C 91.5,271.5 91.5,285.5 91.5,299.5C 90.5043,286.01 90.171,272.344 90.5,258.5C 87.6146,258.806 84.9479,258.473 82.5,257.5 Z"/></g>
<g><path style="opacity:1" fill="#e3dfe3" d="M 175.5,390.5 C 177.02,400.191 181.687,408.025 189.5,414C 219.669,414.168 249.669,414.668 279.5,415.5C 200.166,415.667 120.833,415.5 41.5,415C 29.1296,411.463 20.7963,403.63 16.5,391.5C 69.4958,390.5 122.496,390.167 175.5,390.5 Z"/></g>
<g><path style="opacity:1" fill="#eeecee" d="M 175.5,390.5 C 281.835,390.167 388.169,390.5 494.5,391.5C 490.204,403.63 481.87,411.463 469.5,415C 415.833,415.333 362.167,415.667 308.5,416C 305.507,417.159 303.84,419.325 303.5,422.5C 297.833,422.5 292.167,422.5 286.5,422.5C 285.87,418.537 283.537,416.204 279.5,415.5C 249.669,414.668 219.669,414.168 189.5,414C 181.687,408.025 177.02,400.191 175.5,390.5 Z"/></g>
<g><path style="opacity:1" fill="#b9afb8" d="M 286.5,422.5 C 292.167,422.5 297.833,422.5 303.5,422.5C 304.04,425.745 305.706,428.245 308.5,430C 316.827,430.5 325.16,430.666 333.5,430.5C 333.5,436.167 333.5,441.833 333.5,447.5C 309.164,447.333 284.831,447.5 260.5,448C 249.329,451.832 244.329,459.665 245.5,471.5C 245.167,471.5 244.833,471.5 244.5,471.5C 230.833,471.5 217.167,471.5 203.5,471.5C 203.062,467.808 201.062,465.308 197.5,464C 190.842,463.5 184.175,463.334 177.5,463.5C 177.5,452.5 177.5,441.5 177.5,430.5C 212.168,430.667 246.835,430.5 281.5,430C 284.789,428.59 286.456,426.09 286.5,422.5 Z"/></g>
<g><path style="opacity:1" fill="#c8bec7" d="M 333.5,447.5 C 333.5,452.833 333.5,458.167 333.5,463.5C 326.492,463.334 319.492,463.5 312.5,464C 309.692,465.793 308.026,468.293 307.5,471.5C 286.833,471.5 266.167,471.5 245.5,471.5C 244.329,459.665 249.329,451.832 260.5,448C 284.831,447.5 309.164,447.333 333.5,447.5 Z"/></g>
<g><path style="opacity:1" fill="#e3dfe3" d="M 203.5,471.5 C 217.167,471.5 230.833,471.5 244.5,471.5C 237.81,479.852 231.143,488.186 224.5,496.5C 202.497,496.667 180.497,496.5 158.5,496C 163.048,490.407 167.715,484.907 172.5,479.5C 181.148,478.668 189.814,478.168 198.5,478C 201.493,476.841 203.16,474.675 203.5,471.5 Z"/></g>
<g><path style="opacity:1" fill="#edebed" d="M 244.5,471.5 C 244.833,471.5 245.167,471.5 245.5,471.5C 266.167,471.5 286.833,471.5 307.5,471.5C 307.933,474.195 309.266,476.362 311.5,478C 320.518,478.168 329.518,478.668 338.5,479.5C 343.285,484.907 347.952,490.407 352.5,496C 309.835,496.5 267.168,496.667 224.5,496.5C 231.143,488.186 237.81,479.852 244.5,471.5 Z"/></g>
</svg>
