<?xml version="1.0" encoding="UTF-8"?>
<!DOCTYPE svg PUBLIC "-//W3C//DTD SVG 1.1//EN" "http://www.w3.org/Graphics/SVG/1.1/DTD/svg11.dtd">
<svg xmlns="http://www.w3.org/2000/svg" version="1.1" width="512px" height="512px" style="shape-rendering:geometricPrecision; text-rendering:geometricPrecision; image-rendering:optimizeQuality; fill-rule:evenodd; clip-rule:evenodd" xmlns:xlink="http://www.w3.org/1999/xlink">
<g><path style="opacity:0.963" fill="#57a4ff" d="M 150.5,24.5 C 185.22,21.4486 212.387,34.1153 232,62.5C 250.603,96.9888 247.936,129.655 224,160.5C 198.53,186.409 168.364,193.909 133.5,183C 99.9881,168.329 82.3214,142.662 80.5,106C 83.6307,61.376 106.964,34.2093 150.5,24.5 Z M 156.5,38.5 C 193.519,38.5748 217.352,56.2415 228,91.5C 233.383,126.741 220.216,152.241 188.5,168C 158.06,178.682 131.893,172.182 110,148.5C 93.01,124.409 91.01,99.0757 104,72.5C 116.391,53.2246 133.891,41.8912 156.5,38.5 Z"/></g>
<g><path style="opacity:0.98" fill="#57a4ff" d="M 18.5,25.5 C 33.837,25.3334 49.1703,25.5001 64.5,26C 66.4875,27.3189 67.6541,29.1523 68,31.5C 68.5,165.5 68.6667,299.5 68.5,433.5C 74.5,433.5 80.5,433.5 86.5,433.5C 86.3343,429.154 86.501,424.821 87,420.5C 90.5454,414.791 94.8787,414.125 100,418.5C 101.325,423.401 101.825,428.401 101.5,433.5C 108.5,433.5 115.5,433.5 122.5,433.5C 122.334,424.161 122.5,414.827 123,405.5C 126.866,400.584 131.199,400.251 136,404.5C 136.5,414.161 136.666,423.828 136.5,433.5C 143.833,433.5 151.167,433.5 158.5,433.5C 158.333,420.163 158.5,406.829 159,393.5C 161.909,390.606 165.409,389.773 169.5,391C 170.701,391.903 171.535,393.069 172,394.5C 172.5,407.496 172.667,420.496 172.5,433.5C 179.5,433.5 186.5,433.5 193.5,433.5C 193.334,423.494 193.5,413.494 194,403.5C 198.667,396.833 203.333,396.833 208,403.5C 208.5,413.494 208.666,423.494 208.5,433.5C 215.5,433.5 222.5,433.5 229.5,433.5C 229.334,426.159 229.5,418.826 230,411.5C 232.513,407.788 236.013,406.622 240.5,408C 242.049,409.214 243.215,410.714 244,412.5C 244.5,419.492 244.666,426.492 244.5,433.5C 251.5,433.5 258.5,433.5 265.5,433.5C 265.334,426.159 265.5,418.826 266,411.5C 267.018,408.317 269.185,406.984 272.5,407.5C 275.325,407.119 277.491,408.119 279,410.5C 279.5,418.159 279.666,425.826 279.5,433.5C 286.833,433.5 294.167,433.5 301.5,433.5C 301.334,425.826 301.5,418.159 302,410.5C 305.373,407.114 309.206,406.614 313.5,409C 314.126,409.75 314.626,410.584 315,411.5C 315.5,418.826 315.666,426.159 315.5,433.5C 322.5,433.5 329.5,433.5 336.5,433.5C 336.333,417.83 336.5,402.163 337,386.5C 341.667,379.833 346.333,379.833 351,386.5C 351.5,402.163 351.667,417.83 351.5,433.5C 358.5,433.5 365.5,433.5 372.5,433.5C 372.333,422.495 372.5,411.495 373,400.5C 376.07,396.293 379.903,395.46 384.5,398C 385.893,399.171 386.727,400.671 387,402.5C 387.5,412.828 387.666,423.161 387.5,433.5C 394.5,433.5 401.5,433.5 408.5,433.5C 408.334,427.491 408.501,421.491 409,415.5C 413.471,410.22 417.804,410.22 422,415.5C 422.499,421.491 422.666,427.491 422.5,433.5C 429.833,433.5 437.167,433.5 444.5,433.5C 444.333,415.164 444.5,396.83 445,378.5C 449.156,373.243 453.489,373.243 458,378.5C 458.5,396.83 458.667,415.164 458.5,433.5C 469.172,433.333 479.839,433.5 490.5,434C 492.002,434.583 493.335,435.416 494.5,436.5C 495.651,452.122 495.817,467.789 495,483.5C 494.167,484.333 493.333,485.167 492.5,486C 334.5,486.667 176.5,486.667 18.5,486C 17.6667,485.167 16.8333,484.333 16,483.5C 15.3333,331.833 15.3333,180.167 16,28.5C 17.045,27.6266 17.8783,26.6266 18.5,25.5 Z"/></g>
<g><path style="opacity:1" fill="#99c8ff" d="M 59.5,447.5 C 199.999,448.5 340.666,448.833 481.5,448.5C 481.5,456.5 481.5,464.5 481.5,472.5C 330.5,472.5 179.5,472.5 28.5,472.5C 28.5,328.167 28.5,183.833 28.5,39.5C 37.1667,39.5 45.8333,39.5 54.5,39.5C 54.3333,174.5 54.5,309.5 55,444.5C 56.129,446.141 57.629,447.141 59.5,447.5 Z"/></g>
<g><path style="opacity:0.96" fill="#57a4ff" d="M 161.5,50.5 C 164.374,50.6234 166.874,51.6234 169,53.5C 169.914,57.1418 170.748,60.8085 171.5,64.5C 182.908,68.2416 190.241,75.9083 193.5,87.5C 192.021,94.048 188.021,96.2147 181.5,94C 179.081,89.828 176.415,85.828 173.5,82C 164.58,76.4701 156.746,77.6368 150,85.5C 149.682,92.5401 153.182,96.7068 160.5,98C 171.874,98.1166 181.374,102.283 189,110.5C 197.209,125.868 193.709,137.701 178.5,146C 175.937,147.079 173.271,147.579 170.5,147.5C 170.737,151.273 170.237,154.94 169,158.5C 165,162.5 161,162.5 157,158.5C 155.663,154.974 155.163,151.308 155.5,147.5C 139.876,144.536 132.043,135.202 132,119.5C 139.889,114.038 144.889,116.038 147,125.5C 153.148,132.993 160.982,135.493 170.5,133C 179.408,129.55 180.741,124.216 174.5,117C 165.557,114.21 156.557,111.543 147.5,109C 131.807,97.483 130.474,84.483 143.5,70C 147.058,67.5917 150.891,65.7584 155,64.5C 155.333,61.5 155.667,58.5 156,55.5C 157.107,52.887 158.94,51.2203 161.5,50.5 Z"/></g>
<g><path style="opacity:0.966" fill="#57a4ff" d="M 479.5,152.5 C 485.614,151.549 489.28,154.049 490.5,160C 489.459,163.377 487.959,166.544 486,169.5C 473.975,182.524 461.641,195.191 449,207.5C 437.228,221.549 426.061,236.049 415.5,251C 410.637,253.329 406.137,252.829 402,249.5C 397.828,233.977 394.161,218.31 391,202.5C 388.973,202.014 386.807,202.014 384.5,202.5C 391.298,224.394 398.798,246.061 407,267.5C 410.495,277.16 414.662,286.493 419.5,295.5C 431.331,285.676 441.331,274.343 449.5,261.5C 458.072,258.228 461.905,261.228 461,270.5C 450.27,286.563 437.437,300.73 422.5,313C 415.874,314.769 411.04,312.603 408,306.5C 402.891,297.168 398.557,287.501 395,277.5C 386.667,254.5 378.333,231.5 370,208.5C 366.93,209.622 364.263,211.288 362,213.5C 355.644,258.52 338.644,298.853 311,334.5C 307.833,339 304,342.833 299.5,346C 295.705,346.837 292.039,346.504 288.5,345C 284,341.833 280.167,338 277,333.5C 270.416,323.334 264.082,313 258,302.5C 248.333,283.833 238.667,265.167 229,246.5C 207.139,268.695 184.972,290.529 162.5,312C 158.705,312.837 155.039,312.504 151.5,311C 148.963,308.094 146.796,304.927 145,301.5C 133.56,319.936 121.727,338.103 109.5,356C 101.447,358.951 97.6135,356.118 98,347.5C 110.849,327.323 123.682,307.156 136.5,287C 136.237,285.054 135.237,284.388 133.5,285C 117.379,301.448 102.379,318.781 88.5,337C 80.3289,339.166 76.8289,336 78,327.5C 91.6665,308.491 106.833,290.658 123.5,274C 128.63,269.291 134.63,267.624 141.5,269C 143.333,270.167 144.833,271.667 146,273.5C 164.82,243.339 183.987,213.506 203.5,184C 208.846,182.348 213.013,183.848 216,188.5C 222.176,198.85 227.843,209.516 233,220.5C 239.873,213.295 246.373,205.795 252.5,198C 258.693,196.346 262.86,198.513 265,204.5C 268.684,217.572 272.517,230.572 276.5,243.5C 299.85,228.821 323.85,215.155 348.5,202.5C 351.188,191.899 353.688,181.232 356,170.5C 358.782,163.187 363.282,161.854 369.5,166.5C 373.607,173.38 376.607,180.713 378.5,188.5C 383.031,188.106 387.531,187.439 392,186.5C 395.8,186.778 399.133,188.111 402,190.5C 406.581,203.493 409.915,216.826 412,230.5C 429.128,206.364 448.795,184.364 471,164.5C 473.597,160.295 476.431,156.295 479.5,152.5 Z M 206.5,204.5 C 207.376,204.369 208.043,204.702 208.5,205.5C 213.294,214.254 217.961,223.088 222.5,232C 201.333,253.167 180.167,274.333 159,295.5C 156.796,292.77 155.463,289.77 155,286.5C 172.939,259.616 190.105,232.283 206.5,204.5 Z M 253.5,219.5 C 257.286,231.292 260.786,243.292 264,255.5C 268.109,262.132 273.609,263.298 280.5,259C 301.252,244.881 322.919,232.548 345.5,222C 338.281,262.93 321.281,299.097 294.5,330.5C 286.723,321.209 279.889,311.209 274,300.5C 262.489,279.48 251.489,258.147 241,236.5C 240.333,235.5 240.333,234.5 241,233.5C 245.745,229.26 249.912,224.593 253.5,219.5 Z"/></g>
<g><path style="opacity:0.761" fill="#8cc0ff" d="M 59.5,447.5 C 200.5,447.5 341.5,447.5 482.5,447.5C 482.826,456.017 482.493,464.35 481.5,472.5C 481.5,464.5 481.5,456.5 481.5,448.5C 340.666,448.833 199.999,448.5 59.5,447.5 Z"/></g>
</svg>
