<?xml version="1.0" encoding="UTF-8"?>
<!DOCTYPE svg PUBLIC "-//W3C//DTD SVG 1.1//EN" "http://www.w3.org/Graphics/SVG/1.1/DTD/svg11.dtd">
<svg xmlns="http://www.w3.org/2000/svg" version="1.1" width="512px" height="512px" style="shape-rendering:geometricPrecision; text-rendering:geometricPrecision; image-rendering:optimizeQuality; fill-rule:evenodd; clip-rule:evenodd" xmlns:xlink="http://www.w3.org/1999/xlink">
<g><path style="opacity:0.986" fill="#ef5250" d="M 110.5,74.5 C 115.511,74.3341 120.511,74.5007 125.5,75C 126.126,75.7504 126.626,76.5838 127,77.5C 127.667,107.833 127.667,138.167 127,168.5C 126.097,169.701 124.931,170.535 123.5,171C 93.0807,171.984 62.7474,171.651 32.5,170C 32,169.5 31.5,169 31,168.5C 31.3419,126.312 50.8419,96.8117 89.5,80C 96.5088,77.666 103.509,75.8326 110.5,74.5 Z"/></g>
<g><path style="opacity:0.995" fill="#fec008" d="M 211.5,148.5 C 217.336,195.673 199.003,229.507 156.5,250C 126.356,261.064 97.6897,258.231 70.5,241.5C 49.3608,226.755 36.3608,206.588 31.5,181C 31.9903,179.018 32.9903,177.351 34.5,176C 66.8316,175.5 99.1649,175.333 131.5,175.5C 131.333,143.498 131.5,111.498 132,79.5C 133.691,75.7873 136.525,74.6206 140.5,76C 173.96,84.1257 196.793,104.292 209,136.5C 210.359,140.405 211.192,144.405 211.5,148.5 Z"/></g>
<g><path style="opacity:0.98" fill="#7fb748" d="M 431.5,127.5 C 430.399,123.964 428.732,120.631 426.5,117.5C 433.054,113.972 439.554,110.305 446,106.5C 444.488,102.565 443.321,98.3984 442.5,94C 443.213,85.2998 447.88,81.9665 456.5,84C 463.27,85.6919 469.936,87.6919 476.5,90C 479.606,92.2159 481.273,95.2159 481.5,99C 479.679,105.802 477.846,112.635 476,119.5C 472.988,126.728 467.821,128.895 460.5,126C 456.996,123.168 454.329,119.668 452.5,115.5C 445.483,119.528 438.483,123.528 431.5,127.5 Z"/></g>
<g><path style="opacity:0.978" fill="#f37d29" d="M 426.5,117.5 C 428.732,120.631 430.399,123.964 431.5,127.5C 431.744,139.251 426.078,145.584 414.5,146.5C 410.528,146.508 406.861,145.508 403.5,143.5C 401.129,140.446 399.129,137.113 397.5,133.5C 396.951,118.216 404.284,111.383 419.5,113C 422.257,113.938 424.59,115.438 426.5,117.5 Z"/></g>
<g><path style="opacity:0.962" fill="#8bc24b" d="M 397.5,133.5 C 399.129,137.113 401.129,140.446 403.5,143.5C 400.489,144.669 397.822,146.336 395.5,148.5C 390.411,150.88 385.411,153.546 380.5,156.5C 378.507,153.505 376.507,150.505 374.5,147.5C 382.305,143.096 389.972,138.429 397.5,133.5 Z"/></g>
<g><path style="opacity:0.993" fill="#c2cdd2" d="M 374.5,147.5 C 376.507,150.505 378.507,153.505 380.5,156.5C 381.515,169.316 375.681,176.649 363,178.5C 360.813,178.212 358.646,177.878 356.5,177.5C 354.122,175.122 351.455,173.122 348.5,171.5C 349.203,169.966 349.036,168.299 348,166.5C 346.325,159.603 347.825,153.603 352.5,148.5C 359.55,143.61 366.884,143.276 374.5,147.5 Z"/></g>
<g><path style="opacity:0.999" fill="#5c9ced" d="M 211.5,148.5 C 258.5,148.5 305.5,148.5 352.5,148.5C 347.825,153.603 346.325,159.603 348,166.5C 349.036,168.299 349.203,169.966 348.5,171.5C 339.167,181.833 329.833,192.167 320.5,202.5C 308.238,199.114 300.238,203.448 296.5,215.5C 290.399,215.659 284.399,216.326 278.5,217.5C 269.85,205.524 260.016,204.524 249,214.5C 244.544,223.522 246.044,231.356 253.5,238C 266.404,243.538 275.07,239.704 279.5,226.5C 285.822,225.986 292.155,225.653 298.5,225.5C 302.837,233.495 309.503,236.329 318.5,234C 328.521,229.116 331.854,221.283 328.5,210.5C 328.351,209.448 328.517,208.448 329,207.5C 338.401,197.604 347.568,187.604 356.5,177.5C 358.646,177.878 360.813,178.212 363,178.5C 375.681,176.649 381.515,169.316 380.5,156.5C 385.411,153.546 390.411,150.88 395.5,148.5C 414.503,148.333 433.503,148.5 452.5,149C 464.554,152.386 471.72,160.219 474,172.5C 474.5,233.166 474.667,293.832 474.5,354.5C 460.833,354.5 447.167,354.5 433.5,354.5C 433.667,298.832 433.5,243.166 433,187.5C 431.809,184.466 429.642,182.799 426.5,182.5C 418.344,181.343 410.01,181.177 401.5,182C 398.591,183.406 396.591,185.572 395.5,188.5C 394.501,243.664 394.168,298.997 394.5,354.5C 391.167,354.5 387.833,354.5 384.5,354.5C 384.832,309.997 384.499,265.664 383.5,221.5C 382.761,217.592 380.428,215.092 376.5,214C 367.657,213.176 358.99,213.343 350.5,214.5C 347.572,215.591 345.406,217.591 344,220.5C 343.5,265.165 343.333,309.832 343.5,354.5C 340.167,354.5 336.833,354.5 333.5,354.5C 333.667,318.498 333.5,282.498 333,246.5C 331.413,243.244 328.913,241.077 325.5,240C 316.99,239.177 308.656,239.343 300.5,240.5C 296.5,241.167 294.167,243.5 293.5,247.5C 292.502,282.996 292.168,318.663 292.5,354.5C 289.167,354.5 285.833,354.5 282.5,354.5C 282.667,325.165 282.5,295.831 282,266.5C 280.457,264.622 278.624,263.122 276.5,262C 271.511,261.501 266.511,261.334 261.5,261.5C 257.154,261.334 252.821,261.501 248.5,262C 246,263.167 244.167,265 243,267.5C 242.5,296.498 242.333,325.498 242.5,354.5C 238.5,354.5 234.5,354.5 230.5,354.5C 230.667,299.499 230.5,244.499 230,189.5C 227.374,185.928 224.374,185.595 221,188.5C 220.5,243.832 220.333,299.166 220.5,354.5C 170.5,354.5 120.5,354.5 70.5,354.5C 70.5,316.833 70.5,279.167 70.5,241.5C 97.6897,258.231 126.356,261.064 156.5,250C 199.003,229.507 217.336,195.673 211.5,148.5 Z"/></g>
<g><path style="opacity:1" fill="#f9fbfe" d="M 248.5,168.5 C 269.169,168.333 289.836,168.5 310.5,169C 314.482,171.952 314.482,174.952 310.5,178C 290.167,178.667 269.833,178.667 249.5,178C 245.86,175.302 245.527,172.135 248.5,168.5 Z"/></g>
<g><path style="opacity:1" fill="#8ac14f" d="M 348.5,171.5 C 351.455,173.122 354.122,175.122 356.5,177.5C 347.568,187.604 338.401,197.604 329,207.5C 328.517,208.448 328.351,209.448 328.5,210.5C 326.167,207.5 323.5,204.833 320.5,202.5C 329.833,192.167 339.167,181.833 348.5,171.5 Z"/></g>
<g><path style="opacity:1" fill="#f28a2d" d="M 426.5,182.5 C 422.5,182.5 418.5,182.5 414.5,182.5C 414.5,239.833 414.5,297.167 414.5,354.5C 408.167,354.5 401.833,354.5 395.5,354.5C 395.5,299.167 395.5,243.833 395.5,188.5C 396.591,185.572 398.591,183.406 401.5,182C 410.01,181.177 418.344,181.343 426.5,182.5 Z"/></g>
<g><path style="opacity:1" fill="#f37d29" d="M 426.5,182.5 C 429.642,182.799 431.809,184.466 433,187.5C 433.5,243.166 433.667,298.832 433.5,354.5C 427.167,354.5 420.833,354.5 414.5,354.5C 414.5,297.167 414.5,239.833 414.5,182.5C 418.5,182.5 422.5,182.5 426.5,182.5 Z"/></g>
<g><path style="opacity:1" fill="#fbfcfe" d="M 248.5,186.5 C 261.171,186.333 273.838,186.5 286.5,187C 288.646,187.479 289.646,188.812 289.5,191C 289.516,193.305 288.516,194.972 286.5,196C 273.833,196.667 261.167,196.667 248.5,196C 245.888,192.836 245.888,189.669 248.5,186.5 Z"/></g>
<g><path style="opacity:1" fill="#bdc7cd" d="M 230.5,354.5 C 227.167,354.5 223.833,354.5 220.5,354.5C 220.333,299.166 220.5,243.832 221,188.5C 224.374,185.595 227.374,185.928 230,189.5C 230.5,244.499 230.667,299.499 230.5,354.5 Z"/></g>
<g><path style="opacity:1" fill="#fdc00e" d="M 320.5,202.5 C 323.5,204.833 326.167,207.5 328.5,210.5C 331.854,221.283 328.521,229.116 318.5,234C 309.503,236.329 302.837,233.495 298.5,225.5C 296.977,222.37 296.311,219.037 296.5,215.5C 300.238,203.448 308.238,199.114 320.5,202.5 Z"/></g>
<g><path style="opacity:1" fill="#ed5351" d="M 278.5,217.5 C 279.299,220.43 279.632,223.43 279.5,226.5C 275.07,239.704 266.404,243.538 253.5,238C 246.044,231.356 244.544,223.522 249,214.5C 260.016,204.524 269.85,205.524 278.5,217.5 Z"/></g>
<g><path style="opacity:1" fill="#8ac24b" d="M 350.5,214.5 C 354.5,214.5 358.5,214.5 362.5,214.5C 362.5,261.167 362.5,307.833 362.5,354.5C 356.167,354.5 349.833,354.5 343.5,354.5C 343.333,309.832 343.5,265.165 344,220.5C 345.406,217.591 347.572,215.591 350.5,214.5 Z"/></g>
<g><path style="opacity:1" fill="#7cb449" d="M 350.5,214.5 C 358.99,213.343 367.657,213.176 376.5,214C 380.428,215.092 382.761,217.592 383.5,221.5C 383.5,266.167 383.5,310.833 383.5,355.5C 369.99,355.829 356.656,355.496 343.5,354.5C 349.833,354.5 356.167,354.5 362.5,354.5C 362.5,307.833 362.5,261.167 362.5,214.5C 358.5,214.5 354.5,214.5 350.5,214.5 Z"/></g>
<g><path style="opacity:1" fill="#8ac150" d="M 296.5,215.5 C 296.311,219.037 296.977,222.37 298.5,225.5C 292.155,225.653 285.822,225.986 279.5,226.5C 279.632,223.43 279.299,220.43 278.5,217.5C 284.399,216.326 290.399,215.659 296.5,215.5 Z"/></g>
<g><path style="opacity:1" fill="#fec007" d="M 300.5,240.5 C 304.167,240.5 307.833,240.5 311.5,240.5C 311.5,278.5 311.5,316.5 311.5,354.5C 305.5,354.5 299.5,354.5 293.5,354.5C 293.5,318.833 293.5,283.167 293.5,247.5C 294.167,243.5 296.5,241.167 300.5,240.5 Z"/></g>
<g><path style="opacity:1" fill="#fcad0d" d="M 300.5,240.5 C 308.656,239.343 316.99,239.177 325.5,240C 328.913,241.077 331.413,243.244 333,246.5C 333.5,282.498 333.667,318.498 333.5,354.5C 320.167,355.833 306.833,355.833 293.5,354.5C 299.5,354.5 305.5,354.5 311.5,354.5C 311.5,316.5 311.5,278.5 311.5,240.5C 307.833,240.5 304.167,240.5 300.5,240.5 Z"/></g>
<g><path style="opacity:1" fill="#ed5350" d="M 261.5,261.5 C 261.5,292.5 261.5,323.5 261.5,354.5C 255.167,354.5 248.833,354.5 242.5,354.5C 242.333,325.498 242.5,296.498 243,267.5C 244.167,265 246,263.167 248.5,262C 252.821,261.501 257.154,261.334 261.5,261.5 Z"/></g>
<g><path style="opacity:1" fill="#e14b45" d="M 261.5,261.5 C 266.511,261.334 271.511,261.501 276.5,262C 278.624,263.122 280.457,264.622 282,266.5C 282.5,295.831 282.667,325.165 282.5,354.5C 275.5,354.5 268.5,354.5 261.5,354.5C 261.5,323.5 261.5,292.5 261.5,261.5 Z"/></g>
<g><path style="opacity:1" fill="#fbfcfe" d="M 96.5,275.5 C 134.168,275.333 171.835,275.5 209.5,276C 212.167,279 212.167,282 209.5,285C 171.833,285.667 134.167,285.667 96.5,285C 93.8881,281.836 93.8881,278.669 96.5,275.5 Z"/></g>
<g><path style="opacity:1" fill="#f8fafe" d="M 106.5,300.5 C 137.502,300.333 168.502,300.5 199.5,301C 202.978,303.706 203.311,306.706 200.5,310C 168.833,310.667 137.167,310.667 105.5,310C 102.675,306.476 103.008,303.31 106.5,300.5 Z"/></g>
<g><path style="opacity:1" fill="#6182ac" d="M 70.5,354.5 C 120.5,354.5 170.5,354.5 220.5,354.5C 171.003,355.499 121.336,355.832 71.5,355.5C 71.5,362.5 71.5,369.5 71.5,376.5C 70.5084,369.352 70.175,362.019 70.5,354.5 Z"/></g>
<g><path style="opacity:1" fill="#6182ae" d="M 433.5,354.5 C 447.167,354.5 460.833,354.5 474.5,354.5C 474.824,361.354 474.491,368.021 473.5,374.5C 473.5,368.167 473.5,361.833 473.5,355.5C 459.99,355.829 446.656,355.496 433.5,354.5 Z"/></g>
<g><path style="opacity:1" fill="#666e79" d="M 395.5,188.5 C 395.5,243.833 395.5,299.167 395.5,354.5C 401.833,354.5 408.167,354.5 414.5,354.5C 420.833,354.5 427.167,354.5 433.5,354.5C 446.656,355.496 459.99,355.829 473.5,355.5C 473.5,361.833 473.5,368.167 473.5,374.5C 471.532,387.303 464.199,395.136 451.5,398C 404.501,398.5 357.501,398.667 310.5,398.5C 284.863,397.175 259.196,397.175 233.5,398.5C 186.832,398.667 140.165,398.5 93.5,398C 81.0456,395.961 73.7123,388.794 71.5,376.5C 71.5,369.5 71.5,362.5 71.5,355.5C 121.336,355.832 171.003,355.499 220.5,354.5C 223.833,354.5 227.167,354.5 230.5,354.5C 234.5,354.5 238.5,354.5 242.5,354.5C 248.833,354.5 255.167,354.5 261.5,354.5C 268.5,354.5 275.5,354.5 282.5,354.5C 285.833,354.5 289.167,354.5 292.5,354.5C 292.168,318.663 292.502,282.996 293.5,247.5C 293.5,283.167 293.5,318.833 293.5,354.5C 306.833,355.833 320.167,355.833 333.5,354.5C 336.833,354.5 340.167,354.5 343.5,354.5C 356.656,355.496 369.99,355.829 383.5,355.5C 383.5,310.833 383.5,266.167 383.5,221.5C 384.499,265.664 384.832,309.997 384.5,354.5C 387.833,354.5 391.167,354.5 394.5,354.5C 394.168,298.997 394.501,243.664 395.5,188.5 Z"/></g>
<g><path style="opacity:1" fill="#dd4c46" d="M 93.5,371.5 C 98.1785,371.334 102.845,371.501 107.5,372C 111.482,374.952 111.482,377.952 107.5,381C 102.833,381.667 98.1667,381.667 93.5,381C 89.5808,377.84 89.5808,374.673 93.5,371.5 Z"/></g>
<g><path style="opacity:1" fill="#f8bd0f" d="M 120.5,371.5 C 125.179,371.334 129.845,371.501 134.5,372C 137.306,373.305 138.14,375.472 137,378.5C 136.5,379.667 135.667,380.5 134.5,381C 129.833,381.667 125.167,381.667 120.5,381C 116.599,377.792 116.599,374.626 120.5,371.5 Z"/></g>
<g><path style="opacity:1" fill="#7cb24a" d="M 147.5,371.5 C 152.179,371.334 156.845,371.501 161.5,372C 164.306,373.305 165.14,375.472 164,378.5C 163.5,379.667 162.667,380.5 161.5,381C 156.833,381.667 152.167,381.667 147.5,381C 143.581,377.84 143.581,374.673 147.5,371.5 Z"/></g>
<g><path style="opacity:0.993" fill="#434a54" d="M 310.5,398.5 C 314.362,408.084 318.028,417.751 321.5,427.5C 288.5,428.833 255.5,428.833 222.5,427.5C 226.758,418.06 230.425,408.393 233.5,398.5C 259.196,397.175 284.863,397.175 310.5,398.5 Z"/></g>
<g><path style="opacity:0.917" fill="#656c77" d="M 222.5,427.5 C 255.5,428.833 288.5,428.833 321.5,427.5C 328.841,427.334 336.174,427.5 343.5,428C 347.5,431.333 347.5,434.667 343.5,438C 296.167,438.667 248.833,438.667 201.5,438C 200.584,437.626 199.75,437.126 199,436.5C 198.231,433.901 198.398,431.401 199.5,429C 207.054,427.568 214.721,427.068 222.5,427.5 Z"/></g>
</svg>
