<?xml version="1.0" encoding="UTF-8"?>
<!DOCTYPE svg PUBLIC "-//W3C//DTD SVG 1.1//EN" "http://www.w3.org/Graphics/SVG/1.1/DTD/svg11.dtd">
<svg xmlns="http://www.w3.org/2000/svg" version="1.1" width="512px" height="512px" style="shape-rendering:geometricPrecision; text-rendering:geometricPrecision; image-rendering:optimizeQuality; fill-rule:evenodd; clip-rule:evenodd" xmlns:xlink="http://www.w3.org/1999/xlink">
<g><path style="opacity:0.958" fill="#262626" d="M 68.5,2.5 C 75.5552,3.69375 81.8885,6.52709 87.5,11C 100.333,25.1667 113.833,38.6667 128,51.5C 135.735,60.6535 136.401,70.3202 130,80.5C 122.508,88.5516 113.342,91.3849 102.5,89C 98.6371,87.8189 95.1371,85.9856 92,83.5C 91.5,195.833 91.3333,308.166 91.5,420.5C 203.834,420.667 316.167,420.5 428.5,420C 418.108,410.152 416.942,399.319 425,387.5C 436.469,376.57 448.636,375.737 461.5,385C 467.134,391.636 473.134,397.969 479.5,404C 490.043,411.542 498.876,420.709 506,431.5C 509.786,440.515 509.12,449.182 504,457.5C 489.167,472.333 474.333,487.167 459.5,502C 449.881,508.449 439.881,509.116 429.5,504C 415.9,490.901 416.233,478.234 430.5,466C 308.5,465.667 186.5,465.333 64.5,465C 54.8325,464.322 48.3325,459.489 45,450.5C 43.1961,355.338 43.0294,260.172 44.5,165C 43.8594,137.503 43.3594,110.003 43,82.5C 35.6882,89.0452 27.1882,91.2119 17.5,89C 7.08722,86.678 2.08722,80.178 2.5,69.5C 4.06815,54.765 11.4015,43.9317 24.5,37C 32.8578,27.6433 41.5245,18.6433 50.5,10C 56.028,6.06033 62.028,3.56033 68.5,2.5 Z M 67.5,14.5 C 69.9653,14.767 72.2986,15.4336 74.5,16.5C 67.6707,20.7495 60.6707,24.7495 53.5,28.5C 57.8604,23.4729 62.5271,18.8062 67.5,14.5 Z M 82.5,24.5 C 83.1667,24.5 83.5,24.8333 83.5,25.5C 82.609,26.1098 81.609,26.4431 80.5,26.5C 80.8333,25.5 81.5,24.8333 82.5,24.5 Z M 78.5,297.5 C 78.5,298.167 78.5,298.833 78.5,299.5C 77.8333,299.5 77.1667,299.5 76.5,299.5C 76.8333,298.5 77.5,297.833 78.5,297.5 Z M 58.5,349.5 C 57.8333,350.833 56.8333,351.833 55.5,352.5C 55.5,351.833 55.5,351.167 55.5,350.5C 56.391,349.89 57.391,349.557 58.5,349.5 Z M 78.5,374.5 C 78.5,375.167 78.5,375.833 78.5,376.5C 74.7644,377.477 74.7644,376.81 78.5,374.5 Z M 60.5,379.5 C 59.1667,381.5 57.5,383.167 55.5,384.5C 55.5,383.5 55.5,382.5 55.5,381.5C 57.1667,380.833 58.8333,380.167 60.5,379.5 Z M 56.5,411.5 C 57.1667,411.5 57.8333,411.5 58.5,411.5C 58.1667,412.5 57.5,413.167 56.5,413.5C 56.5,412.833 56.5,412.167 56.5,411.5 Z M 85.5,431.5 C 87.1667,431.5 88.8333,431.5 90.5,431.5C 88.2063,433.653 85.5396,435.32 82.5,436.5C 83.075,434.589 84.075,432.922 85.5,431.5 Z M 112.5,431.5 C 116.5,431.5 120.5,431.5 124.5,431.5C 118.666,435.921 112.332,439.588 105.5,442.5C 107.573,438.692 109.906,435.026 112.5,431.5 Z M 228.5,431.5 C 230.167,431.5 231.833,431.5 233.5,431.5C 230.506,434 227.173,436 223.5,437.5C 225.167,435.5 226.833,433.5 228.5,431.5 Z M 255.5,431.5 C 258.167,431.5 260.833,431.5 263.5,431.5C 258.815,434.6 253.981,437.6 249,440.5C 248.333,439.833 248.333,439.167 249,438.5C 251.4,436.271 253.567,433.937 255.5,431.5 Z M 284.5,431.5 C 285.5,431.5 286.5,431.5 287.5,431.5C 285.664,433.588 283.331,434.921 280.5,435.5C 281.5,433.833 282.833,432.5 284.5,431.5 Z M 308.5,431.5 C 309.5,431.5 310.5,431.5 311.5,431.5C 310.341,433.25 308.674,434.25 306.5,434.5C 307.167,433.5 307.833,432.5 308.5,431.5 Z M 333.5,431.5 C 337.167,431.5 340.833,431.5 344.5,431.5C 338.43,435.558 332.097,439.225 325.5,442.5C 328.167,438.833 330.833,435.167 333.5,431.5 Z M 365.5,431.5 C 367.167,431.5 368.833,431.5 370.5,431.5C 367.506,434 364.173,436 360.5,437.5C 362.167,435.5 363.833,433.5 365.5,431.5 Z M 410.5,431.5 C 412.167,431.5 413.833,431.5 415.5,431.5C 412.992,433.924 409.992,435.59 406.5,436.5C 407.833,434.833 409.167,433.167 410.5,431.5 Z M 91.5,443.5 C 88.8333,447.5 86.1667,451.5 83.5,455.5C 79.1667,455.5 74.8333,455.5 70.5,455.5C 77.0035,450.745 84.0035,446.745 91.5,443.5 Z M 310.5,444.5 C 308.427,448.308 306.094,451.974 303.5,455.5C 299.5,455.5 295.5,455.5 291.5,455.5C 297.57,451.442 303.903,447.775 310.5,444.5 Z M 222.5,455.5 C 219.5,455.5 216.5,455.5 213.5,455.5C 218.185,452.4 223.019,449.4 228,446.5C 228.667,447.167 228.667,447.833 228,448.5C 225.546,450.441 223.713,452.775 222.5,455.5 Z M 334.5,449.5 C 333.167,451.167 331.833,452.833 330.5,454.5C 329.167,454.5 327.833,454.5 326.5,454.5C 328.822,452.336 331.489,450.669 334.5,449.5 Z M 379.5,449.5 C 378.167,451.167 376.833,452.833 375.5,454.5C 373.833,454.5 372.167,454.5 370.5,454.5C 373.331,452.583 376.331,450.917 379.5,449.5 Z M 196.5,450.5 C 195.167,452.167 193.833,453.833 192.5,455.5C 190.833,455.5 189.167,455.5 187.5,455.5C 190.008,453.076 193.008,451.41 196.5,450.5 Z M 274.5,451.5 C 273.5,452.833 272.5,454.167 271.5,455.5C 270.167,455.5 268.833,455.5 267.5,455.5C 269.336,453.412 271.669,452.079 274.5,451.5 Z M 248.5,452.5 C 247.833,453.5 247.167,454.5 246.5,455.5C 245.167,455.5 243.833,455.5 242.5,455.5C 244.181,453.992 246.181,452.992 248.5,452.5 Z M 420.5,452.5 C 419.833,453.5 419.167,454.5 418.5,455.5C 417.5,455.5 416.5,455.5 415.5,455.5C 416.899,454.11 418.566,453.11 420.5,452.5 Z"/></g>
<g><path style="opacity:0.986" fill="#d3d8d8" d="M 67.5,14.5 C 62.5271,18.8062 57.8604,23.4729 53.5,28.5C 60.6707,24.7495 67.6707,20.7495 74.5,16.5C 78.8333,17.5 81.5,20.1667 82.5,24.5C 81.5,24.8333 80.8333,25.5 80.5,26.5C 81.609,26.4431 82.609,26.1098 83.5,25.5C 93.1089,34.9389 102.942,44.2722 113,53.5C 115.583,56.9974 117.916,60.6641 120,64.5C 122.355,70.4413 121.188,75.6079 116.5,80C 111.396,80.6973 107.563,78.8639 105,74.5C 104.601,74.7284 104.435,75.0618 104.5,75.5C 98.9719,70.8029 93.3052,66.3029 87.5,62C 84.15,61.0701 81.3167,61.9035 79,64.5C 78.5,124.832 78.3333,185.166 78.5,245.5C 77.1667,246.167 77.1667,246.833 78.5,247.5C 78.5,258.167 78.5,268.833 78.5,279.5C 77.1667,279.833 77.1667,280.167 78.5,280.5C 78.5,286.167 78.5,291.833 78.5,297.5C 77.5,297.833 76.8333,298.5 76.5,299.5C 77.1667,299.5 77.8333,299.5 78.5,299.5C 78.5,308.167 78.5,316.833 78.5,325.5C 77.1667,325.833 77.1667,326.167 78.5,326.5C 78.5,331.833 78.5,337.167 78.5,342.5C 77.1667,342.833 77.1667,343.167 78.5,343.5C 78.5,353.833 78.5,364.167 78.5,374.5C 74.7644,376.81 74.7644,377.477 78.5,376.5C 80.069,386.277 79.7357,395.944 77.5,405.5C 76.1667,405.833 76.1667,406.167 77.5,406.5C 77.5,412.167 77.5,417.833 77.5,423.5C 79.1361,424.749 80.3028,426.416 81,428.5C 82.2708,429.883 83.7708,430.883 85.5,431.5C 84.075,432.922 83.075,434.589 82.5,436.5C 85.5396,435.32 88.2063,433.653 90.5,431.5C 97.9751,430.257 105.308,430.257 112.5,431.5C 109.906,435.026 107.573,438.692 105.5,442.5C 112.332,439.588 118.666,435.921 124.5,431.5C 139.498,431.498 154.164,431.498 168.5,431.5C 188.554,430.578 208.554,430.578 228.5,431.5C 226.833,433.5 225.167,435.5 223.5,437.5C 227.173,436 230.506,434 233.5,431.5C 240.975,430.257 248.308,430.257 255.5,431.5C 253.567,433.937 251.4,436.271 249,438.5C 248.333,439.167 248.333,439.833 249,440.5C 253.981,437.6 258.815,434.6 263.5,431.5C 270.629,430.223 277.629,430.223 284.5,431.5C 282.833,432.5 281.5,433.833 280.5,435.5C 283.331,434.921 285.664,433.588 287.5,431.5C 294.642,430.262 301.642,430.262 308.5,431.5C 307.833,432.5 307.167,433.5 306.5,434.5C 308.674,434.25 310.341,433.25 311.5,431.5C 318.975,430.257 326.308,430.257 333.5,431.5C 330.833,435.167 328.167,438.833 325.5,442.5C 332.097,439.225 338.43,435.558 344.5,431.5C 351.642,430.262 358.642,430.262 365.5,431.5C 363.833,433.5 362.167,435.5 360.5,437.5C 364.173,436 367.506,434 370.5,431.5C 383.974,430.213 397.307,430.213 410.5,431.5C 409.167,433.167 407.833,434.833 406.5,436.5C 409.992,435.59 412.992,433.924 415.5,431.5C 422.847,430.239 430.18,430.239 437.5,431.5C 440.777,430.746 444.11,430.246 447.5,430C 450,428.866 451.167,427.032 451,424.5C 442.913,418.973 437.247,411.639 434,402.5C 431.734,391.598 435.568,387.598 445.5,390.5C 450.626,391.618 454.293,394.618 456.5,399.5C 464.075,405.073 471.075,412.073 477.5,420.5C 480.938,422.759 484.271,425.259 487.5,428C 497.638,437.289 498.138,447.123 489,457.5C 476.779,469.721 464.613,481.887 452.5,494C 449.688,495.549 446.688,496.382 443.5,496.5C 443.167,495.167 442.833,495.167 442.5,496.5C 437.511,496.682 434.345,494.349 433,489.5C 431.527,483.702 432.86,478.702 437,474.5C 441.3,471.202 445.3,467.535 449,463.5C 451.379,459.971 450.546,457.471 446.5,456C 437.173,455.5 427.839,455.334 418.5,455.5C 419.167,454.5 419.833,453.5 420.5,452.5C 418.566,453.11 416.899,454.11 415.5,455.5C 401.99,455.829 388.656,455.496 375.5,454.5C 376.833,452.833 378.167,451.167 379.5,449.5C 376.331,450.917 373.331,452.583 370.5,454.5C 357.039,455.805 343.706,455.805 330.5,454.5C 331.833,452.833 333.167,451.167 334.5,449.5C 331.489,450.669 328.822,452.336 326.5,454.5C 318.876,455.398 311.209,455.731 303.5,455.5C 306.094,451.974 308.427,448.308 310.5,444.5C 303.903,447.775 297.57,451.442 291.5,455.5C 284.833,455.5 278.167,455.5 271.5,455.5C 272.5,454.167 273.5,452.833 274.5,451.5C 271.669,452.079 269.336,453.412 267.5,455.5C 260.5,455.5 253.5,455.5 246.5,455.5C 247.167,454.5 247.833,453.5 248.5,452.5C 246.181,452.992 244.181,453.992 242.5,455.5C 235.833,455.5 229.167,455.5 222.5,455.5C 223.713,452.775 225.546,450.441 228,448.5C 228.667,447.833 228.667,447.167 228,446.5C 223.019,449.4 218.185,452.4 213.5,455.5C 206.5,455.5 199.5,455.5 192.5,455.5C 193.833,453.833 195.167,452.167 196.5,450.5C 193.008,451.41 190.008,453.076 187.5,455.5C 167.5,455.5 147.5,455.5 127.5,455.5C 126.833,454.167 126.167,454.167 125.5,455.5C 118.833,455.5 112.167,455.5 105.5,455.5C 105.167,454.167 104.833,454.167 104.5,455.5C 97.5,455.5 90.5,455.5 83.5,455.5C 86.1667,451.5 88.8333,447.5 91.5,443.5C 84.0035,446.745 77.0035,450.745 70.5,455.5C 68.4176,455.528 66.5843,454.861 65,453.5C 62.7132,450.928 61.5465,447.928 61.5,444.5C 59.0051,439.931 57.6718,434.931 57.5,429.5C 57.9382,429.565 58.2716,429.399 58.5,429C 56.5859,424.142 55.9193,418.975 56.5,413.5C 57.5,413.167 58.1667,412.5 58.5,411.5C 57.8333,411.5 57.1667,411.5 56.5,411.5C 55.5067,402.682 55.1734,393.682 55.5,384.5C 57.5,383.167 59.1667,381.5 60.5,379.5C 58.8333,380.167 57.1667,380.833 55.5,381.5C 54.8228,372.099 54.8228,362.433 55.5,352.5C 56.8333,351.833 57.8333,350.833 58.5,349.5C 57.391,349.557 56.391,349.89 55.5,350.5C 54.8357,335.475 55.5024,320.475 57.5,305.5C 58.8333,304.833 58.8333,304.167 57.5,303.5C 57.5,298.167 57.5,292.833 57.5,287.5C 58.8333,287.167 58.8333,286.833 57.5,286.5C 57.9734,275.172 58.3067,263.838 58.5,252.5C 59.8333,252.167 59.8333,251.833 58.5,251.5C 58.074,235.112 57.074,218.778 55.5,202.5C 58.1614,161.539 58.9947,120.539 58,79.5C 56.6667,74.8333 55.3333,70.1667 54,65.5C 51.668,62.2091 48.8347,61.7091 45.5,64C 39.8874,73.6372 31.5541,78.3039 20.5,78C 14.9752,75.0812 13.1419,70.5812 15,64.5C 15.8333,63 17,61.8333 18.5,61C 18.2716,60.6012 17.9382,60.4346 17.5,60.5C 18.0722,58.7446 18.9055,57.0779 20,55.5C 32.2014,44.9658 43.3681,33.4658 53.5,21C 56.328,18.7519 59.328,16.7519 62.5,15C 64.1341,14.5065 65.8008,14.3398 67.5,14.5 Z M 85.5,431.5 C 87.1667,431.5 88.8333,431.5 90.5,431.5C 88.2063,433.653 85.5396,435.32 82.5,436.5C 83.075,434.589 84.075,432.922 85.5,431.5 Z M 112.5,431.5 C 116.5,431.5 120.5,431.5 124.5,431.5C 118.666,435.921 112.332,439.588 105.5,442.5C 107.573,438.692 109.906,435.026 112.5,431.5 Z M 228.5,431.5 C 230.167,431.5 231.833,431.5 233.5,431.5C 230.506,434 227.173,436 223.5,437.5C 225.167,435.5 226.833,433.5 228.5,431.5 Z M 255.5,431.5 C 258.167,431.5 260.833,431.5 263.5,431.5C 258.815,434.6 253.981,437.6 249,440.5C 248.333,439.833 248.333,439.167 249,438.5C 251.4,436.271 253.567,433.937 255.5,431.5 Z M 284.5,431.5 C 285.5,431.5 286.5,431.5 287.5,431.5C 285.664,433.588 283.331,434.921 280.5,435.5C 281.5,433.833 282.833,432.5 284.5,431.5 Z M 308.5,431.5 C 309.5,431.5 310.5,431.5 311.5,431.5C 310.341,433.25 308.674,434.25 306.5,434.5C 307.167,433.5 307.833,432.5 308.5,431.5 Z M 333.5,431.5 C 337.167,431.5 340.833,431.5 344.5,431.5C 338.43,435.558 332.097,439.225 325.5,442.5C 328.167,438.833 330.833,435.167 333.5,431.5 Z M 365.5,431.5 C 367.167,431.5 368.833,431.5 370.5,431.5C 367.506,434 364.173,436 360.5,437.5C 362.167,435.5 363.833,433.5 365.5,431.5 Z M 410.5,431.5 C 412.167,431.5 413.833,431.5 415.5,431.5C 412.992,433.924 409.992,435.59 406.5,436.5C 407.833,434.833 409.167,433.167 410.5,431.5 Z M 91.5,443.5 C 88.8333,447.5 86.1667,451.5 83.5,455.5C 79.1667,455.5 74.8333,455.5 70.5,455.5C 77.0035,450.745 84.0035,446.745 91.5,443.5 Z M 310.5,444.5 C 308.427,448.308 306.094,451.974 303.5,455.5C 299.5,455.5 295.5,455.5 291.5,455.5C 297.57,451.442 303.903,447.775 310.5,444.5 Z M 222.5,455.5 C 219.5,455.5 216.5,455.5 213.5,455.5C 218.185,452.4 223.019,449.4 228,446.5C 228.667,447.167 228.667,447.833 228,448.5C 225.546,450.441 223.713,452.775 222.5,455.5 Z M 334.5,449.5 C 333.167,451.167 331.833,452.833 330.5,454.5C 329.167,454.5 327.833,454.5 326.5,454.5C 328.822,452.336 331.489,450.669 334.5,449.5 Z M 379.5,449.5 C 378.167,451.167 376.833,452.833 375.5,454.5C 373.833,454.5 372.167,454.5 370.5,454.5C 373.331,452.583 376.331,450.917 379.5,449.5 Z M 196.5,450.5 C 195.167,452.167 193.833,453.833 192.5,455.5C 190.833,455.5 189.167,455.5 187.5,455.5C 190.008,453.076 193.008,451.41 196.5,450.5 Z M 274.5,451.5 C 273.5,452.833 272.5,454.167 271.5,455.5C 270.167,455.5 268.833,455.5 267.5,455.5C 269.336,453.412 271.669,452.079 274.5,451.5 Z M 248.5,452.5 C 247.833,453.5 247.167,454.5 246.5,455.5C 245.167,455.5 243.833,455.5 242.5,455.5C 244.181,453.992 246.181,452.992 248.5,452.5 Z M 420.5,452.5 C 419.833,453.5 419.167,454.5 418.5,455.5C 417.5,455.5 416.5,455.5 415.5,455.5C 416.899,454.11 418.566,453.11 420.5,452.5 Z"/></g>
<g><path style="opacity:0.961" fill="#272626" d="M 255.5,115.5 C 257.806,115.993 260.139,116.326 262.5,116.5C 262.333,129.837 262.5,143.171 263,156.5C 271.994,153.832 279.328,156.166 285,163.5C 287.625,170.752 288.792,178.252 288.5,186C 287.633,207.498 287.467,228.998 288,250.5C 285.932,265.551 277.265,272.218 262,270.5C 262.404,281.151 262.404,291.818 262,302.5C 259.68,308.826 255.347,310.826 249,308.5C 248.5,295.504 248.333,282.504 248.5,269.5C 240.012,270.838 232.512,268.838 226,263.5C 224.725,261.283 223.725,258.949 223,256.5C 222.945,249.151 223.445,241.818 224.5,234.5C 222.337,215.883 221.504,197.216 222,178.5C 223.808,162.425 232.808,154.758 249,155.5C 248.548,144.519 248.548,133.519 249,122.5C 250.018,118.985 252.185,116.652 255.5,115.5 Z M 243.5,166.5 C 244.833,166.5 246.167,166.5 247.5,166.5C 246.341,168.25 244.674,169.25 242.5,169.5C 242.557,168.391 242.89,167.391 243.5,166.5 Z M 272.5,171.5 C 267.632,174.434 262.632,177.1 257.5,179.5C 260.71,175.079 264.377,171.079 268.5,167.5C 271.46,166.584 272.793,167.918 272.5,171.5 Z M 236.5,184.5 C 237.167,184.5 237.833,184.5 238.5,184.5C 238.167,185.5 237.5,186.167 236.5,186.5C 236.5,185.833 236.5,185.167 236.5,184.5 Z M 274.5,185.5 C 274.5,186.167 274.5,186.833 274.5,187.5C 272.819,189.008 270.819,190.008 268.5,190.5C 270.091,188.367 272.091,186.701 274.5,185.5 Z M 242.5,200.5 C 240.833,202.833 238.833,204.833 236.5,206.5C 236.5,205.5 236.5,204.5 236.5,203.5C 238.216,201.975 240.216,200.975 242.5,200.5 Z M 274.5,203.5 C 274.5,204.5 274.5,205.5 274.5,206.5C 271.634,208.432 268.634,210.099 265.5,211.5C 267.88,208.119 270.88,205.453 274.5,203.5 Z M 245.5,216.5 C 242.526,219.138 239.526,221.805 236.5,224.5C 236.5,223.167 236.5,221.833 236.5,220.5C 239.5,219.167 242.5,217.833 245.5,216.5 Z M 273.5,222.5 C 273.5,223.5 273.5,224.5 273.5,225.5C 271.95,226.441 270.284,227.107 268.5,227.5C 269.833,225.5 271.5,223.833 273.5,222.5 Z M 243.5,236.5 C 241.393,238.727 239.06,240.727 236.5,242.5C 236.5,241.5 236.5,240.5 236.5,239.5C 238.687,238.242 241.02,237.242 243.5,236.5 Z M 255.5,259.5 C 254.833,259.5 254.167,259.5 253.5,259.5C 254.548,257.067 255.214,257.067 255.5,259.5 Z"/></g>
<g><path style="opacity:0.962" fill="#272626" d="M 422.5,276.5 C 422.027,275.094 421.027,274.427 419.5,274.5C 414.05,270.611 410.883,265.277 410,258.5C 409.127,237.767 409.96,217.101 412.5,196.5C 405.864,174.76 413.864,164.426 436.5,165.5C 436.705,157.143 436.372,148.81 435.5,140.5C 435.892,137.151 436.392,133.817 437,130.5C 439.112,124.631 443.112,122.964 449,125.5C 449.5,138.829 449.667,152.163 449.5,165.5C 455.523,164.249 461.523,164.749 467.5,167C 470.433,169.264 472.6,172.098 474,175.5C 475.124,180.95 475.958,186.45 476.5,192C 475.187,210.83 475.187,229.663 476.5,248.5C 476.527,256.644 474.694,264.311 471,271.5C 464.808,276.675 457.642,278.675 449.5,277.5C 450.376,288.489 450.543,299.489 450,310.5C 449.039,319.932 444.706,321.932 437,316.5C 436.667,303.167 436.333,289.833 436,276.5C 431.556,277.586 427.056,277.586 422.5,276.5 Z M 431.5,174.5 C 433.5,174.5 435.5,174.5 437.5,174.5C 435.664,176.588 433.331,177.921 430.5,178.5C 430.833,177.167 431.167,175.833 431.5,174.5 Z M 457.5,175.5 C 458.737,176.965 459.737,178.632 460.5,180.5C 455.833,182.833 451.167,185.167 446.5,187.5C 450.195,183.474 453.862,179.474 457.5,175.5 Z M 427.5,192.5 C 426.833,193.833 425.833,194.833 424.5,195.5C 424.5,194.833 424.5,194.167 424.5,193.5C 425.391,192.89 426.391,192.557 427.5,192.5 Z M 463.5,204.5 C 463.5,205.167 463.5,205.833 463.5,206.5C 462.395,207.6 461.062,208.267 459.5,208.5C 460.5,206.833 461.833,205.5 463.5,204.5 Z M 461.5,223.5 C 461.5,224.5 461.5,225.5 461.5,226.5C 459.784,228.025 457.784,229.025 455.5,229.5C 457.167,227.167 459.167,225.167 461.5,223.5 Z M 432.5,236.5 C 430.431,239.573 427.764,241.906 424.5,243.5C 424.5,242.5 424.5,241.5 424.5,240.5C 426.938,238.733 429.605,237.399 432.5,236.5 Z M 461.5,242.5 C 461.5,243.167 461.5,243.833 461.5,244.5C 460.833,244.5 460.167,244.5 459.5,244.5C 459.833,243.5 460.5,242.833 461.5,242.5 Z M 432.5,255.5 C 430.167,258.5 427.5,261.167 424.5,263.5C 424.5,262.167 424.5,260.833 424.5,259.5C 426.883,257.642 429.55,256.308 432.5,255.5 Z M 450.5,262.5 C 449.559,264.772 448.226,266.772 446.5,268.5C 444.167,268.5 441.833,268.5 439.5,268.5C 442.678,265.742 446.345,263.742 450.5,262.5 Z"/></g>
<g><path style="opacity:0.968" fill="#262726" d="M 159.5,150.5 C 162.5,150.5 165.5,150.5 168.5,150.5C 168.5,163.833 168.5,177.167 168.5,190.5C 180.315,187.58 188.482,191.58 193,202.5C 194.005,208.62 194.505,214.787 194.5,221C 193.736,242.163 193.569,263.33 194,284.5C 191.865,299.123 183.365,305.79 168.5,304.5C 168.567,315.409 168.4,326.409 168,337.5C 165.619,344.189 161.286,345.856 155,342.5C 154.5,329.504 154.333,316.504 154.5,303.5C 141.055,304.882 132.555,299.215 129,286.5C 127.968,280.721 127.468,274.888 127.5,269C 128.379,253.993 129.379,238.993 130.5,224C 130.566,218.239 129.899,212.572 128.5,207C 129.142,199.354 133.142,194.354 140.5,192C 145.434,190.84 150.434,190.34 155.5,190.5C 154.715,179.507 154.548,168.507 155,157.5C 155.904,154.767 157.404,152.433 159.5,150.5 Z M 168.5,200.5 C 171.713,200.19 174.713,200.523 177.5,201.5C 171.984,205.517 166.15,209.184 160,212.5C 162.041,208.139 164.874,204.139 168.5,200.5 Z M 180.5,238.5 C 180.5,239.167 180.5,239.833 180.5,240.5C 178.784,242.025 176.784,243.025 174.5,243.5C 176.091,241.367 178.091,239.701 180.5,238.5 Z M 148.5,253.5 C 147.089,255.914 145.089,257.581 142.5,258.5C 142.5,257.833 142.5,257.167 142.5,256.5C 144.216,254.975 146.216,253.975 148.5,253.5 Z"/></g>
<g><path style="opacity:0.96" fill="#262626" d="M 360.5,310.5 C 358.833,309.167 357.167,309.167 355.5,310.5C 356.319,322.159 356.485,333.826 356,345.5C 353.853,351.656 349.687,353.656 343.5,351.5C 342.501,337.85 342.167,324.183 342.5,310.5C 327.151,313.323 318.317,306.99 316,291.5C 315.263,271.607 316.096,251.774 318.5,232C 318.324,226.442 317.657,220.942 316.5,215.5C 317.473,207.194 322.14,202.527 330.5,201.5C 332.735,201.795 334.735,201.461 336.5,200.5C 339.079,200.917 341.246,200.25 343,198.5C 342.988,190.66 342.488,182.826 341.5,175C 342.056,170.77 342.89,166.603 344,162.5C 347.5,158.75 351.666,157.75 356.5,159.5C 356.167,173.183 356.501,186.85 357.5,200.5C 369.037,197.518 376.871,201.518 381,212.5C 381.853,217.297 382.353,222.13 382.5,227C 381.167,245 381.167,263 382.5,281C 382.32,287.258 381.487,293.424 380,299.5C 376.255,307.958 369.755,311.624 360.5,310.5 Z M 350.5,207.5 C 345.525,211.153 340.191,213.986 334.5,216C 335.991,213.692 336.991,211.192 337.5,208.5C 341.81,207.92 346.143,207.586 350.5,207.5 Z M 366.5,211.5 C 367.738,213.214 368.405,215.214 368.5,217.5C 363.833,219.833 359.167,222.167 354.5,224.5C 357.792,219.54 361.792,215.207 366.5,211.5 Z M 335.5,228.5 C 334.167,230.5 332.5,232.167 330.5,233.5C 330.5,232.5 330.5,231.5 330.5,230.5C 332.05,229.559 333.716,228.893 335.5,228.5 Z M 368.5,232.5 C 368.5,233.833 368.5,235.167 368.5,236.5C 365.15,238.196 361.817,239.863 358.5,241.5C 361.808,238.529 365.141,235.529 368.5,232.5 Z M 339.5,245.5 C 336.833,248.833 333.833,251.833 330.5,254.5C 330.5,253.167 330.5,251.833 330.5,250.5C 333.331,248.583 336.331,246.917 339.5,245.5 Z M 368.5,264.5 C 368.5,265.5 368.5,266.5 368.5,267.5C 366.313,268.758 363.98,269.758 361.5,270.5C 363.234,267.8 365.568,265.8 368.5,264.5 Z M 336.5,279.5 C 334.833,281.833 332.833,283.833 330.5,285.5C 330.5,284.5 330.5,283.5 330.5,282.5C 332.216,280.975 334.216,279.975 336.5,279.5 Z M 341.5,294.5 C 339.5,297.167 337.167,299.5 334.5,301.5C 333.5,301.167 332.833,300.5 332.5,299.5C 335.24,297.44 338.24,295.774 341.5,294.5 Z"/></g>
<g><path style="opacity:0.978" fill="#f25d5d" d="M 268.5,167.5 C 264.377,171.079 260.71,175.079 257.5,179.5C 262.632,177.1 267.632,174.434 272.5,171.5C 273.117,171.611 273.617,171.944 274,172.5C 275.505,176.829 275.672,181.162 274.5,185.5C 272.091,186.701 270.091,188.367 268.5,190.5C 270.819,190.008 272.819,189.008 274.5,187.5C 275.757,192.703 275.757,198.036 274.5,203.5C 270.88,205.453 267.88,208.119 265.5,211.5C 268.634,210.099 271.634,208.432 274.5,206.5C 274.782,211.927 274.449,217.26 273.5,222.5C 271.5,223.833 269.833,225.5 268.5,227.5C 270.284,227.107 271.95,226.441 273.5,225.5C 274.755,232.296 275.422,239.296 275.5,246.5C 275.597,250.616 275.097,254.616 274,258.5C 267.954,258.302 261.787,258.635 255.5,259.5C 255.214,257.067 254.548,257.067 253.5,259.5C 247.827,260.161 242.494,259.328 237.5,257C 236.531,252.263 236.197,247.43 236.5,242.5C 239.06,240.727 241.393,238.727 243.5,236.5C 241.02,237.242 238.687,238.242 236.5,239.5C 236.5,234.5 236.5,229.5 236.5,224.5C 239.526,221.805 242.526,219.138 245.5,216.5C 242.5,217.833 239.5,219.167 236.5,220.5C 236.5,215.833 236.5,211.167 236.5,206.5C 238.833,204.833 240.833,202.833 242.5,200.5C 240.216,200.975 238.216,201.975 236.5,203.5C 236.5,197.833 236.5,192.167 236.5,186.5C 237.5,186.167 238.167,185.5 238.5,184.5C 237.833,184.5 237.167,184.5 236.5,184.5C 236.334,179.156 236.501,173.823 237,168.5C 238.897,166.984 241.064,166.317 243.5,166.5C 242.89,167.391 242.557,168.391 242.5,169.5C 244.674,169.25 246.341,168.25 247.5,166.5C 254.683,165.305 261.683,165.638 268.5,167.5 Z M 243.5,166.5 C 244.833,166.5 246.167,166.5 247.5,166.5C 246.341,168.25 244.674,169.25 242.5,169.5C 242.557,168.391 242.89,167.391 243.5,166.5 Z M 255.5,259.5 C 254.833,259.5 254.167,259.5 253.5,259.5C 254.548,257.067 255.214,257.067 255.5,259.5 Z"/></g>
<g><path style="opacity:0.981" fill="#f25d5d" d="M 431.5,174.5 C 431.167,175.833 430.833,177.167 430.5,178.5C 433.331,177.921 435.664,176.588 437.5,174.5C 441.299,173.953 445.132,173.619 449,173.5C 452.252,173.519 455.085,174.186 457.5,175.5C 453.862,179.474 450.195,183.474 446.5,187.5C 451.167,185.167 455.833,182.833 460.5,180.5C 461.927,182.148 462.76,184.148 463,186.5C 463.499,192.491 463.666,198.491 463.5,204.5C 461.833,205.5 460.5,206.833 459.5,208.5C 461.062,208.267 462.395,207.6 463.5,206.5C 463.268,212.262 462.601,217.928 461.5,223.5C 459.167,225.167 457.167,227.167 455.5,229.5C 457.784,229.025 459.784,228.025 461.5,226.5C 461.5,231.833 461.5,237.167 461.5,242.5C 460.5,242.833 459.833,243.5 459.5,244.5C 460.167,244.5 460.833,244.5 461.5,244.5C 462.656,251.989 462.822,259.655 462,267.5C 456.928,268.471 451.762,268.805 446.5,268.5C 448.226,266.772 449.559,264.772 450.5,262.5C 446.345,263.742 442.678,265.742 439.5,268.5C 434.936,270.11 430.602,269.61 426.5,267C 425.177,266.184 424.511,265.017 424.5,263.5C 427.5,261.167 430.167,258.5 432.5,255.5C 429.55,256.308 426.883,257.642 424.5,259.5C 424.5,254.167 424.5,248.833 424.5,243.5C 427.764,241.906 430.431,239.573 432.5,236.5C 429.605,237.399 426.938,238.733 424.5,240.5C 423.2,235.6 423.2,230.6 424.5,225.5C 423.221,215.882 423.221,205.882 424.5,195.5C 425.833,194.833 426.833,193.833 427.5,192.5C 426.391,192.557 425.391,192.89 424.5,193.5C 423.583,186.999 423.583,180.332 424.5,173.5C 427.059,173.198 429.393,173.532 431.5,174.5 Z M 431.5,174.5 C 433.5,174.5 435.5,174.5 437.5,174.5C 435.664,176.588 433.331,177.921 430.5,178.5C 430.833,177.167 431.167,175.833 431.5,174.5 Z M 450.5,262.5 C 449.559,264.772 448.226,266.772 446.5,268.5C 444.167,268.5 441.833,268.5 439.5,268.5C 442.678,265.742 446.345,263.742 450.5,262.5 Z"/></g>
<g><path style="opacity:0.987" fill="#6ec349" d="M 168.5,200.5 C 164.874,204.139 162.041,208.139 160,212.5C 166.15,209.184 171.984,205.517 177.5,201.5C 179.335,202.122 180.502,203.456 181,205.5C 180.934,216.489 180.768,227.489 180.5,238.5C 178.091,239.701 176.091,241.367 174.5,243.5C 176.784,243.025 178.784,242.025 180.5,240.5C 181.915,257.522 181.748,274.522 180,291.5C 177.544,293.321 174.711,293.988 171.5,293.5C 171.167,292.167 170.833,292.167 170.5,293.5C 163.536,294.553 156.536,294.72 149.5,294C 146.966,293.484 144.8,292.317 143,290.5C 142.5,279.839 142.333,269.172 142.5,258.5C 145.089,257.581 147.089,255.914 148.5,253.5C 146.216,253.975 144.216,254.975 142.5,256.5C 142.5,242.833 142.5,229.167 142.5,215.5C 143.833,215.167 143.833,214.833 142.5,214.5C 139.773,201.894 144.773,196.894 157.5,199.5C 161.349,199.501 165.016,199.835 168.5,200.5 Z"/></g>
<g><path style="opacity:0.902" fill="#62ac46" d="M 336.5,200.5 C 334.735,201.461 332.735,201.795 330.5,201.5C 332.208,199.488 334.208,199.154 336.5,200.5 Z"/></g>
<g><path style="opacity:0.977" fill="#6ec249" d="M 366.5,211.5 C 361.792,215.207 357.792,219.54 354.5,224.5C 359.167,222.167 363.833,219.833 368.5,217.5C 368.5,222.5 368.5,227.5 368.5,232.5C 365.141,235.529 361.808,238.529 358.5,241.5C 361.817,239.863 365.15,238.196 368.5,236.5C 368.5,245.833 368.5,255.167 368.5,264.5C 365.568,265.8 363.234,267.8 361.5,270.5C 363.98,269.758 366.313,268.758 368.5,267.5C 368.5,279.5 368.5,291.5 368.5,303.5C 363.833,303.5 359.167,303.5 354.5,303.5C 353.833,302.167 353.167,302.167 352.5,303.5C 347.886,304.55 343.22,304.717 338.5,304C 336.68,303.8 335.347,302.966 334.5,301.5C 337.167,299.5 339.5,297.167 341.5,294.5C 338.24,295.774 335.24,297.44 332.5,299.5C 330.564,295.285 329.897,290.619 330.5,285.5C 332.833,283.833 334.833,281.833 336.5,279.5C 334.216,279.975 332.216,280.975 330.5,282.5C 329.184,273.265 329.184,263.932 330.5,254.5C 333.833,251.833 336.833,248.833 339.5,245.5C 336.331,246.917 333.331,248.583 330.5,250.5C 329.238,244.963 329.238,239.297 330.5,233.5C 332.5,232.167 334.167,230.5 335.5,228.5C 333.716,228.893 332.05,229.559 330.5,230.5C 329.291,222.982 329.291,215.315 330.5,207.5C 333.059,207.198 335.393,207.532 337.5,208.5C 336.991,211.192 335.991,213.692 334.5,216C 340.191,213.986 345.525,211.153 350.5,207.5C 355.687,205.94 360.687,206.44 365.5,209C 366.252,209.671 366.586,210.504 366.5,211.5 Z M 350.5,207.5 C 345.525,211.153 340.191,213.986 334.5,216C 335.991,213.692 336.991,211.192 337.5,208.5C 341.81,207.92 346.143,207.586 350.5,207.5 Z"/></g>
<g><path style="opacity:0.251" fill="#e44e48" d="M 419.5,274.5 C 421.027,274.427 422.027,275.094 422.5,276.5C 420.973,276.573 419.973,275.906 419.5,274.5 Z"/></g>
<g><path style="opacity:0.996" fill="#4b7338" d="M 355.5,310.5 C 357.167,309.167 358.833,309.167 360.5,310.5C 358.833,311.833 357.167,311.833 355.5,310.5 Z"/></g>
</svg>
