<?xml version="1.0" encoding="UTF-8"?>
<!DOCTYPE svg PUBLIC "-//W3C//DTD SVG 1.1//EN" "http://www.w3.org/Graphics/SVG/1.1/DTD/svg11.dtd">
<svg xmlns="http://www.w3.org/2000/svg" version="1.1" width="512px" height="512px" style="shape-rendering:geometricPrecision; text-rendering:geometricPrecision; image-rendering:optimizeQuality; fill-rule:evenodd; clip-rule:evenodd" xmlns:xlink="http://www.w3.org/1999/xlink">
<g><path style="opacity:0.997" fill="#3f3f3f" d="M 459.5,259.5 C 451.833,259.5 444.167,259.5 436.5,259.5C 436.5,200.833 436.5,142.167 436.5,83.5C 328.167,83.5 219.833,83.5 111.5,83.5C 111.5,140.5 111.5,197.5 111.5,254.5C 103.833,254.5 96.1667,254.5 88.5,254.5C 88.3333,194.166 88.5,133.832 89,73.5C 90.6891,68.4748 93.8558,64.6415 98.5,62C 214.444,60.3393 330.444,60.006 446.5,61C 452.667,63.1667 456.833,67.3333 459,73.5C 459.5,135.499 459.667,197.499 459.5,259.5 Z"/></g>
<g><path style="opacity:1" fill="#fefefe" d="M 436.5,259.5 C 431.167,259.5 425.833,259.5 420.5,259.5C 420.784,257.585 420.451,255.919 419.5,254.5C 375.5,254.5 331.5,254.5 287.5,254.5C 287.5,257.5 287.5,260.5 287.5,263.5C 305.5,263.5 323.5,263.5 341.5,263.5C 340.559,268.07 340.226,272.737 340.5,277.5C 303.833,277.5 267.167,277.5 230.5,277.5C 230.5,272.833 230.5,268.167 230.5,263.5C 238.833,263.5 247.167,263.5 255.5,263.5C 255.5,254.833 255.5,246.167 255.5,237.5C 211.167,237.5 166.833,237.5 122.5,237.5C 122.5,243.167 122.5,248.833 122.5,254.5C 118.833,254.5 115.167,254.5 111.5,254.5C 111.5,197.5 111.5,140.5 111.5,83.5C 219.833,83.5 328.167,83.5 436.5,83.5C 436.5,142.167 436.5,200.833 436.5,259.5 Z"/></g>
<g><path style="opacity:1" fill="#7668f4" d="M 144.5,93.5 C 144.5,100.833 144.5,108.167 144.5,115.5C 137.167,115.5 129.833,115.5 122.5,115.5C 122.5,108.167 122.5,100.833 122.5,93.5C 129.833,93.5 137.167,93.5 144.5,93.5 Z"/></g>
<g><path style="opacity:1" fill="#dfdfdf" d="M 155.5,96.5 C 192.5,96.5 229.5,96.5 266.5,96.5C 266.5,98.1667 266.5,99.8333 266.5,101.5C 229.5,101.5 192.5,101.5 155.5,101.5C 155.5,99.8333 155.5,98.1667 155.5,96.5 Z"/></g>
<g><path style="opacity:1" fill="#dddddd" d="M 287.5,98.5 C 331.5,98.5 375.5,98.5 419.5,98.5C 419.5,101.5 419.5,104.5 419.5,107.5C 375.5,107.5 331.5,107.5 287.5,107.5C 287.5,104.5 287.5,101.5 287.5,98.5 Z"/></g>
<g><path style="opacity:1" fill="#dddddd" d="M 155.5,108.5 C 177.833,108.5 200.167,108.5 222.5,108.5C 222.5,109.833 222.5,111.167 222.5,112.5C 200.167,112.5 177.833,112.5 155.5,112.5C 155.5,111.167 155.5,109.833 155.5,108.5 Z"/></g>
<g><path style="opacity:1" fill="#aaa1f8" d="M 144.5,93.5 C 145.492,100.982 145.825,108.648 145.5,116.5C 137.648,116.825 129.982,116.492 122.5,115.5C 129.833,115.5 137.167,115.5 144.5,115.5C 144.5,108.167 144.5,100.833 144.5,93.5 Z"/></g>
<g><path style="opacity:1" fill="#dcdddc" d="M 287.5,120.5 C 331.5,120.5 375.5,120.5 419.5,120.5C 419.5,123.167 419.5,125.833 419.5,128.5C 375.5,128.5 331.5,128.5 287.5,128.5C 287.5,125.833 287.5,123.167 287.5,120.5 Z"/></g>
<g><path style="opacity:1" fill="#ffe20b" d="M 122.5,130.5 C 130.167,130.5 137.833,130.5 145.5,130.5C 145.5,137.833 145.5,145.167 145.5,152.5C 137.833,152.5 130.167,152.5 122.5,152.5C 122.5,145.167 122.5,137.833 122.5,130.5 Z"/></g>
<g><path style="opacity:1" fill="#dfdfdf" d="M 155.5,133.5 C 192.5,133.5 229.5,133.5 266.5,133.5C 266.5,135.167 266.5,136.833 266.5,138.5C 229.5,138.5 192.5,138.5 155.5,138.5C 155.5,136.833 155.5,135.167 155.5,133.5 Z"/></g>
<g><path style="opacity:1" fill="#dddddd" d="M 287.5,141.5 C 331.5,141.5 375.5,141.5 419.5,141.5C 419.5,144.5 419.5,147.5 419.5,150.5C 375.5,150.5 331.5,150.5 287.5,150.5C 287.5,147.5 287.5,144.5 287.5,141.5 Z"/></g>
<g><path style="opacity:1" fill="#dfdfdf" d="M 155.5,144.5 C 177.833,144.5 200.167,144.5 222.5,144.5C 222.5,146.167 222.5,147.833 222.5,149.5C 200.167,149.5 177.833,149.5 155.5,149.5C 155.5,147.833 155.5,146.167 155.5,144.5 Z"/></g>
<g><path style="opacity:1" fill="#8bd710" d="M 357.5,165.5 C 362.5,165.5 367.5,165.5 372.5,165.5C 372.5,191.833 372.5,218.167 372.5,244.5C 367.5,244.5 362.5,244.5 357.5,244.5C 357.5,218.167 357.5,191.833 357.5,165.5 Z"/></g>
<g><path style="opacity:1" fill="#ff003b" d="M 122.5,167.5 C 129.833,167.5 137.167,167.5 144.5,167.5C 144.5,174.833 144.5,182.167 144.5,189.5C 144.5,182.167 144.5,174.833 144.5,167.5C 137.167,167.5 129.833,167.5 122.5,167.5 Z"/></g>
<g><path style="opacity:1" fill="#ff6487" d="M 122.5,167.5 C 129.982,166.508 137.648,166.175 145.5,166.5C 145.825,174.352 145.492,182.018 144.5,189.5C 144.5,182.167 144.5,174.833 144.5,167.5C 137.167,167.5 129.833,167.5 122.5,167.5 Z"/></g>
<g><path style="opacity:1" fill="#dddddd" d="M 155.5,170.5 C 192.5,170.5 229.5,170.5 266.5,170.5C 266.5,171.833 266.5,173.167 266.5,174.5C 229.5,174.5 192.5,174.5 155.5,174.5C 155.5,173.167 155.5,171.833 155.5,170.5 Z"/></g>
<g><path style="opacity:1" fill="#dfdfdf" d="M 155.5,181.5 C 177.833,181.5 200.167,181.5 222.5,181.5C 222.5,183.167 222.5,184.833 222.5,186.5C 200.167,186.5 177.833,186.5 155.5,186.5C 155.5,184.833 155.5,183.167 155.5,181.5 Z"/></g>
<g><path style="opacity:1" fill="#f15c27" d="M 334.5,184.5 C 339.5,184.5 344.5,184.5 349.5,184.5C 349.5,204.5 349.5,224.5 349.5,244.5C 344.5,244.5 339.5,244.5 334.5,244.5C 334.5,224.5 334.5,204.5 334.5,184.5 Z"/></g>
<g><path style="opacity:1" fill="#ffe20f" d="M 310.5,201.5 C 315.5,201.5 320.5,201.5 325.5,201.5C 325.5,215.833 325.5,230.167 325.5,244.5C 320.5,244.5 315.5,244.5 310.5,244.5C 310.5,230.167 310.5,215.833 310.5,201.5 Z"/></g>
<g><path style="opacity:1" fill="#8bd70f" d="M 122.5,203.5 C 130.167,203.5 137.833,203.5 145.5,203.5C 145.5,211.167 145.5,218.833 145.5,226.5C 137.833,226.5 130.167,226.5 122.5,226.5C 122.5,218.833 122.5,211.167 122.5,203.5 Z"/></g>
<g><path style="opacity:1" fill="#7668f4" d="M 381.5,204.5 C 386.167,204.5 390.833,204.5 395.5,204.5C 395.5,217.833 395.5,231.167 395.5,244.5C 390.833,244.5 386.167,244.5 381.5,244.5C 381.5,231.167 381.5,217.833 381.5,204.5 Z"/></g>
<g><path style="opacity:1" fill="#9287f6" d="M 381.5,204.5 C 386.305,203.513 391.305,203.179 396.5,203.5C 396.829,217.344 396.496,231.01 395.5,244.5C 395.5,231.167 395.5,217.833 395.5,204.5C 390.833,204.5 386.167,204.5 381.5,204.5 Z"/></g>
<g><path style="opacity:1" fill="#dddddd" d="M 155.5,207.5 C 192.5,207.5 229.5,207.5 266.5,207.5C 266.5,208.833 266.5,210.167 266.5,211.5C 229.5,211.5 192.5,211.5 155.5,211.5C 155.5,210.167 155.5,208.833 155.5,207.5 Z"/></g>
<g><path style="opacity:1" fill="#5ec1e6" d="M 287.5,215.5 C 292.5,215.5 297.5,215.5 302.5,215.5C 302.5,225.167 302.5,234.833 302.5,244.5C 297.5,244.5 292.5,244.5 287.5,244.5C 287.5,234.833 287.5,225.167 287.5,215.5 Z"/></g>
<g><path style="opacity:1" fill="#ff698c" d="M 419.5,217.5 C 414.833,217.5 410.167,217.5 405.5,217.5C 405.5,226.5 405.5,235.5 405.5,244.5C 404.506,235.348 404.173,226.015 404.5,216.5C 409.695,216.179 414.695,216.513 419.5,217.5 Z"/></g>
<g><path style="opacity:1" fill="#fe003a" d="M 419.5,217.5 C 419.5,226.5 419.5,235.5 419.5,244.5C 414.833,244.5 410.167,244.5 405.5,244.5C 405.5,235.5 405.5,226.5 405.5,217.5C 410.167,217.5 414.833,217.5 419.5,217.5 Z"/></g>
<g><path style="opacity:1" fill="#dddddd" d="M 155.5,218.5 C 177.833,218.5 200.167,218.5 222.5,218.5C 222.5,219.833 222.5,221.167 222.5,222.5C 200.167,222.5 177.833,222.5 155.5,222.5C 155.5,221.167 155.5,219.833 155.5,218.5 Z"/></g>
<g><path style="opacity:1" fill="#dddddd" d="M 230.5,263.5 C 230.755,259.507 229.089,256.674 225.5,255C 191.168,254.5 156.835,254.333 122.5,254.5C 122.5,248.833 122.5,243.167 122.5,237.5C 166.833,237.5 211.167,237.5 255.5,237.5C 255.5,246.167 255.5,254.833 255.5,263.5C 247.167,263.5 238.833,263.5 230.5,263.5 Z"/></g>
<g><path style="opacity:1" fill="#7668f3" d="M 88.5,254.5 C 96.1667,254.5 103.833,254.5 111.5,254.5C 115.167,254.5 118.833,254.5 122.5,254.5C 156.835,254.333 191.168,254.5 225.5,255C 229.089,256.674 230.755,259.507 230.5,263.5C 230.5,268.167 230.5,272.833 230.5,277.5C 230.5,277.833 230.5,278.167 230.5,278.5C 230.5,282.167 230.5,285.833 230.5,289.5C 157.5,289.5 84.5,289.5 11.5,289.5C 11.3335,279.494 11.5002,269.494 12,259.5C 13.0386,258.756 13.5386,257.756 13.5,256.5C 13.6107,255.883 13.944,255.383 14.5,255C 39.1644,254.5 63.8311,254.333 88.5,254.5 Z"/></g>
<g><path style="opacity:1" fill="#353535" d="M 419.5,254.5 C 419.5,256.167 419.5,257.833 419.5,259.5C 394.831,259.333 370.164,259.5 345.5,260C 343.676,260.66 342.343,261.827 341.5,263.5C 323.5,263.5 305.5,263.5 287.5,263.5C 287.5,260.5 287.5,257.5 287.5,254.5C 331.5,254.5 375.5,254.5 419.5,254.5 Z"/></g>
<g><path style="opacity:0.995" fill="#e5e5e5" d="M 419.5,254.5 C 420.451,255.919 420.784,257.585 420.5,259.5C 425.833,259.5 431.167,259.5 436.5,259.5C 444.167,259.5 451.833,259.5 459.5,259.5C 471.838,259.333 484.171,259.5 496.5,260C 498.049,261.214 499.215,262.714 500,264.5C 500.992,325.582 500.659,386.582 499,447.5C 498.167,448.333 497.333,449.167 496.5,450C 445.833,450.667 395.167,450.667 344.5,450C 342.667,449.5 341.5,448.333 341,446.5C 340.5,432.837 340.333,419.171 340.5,405.5C 340.5,396.833 340.5,388.167 340.5,379.5C 340.5,363.167 340.5,346.833 340.5,330.5C 340.5,313.167 340.5,295.833 340.5,278.5C 303.833,278.5 267.167,278.5 230.5,278.5C 230.5,278.167 230.5,277.833 230.5,277.5C 267.167,277.5 303.833,277.5 340.5,277.5C 340.226,272.737 340.559,268.07 341.5,263.5C 342.343,261.827 343.676,260.66 345.5,260C 370.164,259.5 394.831,259.333 419.5,259.5C 419.5,257.833 419.5,256.167 419.5,254.5 Z"/></g>
<g><path style="opacity:1" fill="#fefefe" d="M 86.5,266.5 C 128.833,266.5 171.167,266.5 213.5,266.5C 213.5,270.167 213.5,273.833 213.5,277.5C 171.167,277.5 128.833,277.5 86.5,277.5C 86.5,273.833 86.5,270.167 86.5,266.5 Z"/></g>
<g><path style="opacity:1" fill="#363539" d="M 31.5,267.5 C 39.3136,267.625 41.3136,271.125 37.5,278C 30.5098,280.005 27.6764,277.505 29,270.5C 29.6979,269.309 30.5313,268.309 31.5,267.5 Z"/></g>
<g><path style="opacity:1" fill="#f9dc1d" d="M 48.5,267.5 C 57.4878,266.756 59.8212,270.256 55.5,278C 46.4297,279.136 44.0963,275.636 48.5,267.5 Z"/></g>
<g><path style="opacity:1" fill="#fc033f" d="M 67.5,267.5 C 75.0224,267.67 77.0224,271.003 73.5,277.5C 66.5502,280.046 63.7169,277.713 65,270.5C 65.6979,269.309 66.5313,268.309 67.5,267.5 Z"/></g>
<g><path style="opacity:1" fill="#c5bff9" d="M 86.5,266.5 C 86.5,270.167 86.5,273.833 86.5,277.5C 128.833,277.5 171.167,277.5 213.5,277.5C 171.003,278.499 128.337,278.832 85.5,278.5C 85.1832,274.298 85.5166,270.298 86.5,266.5 Z"/></g>
<g><path style="opacity:1" fill="#bcbcbc" d="M 386.5,276.5 C 408.833,276.5 431.167,276.5 453.5,276.5C 453.5,278.5 453.5,280.5 453.5,282.5C 431.167,282.5 408.833,282.5 386.5,282.5C 386.5,280.5 386.5,278.5 386.5,276.5 Z"/></g>
<g><path style="opacity:1" fill="#3e3e3e" d="M 230.5,278.5 C 267.167,278.5 303.833,278.5 340.5,278.5C 340.5,295.833 340.5,313.167 340.5,330.5C 338.5,330.5 336.5,330.5 334.5,330.5C 300.167,330.5 265.833,330.5 231.5,330.5C 231.5,346.833 231.5,363.167 231.5,379.5C 265.833,379.5 300.167,379.5 334.5,379.5C 336.5,379.5 338.5,379.5 340.5,379.5C 340.5,388.167 340.5,396.833 340.5,405.5C 304.167,405.5 267.833,405.5 231.5,405.5C 230.506,367.239 230.173,328.906 230.5,290.5C 230.5,290.167 230.5,289.833 230.5,289.5C 230.5,285.833 230.5,282.167 230.5,278.5 Z"/></g>
<g><path style="opacity:1" fill="#a198ee" d="M 13.5,256.5 C 13.5386,257.756 13.0386,258.756 12,259.5C 11.5002,269.494 11.3335,279.494 11.5,289.5C 84.5,289.5 157.5,289.5 230.5,289.5C 230.5,289.833 230.5,290.167 230.5,290.5C 157.167,290.5 83.8333,290.5 10.5,290.5C 10.3335,279.828 10.5002,269.161 11,258.5C 11.7083,257.619 12.5416,256.953 13.5,256.5 Z"/></g>
<g><path style="opacity:0.997" fill="#e5e5e5" d="M 10.5,290.5 C 83.8333,290.5 157.167,290.5 230.5,290.5C 230.173,328.906 230.506,367.239 231.5,405.5C 231.667,418.171 231.5,430.838 231,443.5C 231.063,446.767 229.563,448.934 226.5,450C 155.833,450.667 85.1667,450.667 14.5,450C 12.9512,448.786 11.7845,447.286 11,445.5C 10.5,393.834 10.3333,342.168 10.5,290.5 Z"/></g>
<g><path style="opacity:1" fill="#bababa" d="M 365.5,291.5 C 401.833,291.5 438.167,291.5 474.5,291.5C 474.5,293.167 474.5,294.833 474.5,296.5C 438.167,296.5 401.833,296.5 365.5,296.5C 365.5,294.833 365.5,293.167 365.5,291.5 Z"/></g>
<g><path style="opacity:1" fill="#bcbcbc" d="M 365.5,305.5 C 401.833,305.5 438.167,305.5 474.5,305.5C 474.5,307.5 474.5,309.5 474.5,311.5C 438.167,311.5 401.833,311.5 365.5,311.5C 365.5,309.5 365.5,307.5 365.5,305.5 Z"/></g>
<g><path style="opacity:1" fill="#8b8b8b" d="M 36.5,312.5 C 36.5,348.833 36.5,385.167 36.5,421.5C 33.8333,421.5 31.1667,421.5 28.5,421.5C 30.6074,420.532 32.9407,420.198 35.5,420.5C 35.1682,384.329 35.5016,348.329 36.5,312.5 Z"/></g>
<g><path style="opacity:1" fill="#343434" d="M 36.5,312.5 C 37.8333,312.5 39.1667,312.5 40.5,312.5C 40.5,348.833 40.5,385.167 40.5,421.5C 92.8333,421.5 145.167,421.5 197.5,421.5C 197.5,422.833 197.5,424.167 197.5,425.5C 145.167,425.5 92.8333,425.5 40.5,425.5C 40.5,428.167 40.5,430.833 40.5,433.5C 38.8333,433.5 37.1667,433.5 35.5,433.5C 35.5,431.167 35.5,428.833 35.5,426.5C 33.1667,426.5 30.8333,426.5 28.5,426.5C 28.5,424.833 28.5,423.167 28.5,421.5C 31.1667,421.5 33.8333,421.5 36.5,421.5C 36.5,385.167 36.5,348.833 36.5,312.5 Z"/></g>
<g><path style="opacity:1" fill="#6b6b6b" d="M 24.5,311.5 C 26.8333,311.5 29.1667,311.5 31.5,311.5C 31.5,312.5 31.5,313.5 31.5,314.5C 29.1667,314.5 26.8333,314.5 24.5,314.5C 24.5,313.5 24.5,312.5 24.5,311.5 Z"/></g>
<g><path style="opacity:1" fill="#4e4e4e" d="M 25.5,322.5 C 27.604,322.201 29.604,322.534 31.5,323.5C 30.5,323.833 29.5,324.167 28.5,324.5C 26.9704,324.36 25.9704,323.693 25.5,322.5 Z"/></g>
<g><path style="opacity:1" fill="#806ff0" d="M 185.5,333.5 C 184.209,333.737 183.209,333.404 182.5,332.5C 186.179,329.162 190.512,327.162 195.5,326.5C 195.5,327.5 195.5,328.5 195.5,329.5C 191.948,330.276 188.614,331.609 185.5,333.5 Z"/></g>
<g><path style="opacity:1" fill="#363735" d="M 420.5,332.5 C 420.5,349.167 420.5,365.833 420.5,382.5C 420.167,382.5 419.833,382.5 419.5,382.5C 408.887,370.219 397.554,358.552 385.5,347.5C 384.524,346.185 383.524,344.852 382.5,343.5C 392.987,333.004 405.654,328.004 420.5,328.5C 420.5,329.833 420.5,331.167 420.5,332.5 Z"/></g>
<g><path style="opacity:1" fill="#333333" d="M 334.5,330.5 C 334.5,346.833 334.5,363.167 334.5,379.5C 300.167,379.5 265.833,379.5 231.5,379.5C 231.5,363.167 231.5,346.833 231.5,330.5C 265.833,330.5 300.167,330.5 334.5,330.5 Z"/></g>
<g><path style="opacity:1" fill="#fb2949" d="M 182.5,332.5 C 183.209,333.404 184.209,333.737 185.5,333.5C 188.144,335.969 190.977,338.302 194,340.5C 195.301,342.365 195.635,344.365 195,346.5C 191.516,342.169 187.349,338.836 182.5,336.5C 181.791,335.596 180.791,335.263 179.5,335.5C 173.162,333.671 168.495,335.671 165.5,341.5C 164.662,341.842 164.328,342.508 164.5,343.5C 163.778,343.918 163.278,344.584 163,345.5C 161.971,351.123 161.471,356.79 161.5,362.5C 161.5,363.5 161.5,364.5 161.5,365.5C 160.754,372.492 157.754,378.325 152.5,383C 143.887,386.902 138.22,384.402 135.5,375.5C 135.007,373.194 134.674,370.861 134.5,368.5C 134.666,364.154 134.499,359.821 134,355.5C 133.768,354.263 133.268,353.263 132.5,352.5C 132.598,350.447 131.931,348.78 130.5,347.5C 128.149,340.99 123.815,338.824 117.5,341C 115.859,342.129 114.859,343.629 114.5,345.5C 113.326,346.514 112.66,347.847 112.5,349.5C 109.9,358.301 106.9,366.967 103.5,375.5C 102.599,376.29 101.932,377.29 101.5,378.5C 94.6404,392.709 84.6404,395.709 71.5,387.5C 71.573,385.973 70.9063,384.973 69.5,384.5C 68.2295,379.688 66.5629,375.022 64.5,370.5C 64.1667,369.5 63.5,368.833 62.5,368.5C 62.0844,366.248 60.751,364.748 58.5,364C 54.556,363.01 50.8894,363.51 47.5,365.5C 46.4173,364.635 46.2506,363.635 47,362.5C 53.3351,358.192 59.1685,358.859 64.5,364.5C 64.9321,365.71 65.5987,366.71 66.5,367.5C 68.2611,372.018 70.2611,376.351 72.5,380.5C 72.5569,381.609 72.8902,382.609 73.5,383.5C 79.447,390.985 86.1136,391.485 93.5,385C 95.0585,382.948 96.3918,380.781 97.5,378.5C 98.4013,377.71 99.0679,376.71 99.5,375.5C 103.957,365.796 107.624,355.796 110.5,345.5C 111.11,344.609 111.443,343.609 111.5,342.5C 118.738,334.382 125.738,334.715 132.5,343.5C 132.427,345.027 133.094,346.027 134.5,346.5C 135.462,350.395 136.796,354.061 138.5,357.5C 138.5,359.833 138.5,362.167 138.5,364.5C 137.802,370.061 138.802,375.227 141.5,380C 148.276,382.365 153.109,380.198 156,373.5C 156.822,370.883 157.322,368.216 157.5,365.5C 158.404,364.791 158.737,363.791 158.5,362.5C 158.064,355.683 158.731,349.016 160.5,342.5C 161.401,341.71 162.068,340.71 162.5,339.5C 167.344,332.082 174.011,329.749 182.5,332.5 Z"/></g>
<g><path style="opacity:1" fill="#3f3f3f" d="M 25.5,332.5 C 27.604,332.201 29.604,332.534 31.5,333.5C 30.5,333.833 29.5,334.167 28.5,334.5C 26.9704,334.36 25.9704,333.693 25.5,332.5 Z"/></g>
<g><path style="opacity:1" fill="#89d507" d="M 420.5,332.5 C 445.845,334.676 462.011,348.009 469,372.5C 471.26,388.129 467.594,402.129 458,414.5C 457.184,415.823 456.017,416.489 454.5,416.5C 442.833,405.5 431.5,394.167 420.5,382.5C 420.5,365.833 420.5,349.167 420.5,332.5 Z"/></g>
<g><path style="opacity:1" fill="#e4dde0" d="M 179.5,335.5 C 176.917,338.997 174.584,342.664 172.5,346.5C 170.445,344.445 168.112,342.779 165.5,341.5C 168.495,335.671 173.162,333.671 179.5,335.5 Z"/></g>
<g><path style="opacity:1" fill="#7f6ff1" d="M 179.5,335.5 C 180.791,335.263 181.791,335.596 182.5,336.5C 179.468,340.606 176.468,344.606 173.5,348.5C 173.167,347.833 172.833,347.167 172.5,346.5C 174.584,342.664 176.917,338.997 179.5,335.5 Z"/></g>
<g><path style="opacity:1" fill="#e3e2e5" d="M 130.5,347.5 C 129.905,353.878 128.072,359.878 125,365.5C 122.061,368.509 119.728,368.176 118,364.5C 118.092,357.886 116.926,351.553 114.5,345.5C 114.859,343.629 115.859,342.129 117.5,341C 123.815,338.824 128.149,340.99 130.5,347.5 Z"/></g>
<g><path style="opacity:1" fill="#8573f0" d="M 146.5,341.5 C 145.833,342.5 145.167,343.5 144.5,344.5C 140.13,340.093 136.797,340.76 134.5,346.5C 133.094,346.027 132.427,345.027 132.5,343.5C 132.414,342.504 132.748,341.671 133.5,341C 137.886,337.767 142.219,337.934 146.5,341.5 Z"/></g>
<g><path style="opacity:1" fill="#92d527" d="M 162.5,339.5 C 162.068,340.71 161.401,341.71 160.5,342.5C 155.75,340.715 151.75,341.715 148.5,345.5C 147.5,345.833 146.833,346.5 146.5,347.5C 143.447,352.996 140.78,358.663 138.5,364.5C 138.5,362.167 138.5,359.833 138.5,357.5C 139.692,352.783 141.692,348.45 144.5,344.5C 145.167,343.5 145.833,342.5 146.5,341.5C 151.47,338.428 156.804,337.762 162.5,339.5 Z"/></g>
<g><path style="opacity:1" fill="#8071f1" d="M 111.5,342.5 C 111.443,343.609 111.11,344.609 110.5,345.5C 105.078,341.147 100.245,341.813 96,347.5C 94.4379,349.957 93.4379,352.624 93,355.5C 92.8238,359.688 92.3238,363.688 91.5,367.5C 90.8333,365.5 90.1667,363.5 89.5,361.5C 88.622,350.225 93.4553,342.892 104,339.5C 106.683,340.093 109.183,341.093 111.5,342.5 Z"/></g>
<g><path style="opacity:1" fill="#343434" d="M 25.5,342.5 C 27.604,342.201 29.604,342.534 31.5,343.5C 30.5,343.833 29.5,344.167 28.5,344.5C 26.9704,344.36 25.9704,343.693 25.5,342.5 Z"/></g>
<g><path style="opacity:1" fill="#e2e1e1" d="M 144.5,344.5 C 141.692,348.45 139.692,352.783 138.5,357.5C 136.796,354.061 135.462,350.395 134.5,346.5C 136.797,340.76 140.13,340.093 144.5,344.5 Z"/></g>
<g><path style="opacity:1" fill="#e4e3e3" d="M 160.5,342.5 C 158.731,349.016 158.064,355.683 158.5,362.5C 155.981,362.152 154.147,360.819 153,358.5C 151.955,353.972 150.455,349.639 148.5,345.5C 151.75,341.715 155.75,340.715 160.5,342.5 Z"/></g>
<g><path style="opacity:1" fill="#90d624" d="M 165.5,341.5 C 168.112,342.779 170.445,344.445 172.5,346.5C 172.833,347.167 173.167,347.833 173.5,348.5C 177.735,356.635 182.235,364.635 187,372.5C 189.067,375.07 191.567,377.07 194.5,378.5C 195.386,379.325 195.719,380.325 195.5,381.5C 191.77,380.944 188.603,379.278 186,376.5C 180.969,369.099 176.469,361.432 172.5,353.5C 172.167,352.833 171.833,352.167 171.5,351.5C 169.167,348.833 166.833,346.167 164.5,343.5C 164.328,342.508 164.662,341.842 165.5,341.5 Z"/></g>
<g><path style="opacity:1" fill="#e3e1e5" d="M 110.5,345.5 C 107.624,355.796 103.957,365.796 99.5,375.5C 98.0695,375.579 96.7362,375.246 95.5,374.5C 93.9019,372.302 92.5686,369.969 91.5,367.5C 92.3238,363.688 92.8238,359.688 93,355.5C 93.4379,352.624 94.4379,349.957 96,347.5C 100.245,341.813 105.078,341.147 110.5,345.5 Z"/></g>
<g><path style="opacity:1" fill="#e3e0e2" d="M 164.5,343.5 C 166.833,346.167 169.167,348.833 171.5,351.5C 169.705,354.404 167.872,357.404 166,360.5C 164.67,361.582 163.17,362.249 161.5,362.5C 161.471,356.79 161.971,351.123 163,345.5C 163.278,344.584 163.778,343.918 164.5,343.5 Z"/></g>
<g><path style="opacity:1" fill="#8370ef" d="M 148.5,345.5 C 150.455,349.639 151.955,353.972 153,358.5C 154.147,360.819 155.981,362.152 158.5,362.5C 158.737,363.791 158.404,364.791 157.5,365.5C 155.321,365.16 153.488,364.16 152,362.5C 149.668,357.668 147.834,352.668 146.5,347.5C 146.833,346.5 147.5,345.833 148.5,345.5 Z"/></g>
<g><path style="opacity:1" fill="#8170f1" d="M 114.5,345.5 C 116.926,351.553 118.092,357.886 118,364.5C 119.728,368.176 122.061,368.509 125,365.5C 128.072,359.878 129.905,353.878 130.5,347.5C 131.931,348.78 132.598,350.447 132.5,352.5C 131.915,357.422 130.415,362.089 128,366.5C 124.294,371.268 120.294,371.601 116,367.5C 115.222,361.279 114.055,355.279 112.5,349.5C 112.66,347.847 113.326,346.514 114.5,345.5 Z"/></g>
<g><path style="opacity:1" fill="#e5e3e4" d="M 146.5,347.5 C 147.834,352.668 149.668,357.668 152,362.5C 153.488,364.16 155.321,365.16 157.5,365.5C 157.322,368.216 156.822,370.883 156,373.5C 153.109,380.198 148.276,382.365 141.5,380C 138.802,375.227 137.802,370.061 138.5,364.5C 140.78,358.663 143.447,352.996 146.5,347.5 Z"/></g>
<g><path style="opacity:1" fill="#5ec0e5" d="M 385.5,347.5 C 397.554,358.552 408.887,370.219 419.5,382.5C 408.5,394.167 397.167,405.5 385.5,416.5C 371.031,401.668 367.198,384.335 374,364.5C 376.867,358.075 380.7,352.409 385.5,347.5 Z"/></g>
<g><path style="opacity:1" fill="#e4e2e3" d="M 112.5,349.5 C 114.055,355.279 115.222,361.279 116,367.5C 120.294,371.601 124.294,371.268 128,366.5C 130.415,362.089 131.915,357.422 132.5,352.5C 133.268,353.263 133.768,354.263 134,355.5C 134.499,359.821 134.666,364.154 134.5,368.5C 132.26,373.358 130.094,378.358 128,383.5C 125.367,388.732 121.201,390.565 115.5,389C 113.239,386.228 111.739,383.062 111,379.5C 109.285,376.603 106.785,375.269 103.5,375.5C 106.9,366.967 109.9,358.301 112.5,349.5 Z"/></g>
<g><path style="opacity:1" fill="#3c3c3c" d="M 24.5,352.5 C 26.924,352.192 29.2573,352.526 31.5,353.5C 30.3333,353.833 29.1667,354.167 28,354.5C 26.3189,354.392 25.1522,353.725 24.5,352.5 Z"/></g>
<g><path style="opacity:1" fill="#7f71f2" d="M 171.5,351.5 C 171.833,352.167 172.167,352.833 172.5,353.5C 171.558,360.083 167.891,364.083 161.5,365.5C 161.5,364.5 161.5,363.5 161.5,362.5C 163.17,362.249 164.67,361.582 166,360.5C 167.872,357.404 169.705,354.404 171.5,351.5 Z"/></g>
<g><path style="opacity:1" fill="#91d526" d="M 89.5,361.5 C 90.1667,363.5 90.8333,365.5 91.5,367.5C 92.5686,369.969 93.9019,372.302 95.5,374.5C 96.7362,375.246 98.0695,375.579 99.5,375.5C 99.0679,376.71 98.4013,377.71 97.5,378.5C 94.3567,378.031 92.0233,376.364 90.5,373.5C 89.8902,372.609 89.5569,371.609 89.5,370.5C 88.7928,366.409 86.6261,363.409 83,361.5C 81.7387,361.759 80.7387,362.426 80,363.5C 78.9738,366.802 78.1404,370.135 77.5,373.5C 77.5,374.167 77.5,374.833 77.5,375.5C 76.6766,378.48 75.3433,381.147 73.5,383.5C 72.8902,382.609 72.5569,381.609 72.5,380.5C 73.2967,376.777 74.2967,373.11 75.5,369.5C 75.5,368.833 75.5,368.167 75.5,367.5C 77.2015,358.313 81.8682,356.313 89.5,361.5 Z"/></g>
<g><path style="opacity:1" fill="#dfe1df" d="M 89.5,370.5 C 87.646,372.596 85.3127,373.929 82.5,374.5C 80.9707,374.471 79.804,373.804 79,372.5C 78.6174,373.056 78.1174,373.389 77.5,373.5C 78.1404,370.135 78.9738,366.802 80,363.5C 80.7387,362.426 81.7387,361.759 83,361.5C 86.6261,363.409 88.7928,366.409 89.5,370.5 Z"/></g>
<g><path style="opacity:1" fill="#8070f0" d="M 75.5,367.5 C 75.5,368.167 75.5,368.833 75.5,369.5C 74.8826,369.611 74.3826,369.944 74,370.5C 72.2325,367.156 69.7325,366.156 66.5,367.5C 65.5987,366.71 64.9321,365.71 64.5,364.5C 66.7819,363.61 69.1152,363.444 71.5,364C 72.7051,365.376 74.0384,366.542 75.5,367.5 Z"/></g>
<g><path style="opacity:1" fill="#dedbde" d="M 75.5,369.5 C 74.2967,373.11 73.2967,376.777 72.5,380.5C 70.2611,376.351 68.2611,372.018 66.5,367.5C 69.7325,366.156 72.2325,367.156 74,370.5C 74.3826,369.944 74.8826,369.611 75.5,369.5 Z"/></g>
<g><path style="opacity:1" fill="#7e6ff2" d="M 62.5,368.5 C 63.5,368.833 64.1667,369.5 64.5,370.5C 62.7892,377.744 59.1225,383.91 53.5,389C 51.3225,390.202 48.9892,390.702 46.5,390.5C 46.5,389.5 46.5,388.5 46.5,387.5C 50.548,387.559 53.7146,385.892 56,382.5C 58.1744,377.719 60.3411,373.053 62.5,368.5 Z"/></g>
<g><path style="opacity:1" fill="#93d628" d="M 134.5,368.5 C 134.674,370.861 135.007,373.194 135.5,375.5C 133.325,381.333 129.992,386.5 125.5,391C 120.266,394.555 115.433,394.055 111,389.5C 109.691,385.901 108.191,382.401 106.5,379C 104.866,378.506 103.199,378.34 101.5,378.5C 101.932,377.29 102.599,376.29 103.5,375.5C 106.785,375.269 109.285,376.603 111,379.5C 111.739,383.062 113.239,386.228 115.5,389C 121.201,390.565 125.367,388.732 128,383.5C 130.094,378.358 132.26,373.358 134.5,368.5 Z"/></g>
<g><path style="opacity:1" fill="#7b6ef2" d="M 89.5,370.5 C 89.5569,371.609 89.8902,372.609 90.5,373.5C 86.6311,377.757 82.2978,378.424 77.5,375.5C 77.5,374.833 77.5,374.167 77.5,373.5C 78.1174,373.389 78.6174,373.056 79,372.5C 79.804,373.804 80.9707,374.471 82.5,374.5C 85.3127,373.929 87.646,372.596 89.5,370.5 Z"/></g>
<g><path style="opacity:1" fill="#e5e3e3" d="M 90.5,373.5 C 92.0233,376.364 94.3567,378.031 97.5,378.5C 96.3918,380.781 95.0585,382.948 93.5,385C 86.1136,391.485 79.447,390.985 73.5,383.5C 75.3433,381.147 76.6766,378.48 77.5,375.5C 82.2978,378.424 86.6311,377.757 90.5,373.5 Z"/></g>
<g><path style="opacity:1" fill="#fe043c" d="M 419.5,382.5 C 419.833,382.5 420.167,382.5 420.5,382.5C 431.5,394.167 442.833,405.5 454.5,416.5C 454.489,418.017 453.823,419.184 452.5,420C 433.695,433.571 414.028,434.905 393.5,424C 390.334,422 387.668,419.5 385.5,416.5C 397.167,405.5 408.5,394.167 419.5,382.5 Z"/></g>
<g><path style="opacity:1" fill="#757575" d="M 24.5,382.5 C 26.8333,382.5 29.1667,382.5 31.5,382.5C 31.5,383.5 31.5,384.5 31.5,385.5C 29.1667,385.5 26.8333,385.5 24.5,385.5C 24.5,384.5 24.5,383.5 24.5,382.5 Z"/></g>
<g><path style="opacity:1" fill="#93d728" d="M 69.5,384.5 C 70.9063,384.973 71.573,385.973 71.5,387.5C 65.2388,396.965 56.5722,402.965 45.5,405.5C 45.33,404.178 45.6634,403.011 46.5,402C 56.4354,399.045 64.1021,393.211 69.5,384.5 Z"/></g>
<g><path style="opacity:1" fill="#6f6f6f" d="M 24.5,392.5 C 26.8333,392.5 29.1667,392.5 31.5,392.5C 31.5,393.5 31.5,394.5 31.5,395.5C 29.1667,395.5 26.8333,395.5 24.5,395.5C 24.5,394.5 24.5,393.5 24.5,392.5 Z"/></g>
<g><path style="opacity:1" fill="#696969" d="M 24.5,402.5 C 26.8333,402.5 29.1667,402.5 31.5,402.5C 31.5,403.5 31.5,404.5 31.5,405.5C 29.1667,405.5 26.8333,405.5 24.5,405.5C 24.5,404.5 24.5,403.5 24.5,402.5 Z"/></g>
<g><path style="opacity:1" fill="#4c4c4c" d="M 25.5,413.5 C 27.604,413.201 29.604,413.534 31.5,414.5C 30.5,414.833 29.5,415.167 28.5,415.5C 26.9704,415.36 25.9704,414.693 25.5,413.5 Z"/></g>
<g><path style="opacity:1" fill="#989898" d="M 40.5,312.5 C 41.4984,348.329 41.8318,384.329 41.5,420.5C 93.6693,420.168 145.669,420.501 197.5,421.5C 145.167,421.5 92.8333,421.5 40.5,421.5C 40.5,385.167 40.5,348.833 40.5,312.5 Z"/></g>
<g><path style="opacity:1" fill="#7b7b7b" d="M 197.5,421.5 C 198.451,422.919 198.784,424.585 198.5,426.5C 146.167,426.5 93.8333,426.5 41.5,426.5C 41.8016,429.059 41.4682,431.393 40.5,433.5C 40.5,430.833 40.5,428.167 40.5,425.5C 92.8333,425.5 145.167,425.5 197.5,425.5C 197.5,424.167 197.5,422.833 197.5,421.5 Z"/></g>
<g><path style="opacity:1" fill="#414141" d="M 58.5,430.5 C 59.7251,431.152 60.3917,432.319 60.5,434C 60.1667,435.167 59.8333,436.333 59.5,437.5C 58.5258,435.257 58.1924,432.924 58.5,430.5 Z"/></g>
<g><path style="opacity:1" fill="#6a6a6a" d="M 68.5,430.5 C 69.5,430.5 70.5,430.5 71.5,430.5C 71.5,432.833 71.5,435.167 71.5,437.5C 70.5,437.5 69.5,437.5 68.5,437.5C 68.5,435.167 68.5,432.833 68.5,430.5 Z"/></g>
<g><path style="opacity:1" fill="#3a3a3a" d="M 79.5,430.5 C 80.7251,431.152 81.3917,432.319 81.5,434C 81.1667,435.167 80.8333,436.333 80.5,437.5C 79.5258,435.257 79.1924,432.924 79.5,430.5 Z"/></g>
<g><path style="opacity:1" fill="#686868" d="M 89.5,430.5 C 90.5,430.5 91.5,430.5 92.5,430.5C 92.5,432.833 92.5,435.167 92.5,437.5C 91.5,437.5 90.5,437.5 89.5,437.5C 89.5,435.167 89.5,432.833 89.5,430.5 Z"/></g>
<g><path style="opacity:1" fill="#414141" d="M 100.5,430.5 C 101.725,431.152 102.392,432.319 102.5,434C 102.167,435.167 101.833,436.333 101.5,437.5C 100.526,435.257 100.192,432.924 100.5,430.5 Z"/></g>
<g><path style="opacity:1" fill="#4e4e4e" d="M 111.5,430.5 C 112.725,431.152 113.392,432.319 113.5,434C 113.167,435.167 112.833,436.333 112.5,437.5C 111.526,435.257 111.192,432.924 111.5,430.5 Z"/></g>
<g><path style="opacity:1" fill="#4e4e4e" d="M 121.5,430.5 C 122.725,431.152 123.392,432.319 123.5,434C 123.167,435.167 122.833,436.333 122.5,437.5C 121.526,435.257 121.192,432.924 121.5,430.5 Z"/></g>
<g><path style="opacity:1" fill="#404040" d="M 132.5,430.5 C 133.725,431.152 134.392,432.319 134.5,434C 134.167,435.167 133.833,436.333 133.5,437.5C 132.526,435.257 132.192,432.924 132.5,430.5 Z"/></g>
<g><path style="opacity:1" fill="#6b6b6b" d="M 142.5,430.5 C 143.5,430.5 144.5,430.5 145.5,430.5C 145.5,432.833 145.5,435.167 145.5,437.5C 144.5,437.5 143.5,437.5 142.5,437.5C 142.5,435.167 142.5,432.833 142.5,430.5 Z"/></g>
<g><path style="opacity:1" fill="#3a3a3a" d="M 153.5,430.5 C 154.725,431.152 155.392,432.319 155.5,434C 155.167,435.167 154.833,436.333 154.5,437.5C 153.526,435.257 153.192,432.924 153.5,430.5 Z"/></g>
<g><path style="opacity:1" fill="#686868" d="M 163.5,430.5 C 164.5,430.5 165.5,430.5 166.5,430.5C 166.5,432.833 166.5,435.167 166.5,437.5C 165.5,437.5 164.5,437.5 163.5,437.5C 163.5,435.167 163.5,432.833 163.5,430.5 Z"/></g>
<g><path style="opacity:1" fill="#424242" d="M 174.5,430.5 C 175.725,431.152 176.392,432.319 176.5,434C 176.167,435.167 175.833,436.333 175.5,437.5C 174.526,435.257 174.192,432.924 174.5,430.5 Z"/></g>
<g><path style="opacity:1" fill="#4d4d4d" d="M 185.5,430.5 C 186.725,431.152 187.392,432.319 187.5,434C 187.167,435.167 186.833,436.333 186.5,437.5C 185.526,435.257 185.192,432.924 185.5,430.5 Z"/></g>
</svg>
