<?xml version="1.0" encoding="UTF-8"?>
<!DOCTYPE svg PUBLIC "-//W3C//DTD SVG 1.1//EN" "http://www.w3.org/Graphics/SVG/1.1/DTD/svg11.dtd">
<svg xmlns="http://www.w3.org/2000/svg" version="1.1" width="512px" height="512px" style="shape-rendering:geometricPrecision; text-rendering:geometricPrecision; image-rendering:optimizeQuality; fill-rule:evenodd; clip-rule:evenodd" xmlns:xlink="http://www.w3.org/1999/xlink">
<g><path style="opacity:0.995" fill="#eef5fd" d="M 349.5,31.5 C 349.5,50.1667 349.5,68.8333 349.5,87.5C 322.165,87.3334 294.831,87.5 267.5,88C 256.143,93.5311 253.643,101.698 260,112.5C 261.731,114.617 263.898,116.117 266.5,117C 294.165,117.5 321.831,117.667 349.5,117.5C 349.5,179.167 349.5,240.833 349.5,302.5C 348.5,302.5 347.5,302.5 346.5,302.5C 335.5,302.5 324.5,302.5 313.5,302.5C 295.833,302.5 278.167,302.5 260.5,302.5C 265.446,292.697 266.779,282.363 264.5,271.5C 276.384,246.732 288.55,222.065 301,197.5C 304.018,182.514 297.851,175.681 282.5,177C 279.898,177.883 277.731,179.383 276,181.5C 264.565,203.371 253.398,225.371 242.5,247.5C 225.024,239.596 208.024,230.929 191.5,221.5C 191.333,173.166 191.5,124.832 192,76.5C 194.529,53.2825 207.029,38.4491 229.5,32C 269.499,31.5 309.499,31.3333 349.5,31.5 Z"/></g>
<g><path style="opacity:1" fill="#d8e3ef" d="M 349.5,31.5 C 391.168,31.3333 432.835,31.5 474.5,32C 494.014,37.0151 506.348,49.1818 511.5,68.5C 511.5,134.167 511.5,199.833 511.5,265.5C 506.348,284.818 494.014,296.985 474.5,302C 446.169,302.5 417.835,302.667 389.5,302.5C 378.5,302.5 367.5,302.5 356.5,302.5C 354.167,302.5 351.833,302.5 349.5,302.5C 349.5,240.833 349.5,179.167 349.5,117.5C 349.833,117.5 350.167,117.5 350.5,117.5C 379.502,117.667 408.502,117.5 437.5,117C 447.191,111.927 449.691,104.427 445,94.5C 442.823,91.4769 439.989,89.4769 436.5,88.5C 407.671,87.502 378.671,87.1686 349.5,87.5C 349.5,68.8333 349.5,50.1667 349.5,31.5 Z"/></g>
<g><path style="opacity:0.984" fill="#ffcebd" d="M 94.5,61.5 C 94.5,104.833 94.5,148.167 94.5,191.5C 94.5,191.833 94.5,192.167 94.5,192.5C 91.5,192.5 88.5,192.5 85.5,192.5C 45.5167,182.593 27.0167,156.926 30,115.5C 38.0065,81.3231 59.5065,63.3231 94.5,61.5 Z"/></g>
<g><path style="opacity:1" fill="#f9bcaa" d="M 94.5,61.5 C 130.799,63.2346 152.633,81.9013 160,117.5C 162.249,155.369 145.416,180.036 109.5,191.5C 104.5,191.5 99.5,191.5 94.5,191.5C 94.5,148.167 94.5,104.833 94.5,61.5 Z"/></g>
<g><path style="opacity:1" fill="#2fa5fb" d="M 349.5,87.5 C 378.671,87.1686 407.671,87.502 436.5,88.5C 407.833,88.5 379.167,88.5 350.5,88.5C 350.5,98.1667 350.5,107.833 350.5,117.5C 350.167,117.5 349.833,117.5 349.5,117.5C 349.5,107.5 349.5,97.5 349.5,87.5 Z"/></g>
<g><path style="opacity:1" fill="#3cb4fb" d="M 349.5,87.5 C 349.5,97.5 349.5,107.5 349.5,117.5C 321.831,117.667 294.165,117.5 266.5,117C 263.898,116.117 261.731,114.617 260,112.5C 253.643,101.698 256.143,93.5311 267.5,88C 294.831,87.5 322.165,87.3334 349.5,87.5 Z"/></g>
<g><path style="opacity:1" fill="#1d9cfc" d="M 436.5,88.5 C 439.989,89.4769 442.823,91.4769 445,94.5C 449.691,104.427 447.191,111.927 437.5,117C 408.502,117.5 379.502,117.667 350.5,117.5C 350.5,107.833 350.5,98.1667 350.5,88.5C 379.167,88.5 407.833,88.5 436.5,88.5 Z"/></g>
<g><path style="opacity:1" fill="#299efc" d="M 361.5,151.5 C 386.169,151.333 410.836,151.5 435.5,152C 447.291,157.039 450.124,165.206 444,176.5C 441.559,178.969 438.726,180.802 435.5,182C 410.833,182.667 386.167,182.667 361.5,182C 350.257,176.888 347.424,168.721 353,157.5C 355.637,155.109 358.47,153.109 361.5,151.5 Z"/></g>
<g><path style="opacity:1" fill="#feb828" d="M 264.5,271.5 C 260.314,260.646 252.981,252.646 242.5,247.5C 253.398,225.371 264.565,203.371 276,181.5C 277.731,179.383 279.898,177.883 282.5,177C 297.851,175.681 304.018,182.514 301,197.5C 288.55,222.065 276.384,246.732 264.5,271.5 Z"/></g>
<g><path style="opacity:0.993" fill="#fe7578" d="M 85.5,192.5 C 88.5,192.5 91.5,192.5 94.5,192.5C 94.5,288.167 94.5,383.833 94.5,479.5C 76.8302,479.667 59.1635,479.5 41.5,479C 37,477.167 33.8333,474 32,469.5C 31.8332,439.828 31.3332,410.161 30.5,380.5C 14.0819,374.09 3.74859,362.423 -0.5,345.5C -0.5,321.833 -0.5,298.167 -0.5,274.5C 8.90344,227.099 37.5701,199.766 85.5,192.5 Z"/></g>
<g><path style="opacity:1" fill="#fe5768" d="M 94.5,191.5 C 99.5,191.5 104.5,191.5 109.5,191.5C 111.735,191.205 113.735,191.539 115.5,192.5C 108.833,192.5 102.167,192.5 95.5,192.5C 95.5,287.833 95.5,383.167 95.5,478.5C 112.833,478.5 130.167,478.5 147.5,478.5C 130.008,479.497 112.341,479.83 94.5,479.5C 94.5,383.833 94.5,288.167 94.5,192.5C 94.5,192.167 94.5,191.833 94.5,191.5 Z"/></g>
<g><path style="opacity:1" fill="#fe4a60" d="M 115.5,192.5 C 124.843,192.613 133.843,194.446 142.5,198C 158.855,205.845 175.188,213.678 191.5,221.5C 208.024,230.929 225.024,239.596 242.5,247.5C 252.981,252.646 260.314,260.646 264.5,271.5C 266.779,282.363 265.446,292.697 260.5,302.5C 252.914,316.7 240.914,324.033 224.5,324.5C 218.635,324.294 212.969,323.127 207.5,321C 191.256,312.961 175.089,304.794 159,296.5C 158.667,353.833 158.333,411.167 158,468.5C 156.573,474.095 153.073,477.428 147.5,478.5C 130.167,478.5 112.833,478.5 95.5,478.5C 95.5,383.167 95.5,287.833 95.5,192.5C 102.167,192.5 108.833,192.5 115.5,192.5 Z"/></g>
<g><path style="opacity:1" fill="#219cfc" d="M 359.5,216.5 C 385.169,216.333 410.835,216.5 436.5,217C 446.734,221.644 449.568,229.144 445,239.5C 442.635,242.869 439.468,245.036 435.5,246C 410.833,246.667 386.167,246.667 361.5,246C 351.095,241.68 347.929,234.18 352,223.5C 354.396,220.933 356.896,218.6 359.5,216.5 Z"/></g>
<g><path style="opacity:0.96" fill="#3ab4fb" d="M 313.5,302.5 C 324.5,302.5 335.5,302.5 346.5,302.5C 326.443,358.503 306.276,414.503 286,470.5C 281.614,478.108 275.114,480.942 266.5,479C 257.823,474.81 254.657,467.976 257,458.5C 275.939,406.515 294.772,354.515 313.5,302.5 Z"/></g>
<g><path style="opacity:0.96" fill="#1d9bfd" d="M 356.5,302.5 C 367.5,302.5 378.5,302.5 389.5,302.5C 408.65,354.808 427.817,407.141 447,459.5C 447.697,476.804 439.863,482.638 423.5,477C 421.291,475.127 419.458,472.96 418,470.5C 397.198,414.592 376.698,358.592 356.5,302.5 Z"/></g>
</svg>
