<?xml version="1.0" encoding="UTF-8"?>
<!DOCTYPE svg PUBLIC "-//W3C//DTD SVG 1.1//EN" "http://www.w3.org/Graphics/SVG/1.1/DTD/svg11.dtd">
<svg xmlns="http://www.w3.org/2000/svg" version="1.1" width="512px" height="512px" style="shape-rendering:geometricPrecision; text-rendering:geometricPrecision; image-rendering:optimizeQuality; fill-rule:evenodd; clip-rule:evenodd" xmlns:xlink="http://www.w3.org/1999/xlink">
<g><path style="opacity:0.994" fill="#078789" d="M 297.5,66.5 C 275.833,66.5 254.167,66.5 232.5,66.5C 232.5,75.1667 232.5,83.8333 232.5,92.5C 223.833,92.5 215.167,92.5 206.5,92.5C 157.167,92.5 107.833,92.5 58.5,92.5C 51.4921,92.6663 44.4921,92.4996 37.5,92C 27,89.5 20.5,83 18,72.5C 17.0619,56.446 17.3952,40.446 19,24.5C 22.3262,16.5074 28.1595,11.3407 36.5,9C 117.167,8.33333 197.833,8.33333 278.5,9C 287.263,11.4304 293.096,16.9304 296,25.5C 297.427,39.1069 297.927,52.7736 297.5,66.5 Z"/></g>
<g><path style="opacity:1" fill="#e9f1f1" d="M 72.5,36.5 C 85.6831,35.5149 91.5165,41.5149 90,54.5C 85.5706,63.753 78.7373,66.253 69.5,62C 63.0307,56.1351 61.864,49.3017 66,41.5C 68.3256,39.9343 70.4922,38.2676 72.5,36.5 Z"/></g>
<g><path style="opacity:1" fill="#b0d6d7" d="M 120.5,62.5 C 119.507,54.3501 119.174,46.0168 119.5,37.5C 163.5,37.5 207.5,37.5 251.5,37.5C 251.5,46.1667 251.5,54.8333 251.5,63.5C 207.663,63.832 163.997,63.4987 120.5,62.5 Z"/></g>
<g><path style="opacity:1" fill="#ecf3f2" d="M 120.5,62.5 C 120.5,54.5 120.5,46.5 120.5,38.5C 163.833,38.5 207.167,38.5 250.5,38.5C 250.5,46.5 250.5,54.5 250.5,62.5C 207.167,62.5 163.833,62.5 120.5,62.5 Z"/></g>
<g><path style="opacity:0.994" fill="#7ad0de" d="M 297.5,66.5 C 368.833,66.5 440.167,66.5 511.5,66.5C 511.5,193.5 511.5,320.5 511.5,447.5C 499.167,447.5 486.833,447.5 474.5,447.5C 474.5,433.5 474.5,419.5 474.5,405.5C 478.5,405.5 482.5,405.5 486.5,405.5C 486.833,300.999 486.499,196.665 485.5,92.5C 401.167,92.5 316.833,92.5 232.5,92.5C 232.5,83.8333 232.5,75.1667 232.5,66.5C 254.167,66.5 275.833,66.5 297.5,66.5 Z"/></g>
<g><path style="opacity:0.996" fill="#fcd992" d="M 58.5,92.5 C 107.833,92.5 157.167,92.5 206.5,92.5C 206.5,99.8333 206.5,107.167 206.5,114.5C 157.167,114.5 107.833,114.5 58.5,114.5C 58.5,107.167 58.5,99.8333 58.5,92.5 Z"/></g>
<g><path style="opacity:1" fill="#ecf2f2" d="M 206.5,92.5 C 215.167,92.5 223.833,92.5 232.5,92.5C 316.833,92.5 401.167,92.5 485.5,92.5C 485.5,196.5 485.5,300.5 485.5,404.5C 481.833,404.5 478.167,404.5 474.5,404.5C 463.5,404.5 452.5,404.5 441.5,404.5C 435.5,404.5 429.5,404.5 423.5,404.5C 423.5,393.833 423.5,383.167 423.5,372.5C 420.167,372.5 416.833,372.5 413.5,372.5C 413.767,370.035 414.434,367.701 415.5,365.5C 429.5,365.5 443.5,365.5 457.5,365.5C 457.5,363.5 457.5,361.5 457.5,359.5C 443.99,359.829 430.656,359.496 417.5,358.5C 417.975,354.916 418.975,351.583 420.5,348.5C 432.5,348.5 444.5,348.5 456.5,348.5C 456.5,346.5 456.5,344.5 456.5,342.5C 444.833,342.5 433.167,342.5 421.5,342.5C 423.522,333.747 425.855,325.08 428.5,316.5C 438.167,316.5 447.833,316.5 457.5,316.5C 457.5,314.5 457.5,312.5 457.5,310.5C 448.318,310.827 439.318,310.493 430.5,309.5C 431.01,306.461 431.677,303.461 432.5,300.5C 440.748,299.531 449.082,299.198 457.5,299.5C 457.5,297.5 457.5,295.5 457.5,293.5C 443.656,292.876 429.989,293.542 416.5,295.5C 415.893,295.376 415.56,295.043 415.5,294.5C 418.807,285.273 421.807,275.939 424.5,266.5C 435.321,267.495 446.321,267.828 457.5,267.5C 457.5,265.5 457.5,263.5 457.5,261.5C 446.833,261.5 436.167,261.5 425.5,261.5C 426.348,257.773 427.348,254.107 428.5,250.5C 438.167,250.5 447.833,250.5 457.5,250.5C 457.5,248.5 457.5,246.5 457.5,244.5C 448.5,244.5 439.5,244.5 430.5,244.5C 432.215,235.638 434.548,226.972 437.5,218.5C 444.167,218.5 450.833,218.5 457.5,218.5C 457.5,216.5 457.5,214.5 457.5,212.5C 451.167,212.5 444.833,212.5 438.5,212.5C 438.38,211.414 437.713,210.747 436.5,210.5C 433.045,211.196 429.712,212.196 426.5,213.5C 362.002,212.501 297.335,212.168 232.5,212.5C 232.5,214.5 232.5,216.5 232.5,218.5C 289.833,218.5 347.167,218.5 404.5,218.5C 388.323,223.298 371.99,227.965 355.5,232.5C 354.479,233.002 354.312,233.668 355,234.5C 358.371,237.703 361.538,241.036 364.5,244.5C 320.5,244.5 276.5,244.5 232.5,244.5C 232.5,246.5 232.5,248.5 232.5,250.5C 278.5,250.5 324.5,250.5 370.5,250.5C 373.813,253.478 377.147,256.478 380.5,259.5C 379.812,260.855 378.812,261.855 377.5,262.5C 329.336,261.501 281.003,261.168 232.5,261.5C 232.5,263.5 232.5,265.5 232.5,267.5C 279.167,267.5 325.833,267.5 372.5,267.5C 369.854,270.812 366.854,273.812 363.5,276.5C 343.414,268.212 328.747,273.878 319.5,293.5C 290.167,293.5 260.833,293.5 231.5,293.5C 231.5,295.5 231.5,297.5 231.5,299.5C 260.5,299.5 289.5,299.5 318.5,299.5C 318.323,303.234 318.656,306.901 319.5,310.5C 308.167,310.5 296.833,310.5 285.5,310.5C 284.167,309.167 282.833,309.167 281.5,310.5C 265.167,310.5 248.833,310.5 232.5,310.5C 232.5,312.5 232.5,314.5 232.5,316.5C 246.833,316.5 261.167,316.5 275.5,316.5C 266.833,325.833 257.833,334.833 248.5,343.5C 243.167,343.5 237.833,343.5 232.5,343.5C 232.5,345.167 232.5,346.833 232.5,348.5C 236.167,348.5 239.833,348.5 243.5,348.5C 238.703,353.798 233.703,358.965 228.5,364C 225.756,363.981 223.089,363.314 220.5,362C 215.511,361.501 210.511,361.334 205.5,361.5C 205.5,354.167 205.5,346.833 205.5,339.5C 206.833,334.833 206.833,330.167 205.5,325.5C 205.5,318.5 205.5,311.5 205.5,304.5C 206.494,294.681 206.827,284.681 206.5,274.5C 177.833,274.5 149.167,274.5 120.5,274.5C 120.5,266.167 120.5,257.833 120.5,249.5C 149.167,249.5 177.833,249.5 206.5,249.5C 206.5,239.833 206.5,230.167 206.5,220.5C 206.5,213.167 206.5,205.833 206.5,198.5C 206.5,188.5 206.5,178.5 206.5,168.5C 177.833,168.5 149.167,168.5 120.5,168.5C 120.5,160.167 120.5,151.833 120.5,143.5C 149.167,143.5 177.833,143.5 206.5,143.5C 206.5,133.833 206.5,124.167 206.5,114.5C 206.5,107.167 206.5,99.8333 206.5,92.5 Z"/></g>
<g><path style="opacity:1" fill="#98d9e4" d="M 485.5,92.5 C 486.499,196.665 486.833,300.999 486.5,405.5C 482.5,405.5 478.5,405.5 474.5,405.5C 474.5,405.167 474.5,404.833 474.5,404.5C 478.167,404.5 481.833,404.5 485.5,404.5C 485.5,300.5 485.5,196.5 485.5,92.5 Z"/></g>
<g><path style="opacity:0.996" fill="#0e8889" d="M 58.5,114.5 C 107.833,114.5 157.167,114.5 206.5,114.5C 206.5,124.167 206.5,133.833 206.5,143.5C 177.833,143.5 149.167,143.5 120.5,143.5C 120.5,151.833 120.5,160.167 120.5,168.5C 149.167,168.5 177.833,168.5 206.5,168.5C 206.5,178.5 206.5,188.5 206.5,198.5C 157.167,198.5 107.833,198.5 58.5,198.5C 26.6698,202.336 13.0031,188.336 17.5,156.5C 13.0471,124.621 26.7138,110.621 58.5,114.5 Z"/></g>
<g><path style="opacity:1" fill="#eaf1f1" d="M 72.5,142.5 C 85.6726,141.505 91.5059,147.505 90,160.5C 86.4706,168.846 80.3039,171.679 71.5,169C 63.1856,163.595 61.3523,156.428 66,147.5C 67.9651,145.45 70.1318,143.783 72.5,142.5 Z"/></g>
<g><path style="opacity:1" fill="#bdf4f6" d="M 232.5,146.5 C 307.5,146.5 382.5,146.5 457.5,146.5C 457.5,148.5 457.5,150.5 457.5,152.5C 382.5,152.5 307.5,152.5 232.5,152.5C 232.5,150.5 232.5,148.5 232.5,146.5 Z"/></g>
<g><path style="opacity:1" fill="#bdf3f6" d="M 232.5,163.5 C 307.5,163.5 382.5,163.5 457.5,163.5C 457.5,165.5 457.5,167.5 457.5,169.5C 382.5,169.5 307.5,169.5 232.5,169.5C 232.5,167.5 232.5,165.5 232.5,163.5 Z"/></g>
<g><path style="opacity:1" fill="#bef4f6" d="M 232.5,195.5 C 307.5,195.5 382.5,195.5 457.5,195.5C 457.5,197.5 457.5,199.5 457.5,201.5C 382.5,201.5 307.5,201.5 232.5,201.5C 232.5,199.5 232.5,197.5 232.5,195.5 Z"/></g>
<g><path style="opacity:0.996" fill="#fcd992" d="M 58.5,198.5 C 107.833,198.5 157.167,198.5 206.5,198.5C 206.5,205.833 206.5,213.167 206.5,220.5C 157.167,220.5 107.833,220.5 58.5,220.5C 58.5,213.167 58.5,205.833 58.5,198.5 Z"/></g>
<g><path style="opacity:0.984" fill="#e3a831" d="M 438.5,212.5 C 437.85,214.435 437.517,216.435 437.5,218.5C 434.548,226.972 432.215,235.638 430.5,244.5C 429.715,246.374 429.048,248.374 428.5,250.5C 427.348,254.107 426.348,257.773 425.5,261.5C 424.699,263.042 424.366,264.708 424.5,266.5C 421.807,275.939 418.807,285.273 415.5,294.5C 414.833,294.167 414.167,293.833 413.5,293.5C 405.854,285.188 397.854,277.188 389.5,269.5C 384.181,274.318 379.015,279.318 374,284.5C 374.599,288.36 375.765,292.027 377.5,295.5C 377.5,296.5 377.5,297.5 377.5,298.5C 377.587,303.537 377.254,308.537 376.5,313.5C 368.598,315.809 360.598,317.809 352.5,319.5C 350.842,320.181 349.175,321.015 347.5,322C 350.704,325.036 353.704,328.203 356.5,331.5C 347.613,333.66 339.28,332.327 331.5,327.5C 326.146,332.188 321.146,337.188 316.5,342.5C 314.167,344.167 312.167,346.167 310.5,348.5C 309.518,349.141 308.518,349.807 307.5,350.5C 306.482,349.807 305.482,349.141 304.5,348.5C 302.833,346.167 300.833,344.167 298.5,342.5C 293.854,337.188 288.854,332.188 283.5,327.5C 278.146,332.188 273.146,337.188 268.5,342.5C 266.5,343.833 264.833,345.5 263.5,347.5C 258.833,351.5 254.5,355.833 250.5,360.5C 248.833,361.5 247.5,362.833 246.5,364.5C 242.656,367.511 239.322,371.011 236.5,375C 240.041,381.693 240.374,388.526 237.5,395.5C 232.806,400.86 227.806,405.86 222.5,410.5C 216.833,411.833 211.167,411.833 205.5,410.5C 189.898,403.611 184.898,391.945 190.5,375.5C 185.5,369.833 180.167,364.5 174.5,359.5C 158.146,375.188 142.146,391.188 126.5,407.5C 118.215,410.955 111.548,416.289 106.5,423.5C 97.521,413.854 88.1877,404.521 78.5,395.5C 69.0142,404.486 59.6808,413.652 50.5,423C 57.0144,441.125 51.3477,453.792 33.5,461C 16.9812,463.914 5.64787,457.747 -0.5,442.5C -0.5,437.5 -0.5,432.5 -0.5,427.5C 3.91491,414.78 12.9149,408.113 26.5,407.5C 32.0793,408.065 37.4127,409.231 42.5,411C 54.3473,398.986 66.3473,387.152 78.5,375.5C 88.3192,384.819 97.9859,394.319 107.5,404C 108.167,404.667 108.833,404.667 109.5,404C 131.035,382.632 152.368,361.132 173.5,339.5C 173.833,339.5 174.167,339.5 174.5,339.5C 182.298,347.798 190.298,355.965 198.5,364C 200.963,363.78 203.296,362.946 205.5,361.5C 210.511,361.334 215.511,361.501 220.5,362C 223.089,363.314 225.756,363.981 228.5,364C 233.703,358.965 238.703,353.798 243.5,348.5C 245.5,347.167 247.167,345.5 248.5,343.5C 257.833,334.833 266.833,325.833 275.5,316.5C 277.833,314.833 279.833,312.833 281.5,310.5C 282.833,309.167 284.167,309.167 285.5,310.5C 287.167,312.833 289.167,314.833 291.5,316.5C 296.479,322.146 301.812,327.479 307.5,332.5C 312.485,328.015 317.319,323.349 322,318.5C 322.692,317.563 322.525,316.897 321.5,316.5C 321.029,314.421 320.363,312.421 319.5,310.5C 318.656,306.901 318.323,303.234 318.5,299.5C 318.517,297.435 318.85,295.435 319.5,293.5C 328.747,273.878 343.414,268.212 363.5,276.5C 366.854,273.812 369.854,270.812 372.5,267.5C 374.5,266.167 376.167,264.5 377.5,262.5C 378.812,261.855 379.812,260.855 380.5,259.5C 377.147,256.478 373.813,253.478 370.5,250.5C 368.833,248.167 366.833,246.167 364.5,244.5C 361.538,241.036 358.371,237.703 355,234.5C 354.312,233.668 354.479,233.002 355.5,232.5C 371.99,227.965 388.323,223.298 404.5,218.5C 411.969,217.34 419.302,215.673 426.5,213.5C 429.712,212.196 433.045,211.196 436.5,210.5C 437.713,210.747 438.38,211.414 438.5,212.5 Z M 174.5,339.5 C 184.833,339.5 195.167,339.5 205.5,339.5C 205.5,346.833 205.5,354.167 205.5,361.5C 203.296,362.946 200.963,363.78 198.5,364C 190.298,355.965 182.298,347.798 174.5,339.5 Z"/></g>
<g><path style="opacity:1" fill="#bef3f6" d="M 426.5,213.5 C 419.302,215.673 411.969,217.34 404.5,218.5C 347.167,218.5 289.833,218.5 232.5,218.5C 232.5,216.5 232.5,214.5 232.5,212.5C 297.335,212.168 362.002,212.501 426.5,213.5 Z"/></g>
<g><path style="opacity:1" fill="#bff3f5" d="M 438.5,212.5 C 444.833,212.5 451.167,212.5 457.5,212.5C 457.5,214.5 457.5,216.5 457.5,218.5C 450.833,218.5 444.167,218.5 437.5,218.5C 437.517,216.435 437.85,214.435 438.5,212.5 Z"/></g>
<g><path style="opacity:0.997" fill="#088789" d="M 58.5,220.5 C 107.833,220.5 157.167,220.5 206.5,220.5C 206.5,230.167 206.5,239.833 206.5,249.5C 177.833,249.5 149.167,249.5 120.5,249.5C 120.5,257.833 120.5,266.167 120.5,274.5C 149.167,274.5 177.833,274.5 206.5,274.5C 206.827,284.681 206.494,294.681 205.5,304.5C 191.833,304.5 178.167,304.5 164.5,304.5C 159.833,303.167 155.167,303.167 150.5,304.5C 113.165,304.667 75.8318,304.5 38.5,304C 27.4477,301.948 20.6144,295.448 18,284.5C 17.0619,268.446 17.3952,252.446 19,236.5C 21.7767,230.057 26.2767,225.223 32.5,222C 41.0836,220.59 49.7502,220.09 58.5,220.5 Z"/></g>
<g><path style="opacity:1" fill="#bef3f6" d="M 364.5,244.5 C 366.833,246.167 368.833,248.167 370.5,250.5C 324.5,250.5 278.5,250.5 232.5,250.5C 232.5,248.5 232.5,246.5 232.5,244.5C 276.5,244.5 320.5,244.5 364.5,244.5 Z"/></g>
<g><path style="opacity:1" fill="#bff3f5" d="M 430.5,244.5 C 439.5,244.5 448.5,244.5 457.5,244.5C 457.5,246.5 457.5,248.5 457.5,250.5C 447.833,250.5 438.167,250.5 428.5,250.5C 429.048,248.374 429.715,246.374 430.5,244.5 Z"/></g>
<g><path style="opacity:1" fill="#eaf1f1" d="M 72.5,248.5 C 88.2908,248.425 93.4574,255.758 88,270.5C 83.5092,275.259 78.0092,276.759 71.5,275C 64.3301,270.841 61.8301,264.674 64,256.5C 66.0738,252.923 68.9072,250.256 72.5,248.5 Z"/></g>
<g><path style="opacity:1" fill="#bef3f6" d="M 377.5,262.5 C 376.167,264.5 374.5,266.167 372.5,267.5C 325.833,267.5 279.167,267.5 232.5,267.5C 232.5,265.5 232.5,263.5 232.5,261.5C 281.003,261.168 329.336,261.501 377.5,262.5 Z"/></g>
<g><path style="opacity:1" fill="#bff3f5" d="M 425.5,261.5 C 436.167,261.5 446.833,261.5 457.5,261.5C 457.5,263.5 457.5,265.5 457.5,267.5C 446.321,267.828 435.321,267.495 424.5,266.5C 424.366,264.708 424.699,263.042 425.5,261.5 Z"/></g>
<g><path style="opacity:1" fill="#ecf2f2" d="M 413.5,293.5 C 401.12,292.854 389.12,293.521 377.5,295.5C 375.765,292.027 374.599,288.36 374,284.5C 379.015,279.318 384.181,274.318 389.5,269.5C 397.854,277.188 405.854,285.188 413.5,293.5 Z"/></g>
<g><path style="opacity:1" fill="#edf1f0" d="M 352.5,319.5 C 336.67,319.838 329.837,312.171 332,296.5C 337.639,285.309 346.139,282.475 357.5,288C 366.145,294.847 367.645,303.014 362,312.5C 359.21,315.465 356.043,317.798 352.5,319.5 Z"/></g>
<g><path style="opacity:1" fill="#bff3f6" d="M 319.5,293.5 C 318.85,295.435 318.517,297.435 318.5,299.5C 289.5,299.5 260.5,299.5 231.5,299.5C 231.5,297.5 231.5,295.5 231.5,293.5C 260.833,293.5 290.167,293.5 319.5,293.5 Z"/></g>
<g><path style="opacity:1" fill="#bff3f6" d="M 413.5,293.5 C 414.167,293.833 414.833,294.167 415.5,294.5C 415.56,295.043 415.893,295.376 416.5,295.5C 429.989,293.542 443.656,292.876 457.5,293.5C 457.5,295.5 457.5,297.5 457.5,299.5C 449.082,299.198 440.748,299.531 432.5,300.5C 430.611,299.258 428.611,299.258 426.5,300.5C 410.265,299.82 393.931,299.153 377.5,298.5C 377.5,297.5 377.5,296.5 377.5,295.5C 389.12,293.521 401.12,292.854 413.5,293.5 Z"/></g>
<g><path style="opacity:0.99" fill="#0c888a" d="M 432.5,300.5 C 431.677,303.461 431.01,306.461 430.5,309.5C 429.388,311.599 428.721,313.933 428.5,316.5C 425.855,325.08 423.522,333.747 421.5,342.5C 420.659,344.379 420.325,346.379 420.5,348.5C 418.975,351.583 417.975,354.916 417.5,358.5C 416.593,360.657 415.927,362.99 415.5,365.5C 414.434,367.701 413.767,370.035 413.5,372.5C 416.833,372.5 420.167,372.5 423.5,372.5C 423.5,383.167 423.5,393.833 423.5,404.5C 423.169,425.673 423.503,446.673 424.5,467.5C 424.5,479.167 424.5,490.833 424.5,502.5C 413.167,502.5 401.833,502.5 390.5,502.5C 390.5,492.833 390.5,483.167 390.5,473.5C 391.498,440.338 391.832,407.004 391.5,373.5C 393.924,373.808 396.257,373.474 398.5,372.5C 398.376,371.893 398.043,371.56 397.5,371.5C 395.167,369.5 392.833,367.5 390.5,365.5C 388.486,362.653 385.986,360.32 383,358.5C 380.014,360.32 377.514,362.653 375.5,365.5C 369.521,370.812 363.854,376.479 358.5,382.5C 360.813,385.437 362.146,388.77 362.5,392.5C 362.5,395.5 362.5,398.5 362.5,401.5C 362.007,403.806 361.674,406.139 361.5,408.5C 359.992,410.181 358.992,412.181 358.5,414.5C 347.6,427.391 334.267,430.557 318.5,424C 314.666,421.332 311.333,418.165 308.5,414.5C 306.884,412.262 305.551,409.929 304.5,407.5C 303.841,404.545 303.508,401.545 303.5,398.5C 303.5,396.5 303.5,394.5 303.5,392.5C 305.011,388.511 306.178,384.511 307,380.5C 300.986,374.318 294.819,368.318 288.5,362.5C 278.812,372.521 269.145,382.521 259.5,392.5C 257.5,393.833 255.833,395.5 254.5,397.5C 250.167,401.167 246.167,405.167 242.5,409.5C 240.5,410.833 238.833,412.5 237.5,414.5C 228.035,423.464 218.702,432.631 209.5,442C 208.181,442.195 206.847,442.028 205.5,441.5C 194.535,430.035 183.369,418.702 172,407.5C 167.651,411.682 163.485,416.015 159.5,420.5C 167.93,437.19 164.93,451.357 150.5,463C 138.071,469.519 126.071,468.852 114.5,461C 103.531,450.288 100.864,437.788 106.5,423.5C 111.548,416.289 118.215,410.955 126.5,407.5C 134.099,406.252 141.432,407.252 148.5,410.5C 156.167,403.167 163.833,395.833 171.5,388.5C 182.854,399.521 194.187,410.521 205.5,421.5C 206.254,423.446 207.588,424.279 209.5,424C 214.037,419.631 218.37,415.131 222.5,410.5C 227.806,405.86 232.806,400.86 237.5,395.5C 247.5,386.167 257.167,376.5 266.5,366.5C 268.833,364.833 270.833,362.833 272.5,360.5C 276.5,357.167 280.167,353.5 283.5,349.5C 285.479,348.188 287.145,346.521 288.5,344.5C 290.186,345.857 291.852,347.19 293.5,348.5C 296.833,352.5 300.5,356.167 304.5,359.5C 306.167,361.833 308.167,363.833 310.5,365.5C 312.461,367.963 314.628,370.297 317,372.5C 327.8,365.864 338.634,365.864 349.5,372.5C 352.188,370.479 354.521,368.146 356.5,365.5C 358.833,363.833 360.833,361.833 362.5,359.5C 366.5,356.167 370.167,352.5 373.5,348.5C 371.833,346.167 369.833,344.167 367.5,342.5C 364.167,338.5 360.5,334.833 356.5,331.5C 353.704,328.203 350.704,325.036 347.5,322C 349.175,321.015 350.842,320.181 352.5,319.5C 360.598,317.809 368.598,315.809 376.5,313.5C 393.065,308.858 409.732,304.525 426.5,300.5C 428.611,299.258 430.611,299.258 432.5,300.5 Z"/></g>
<g><path style="opacity:1" fill="#e7f1f0" d="M 377.5,298.5 C 393.931,299.153 410.265,299.82 426.5,300.5C 409.732,304.525 393.065,308.858 376.5,313.5C 377.254,308.537 377.587,303.537 377.5,298.5 Z"/></g>
<g><path style="opacity:0.922" fill="#fcd992" d="M 164.5,304.5 C 164.5,311.5 164.5,318.5 164.5,325.5C 178.167,325.5 191.833,325.5 205.5,325.5C 206.833,330.167 206.833,334.833 205.5,339.5C 195.167,339.5 184.833,339.5 174.5,339.5C 174.167,339.5 173.833,339.5 173.5,339.5C 133.167,339.5 92.8333,339.5 52.5,339.5C 53.7784,334.802 53.7784,330.135 52.5,325.5C 85.1667,325.5 117.833,325.5 150.5,325.5C 150.5,318.5 150.5,311.5 150.5,304.5C 155.167,303.167 159.833,303.167 164.5,304.5 Z"/></g>
<g><path style="opacity:1" fill="#bff3f6" d="M 281.5,310.5 C 279.833,312.833 277.833,314.833 275.5,316.5C 261.167,316.5 246.833,316.5 232.5,316.5C 232.5,314.5 232.5,312.5 232.5,310.5C 248.833,310.5 265.167,310.5 281.5,310.5 Z"/></g>
<g><path style="opacity:1" fill="#bff3f5" d="M 285.5,310.5 C 296.833,310.5 308.167,310.5 319.5,310.5C 320.363,312.421 321.029,314.421 321.5,316.5C 311.5,316.5 301.5,316.5 291.5,316.5C 289.167,314.833 287.167,312.833 285.5,310.5 Z"/></g>
<g><path style="opacity:1" fill="#bdf2f5" d="M 430.5,309.5 C 439.318,310.493 448.318,310.827 457.5,310.5C 457.5,312.5 457.5,314.5 457.5,316.5C 447.833,316.5 438.167,316.5 428.5,316.5C 428.721,313.933 429.388,311.599 430.5,309.5 Z"/></g>
<g><path style="opacity:0.974" fill="#edf3f3" d="M 52.5,325.5 C 53.7784,330.135 53.7784,334.802 52.5,339.5C 48.8335,346.124 43.1668,348.624 35.5,347C 24.1775,341.693 21.6775,333.526 28,322.5C 33.3875,317.47 39.5542,316.303 46.5,319C 49.4086,320.406 51.4086,322.572 52.5,325.5 Z"/></g>
<g><path style="opacity:1" fill="#ebf1ef" d="M 291.5,316.5 C 301.5,316.5 311.5,316.5 321.5,316.5C 322.525,316.897 322.692,317.563 322,318.5C 317.319,323.349 312.485,328.015 307.5,332.5C 301.812,327.479 296.479,322.146 291.5,316.5 Z"/></g>
<g><path style="opacity:1" fill="#ecf0ed" d="M 298.5,342.5 C 288.5,342.5 278.5,342.5 268.5,342.5C 273.146,337.188 278.146,332.188 283.5,327.5C 288.854,332.188 293.854,337.188 298.5,342.5 Z"/></g>
<g><path style="opacity:1" fill="#ecf2f2" d="M 356.5,331.5 C 360.5,334.833 364.167,338.5 367.5,342.5C 350.5,342.5 333.5,342.5 316.5,342.5C 321.146,337.188 326.146,332.188 331.5,327.5C 339.28,332.327 347.613,333.66 356.5,331.5 Z"/></g>
<g><path style="opacity:1" fill="#bcf3f6" d="M 248.5,343.5 C 247.167,345.5 245.5,347.167 243.5,348.5C 239.833,348.5 236.167,348.5 232.5,348.5C 232.5,346.833 232.5,345.167 232.5,343.5C 237.833,343.5 243.167,343.5 248.5,343.5 Z"/></g>
<g><path style="opacity:1" fill="#bff2f3" d="M 268.5,342.5 C 278.5,342.5 288.5,342.5 298.5,342.5C 300.833,344.167 302.833,346.167 304.5,348.5C 300.833,348.5 297.167,348.5 293.5,348.5C 291.852,347.19 290.186,345.857 288.5,344.5C 287.145,346.521 285.479,348.188 283.5,349.5C 276.833,348.833 270.167,348.167 263.5,347.5C 264.833,345.5 266.5,343.833 268.5,342.5 Z"/></g>
<g><path style="opacity:1" fill="#bff3f6" d="M 316.5,342.5 C 333.5,342.5 350.5,342.5 367.5,342.5C 369.833,344.167 371.833,346.167 373.5,348.5C 352.5,348.5 331.5,348.5 310.5,348.5C 312.167,346.167 314.167,344.167 316.5,342.5 Z"/></g>
<g><path style="opacity:1" fill="#bff3f6" d="M 421.5,342.5 C 433.167,342.5 444.833,342.5 456.5,342.5C 456.5,344.5 456.5,346.5 456.5,348.5C 444.5,348.5 432.5,348.5 420.5,348.5C 420.325,346.379 420.659,344.379 421.5,342.5 Z"/></g>
<g><path style="opacity:1" fill="#e6f0ee" d="M 263.5,347.5 C 270.167,348.167 276.833,348.833 283.5,349.5C 280.167,353.5 276.5,357.167 272.5,360.5C 265.167,360.5 257.833,360.5 250.5,360.5C 254.5,355.833 258.833,351.5 263.5,347.5 Z"/></g>
<g><path style="opacity:1" fill="#ebf2f2" d="M 293.5,348.5 C 297.167,348.5 300.833,348.5 304.5,348.5C 305.482,349.141 306.482,349.807 307.5,350.5C 308.518,349.807 309.518,349.141 310.5,348.5C 331.5,348.5 352.5,348.5 373.5,348.5C 370.167,352.5 366.5,356.167 362.5,359.5C 343.167,359.5 323.833,359.5 304.5,359.5C 300.5,356.167 296.833,352.5 293.5,348.5 Z"/></g>
<g><path style="opacity:1" fill="#b9f0f2" d="M 250.5,360.5 C 257.833,360.5 265.167,360.5 272.5,360.5C 270.833,362.833 268.833,364.833 266.5,366.5C 259.833,365.833 253.167,365.167 246.5,364.5C 247.5,362.833 248.833,361.5 250.5,360.5 Z"/></g>
<g><path style="opacity:1" fill="#bff3f6" d="M 304.5,359.5 C 323.833,359.5 343.167,359.5 362.5,359.5C 360.833,361.833 358.833,363.833 356.5,365.5C 341.167,365.5 325.833,365.5 310.5,365.5C 308.167,363.833 306.167,361.833 304.5,359.5 Z"/></g>
<g><path style="opacity:1" fill="#baf0f3" d="M 390.5,365.5 C 385.5,365.5 380.5,365.5 375.5,365.5C 377.514,362.653 380.014,360.32 383,358.5C 385.986,360.32 388.486,362.653 390.5,365.5 Z"/></g>
<g><path style="opacity:1" fill="#bff3f6" d="M 417.5,358.5 C 430.656,359.496 443.99,359.829 457.5,359.5C 457.5,361.5 457.5,363.5 457.5,365.5C 443.5,365.5 429.5,365.5 415.5,365.5C 415.927,362.99 416.593,360.657 417.5,358.5 Z"/></g>
<g><path style="opacity:1" fill="#e5efed" d="M 246.5,364.5 C 253.167,365.167 259.833,365.833 266.5,366.5C 257.167,376.5 247.5,386.167 237.5,395.5C 240.374,388.526 240.041,381.693 236.5,375C 239.322,371.011 242.656,367.511 246.5,364.5 Z"/></g>
<g><path style="opacity:1" fill="#e9f2f2" d="M 303.5,392.5 C 288.833,392.5 274.167,392.5 259.5,392.5C 269.145,382.521 278.812,372.521 288.5,362.5C 294.819,368.318 300.986,374.318 307,380.5C 306.178,384.511 305.011,388.511 303.5,392.5 Z"/></g>
<g><path style="opacity:1" fill="#e6f1f2" d="M 310.5,365.5 C 325.833,365.5 341.167,365.5 356.5,365.5C 354.521,368.146 352.188,370.479 349.5,372.5C 338.634,365.864 327.8,365.864 317,372.5C 314.628,370.297 312.461,367.963 310.5,365.5 Z"/></g>
<g><path style="opacity:1" fill="#ecf2f1" d="M 375.5,365.5 C 380.5,365.5 385.5,365.5 390.5,365.5C 392.833,367.5 395.167,369.5 397.5,371.5C 395.393,372.468 393.059,372.802 390.5,372.5C 390.5,406.167 390.5,439.833 390.5,473.5C 384.833,473.5 379.167,473.5 373.5,473.5C 373.5,462.167 373.5,450.833 373.5,439.5C 362.5,439.5 351.5,439.5 340.5,439.5C 340.5,450.833 340.5,462.167 340.5,473.5C 334.5,473.5 328.5,473.5 322.5,473.5C 322.5,470.833 322.5,468.167 322.5,465.5C 311.679,464.505 300.679,464.172 289.5,464.5C 289.5,467.5 289.5,470.5 289.5,473.5C 283.833,473.5 278.167,473.5 272.5,473.5C 271.503,457.008 271.17,440.342 271.5,423.5C 260.833,423.5 250.167,423.5 239.5,423.5C 239.83,440.342 239.497,457.008 238.5,473.5C 227.5,473.5 216.5,473.5 205.5,473.5C 205.5,462.833 205.5,452.167 205.5,441.5C 206.847,442.028 208.181,442.195 209.5,442C 218.702,432.631 228.035,423.464 237.5,414.5C 261.167,414.5 284.833,414.5 308.5,414.5C 311.333,418.165 314.666,421.332 318.5,424C 334.267,430.557 347.6,427.391 358.5,414.5C 366.167,414.5 373.833,414.5 381.5,414.5C 381.5,412.833 381.5,411.167 381.5,409.5C 374.646,409.824 367.979,409.491 361.5,408.5C 361.674,406.139 362.007,403.806 362.5,401.5C 363.434,400.432 363.768,399.099 363.5,397.5C 369.5,397.5 375.5,397.5 381.5,397.5C 381.5,395.833 381.5,394.167 381.5,392.5C 375.167,392.5 368.833,392.5 362.5,392.5C 362.146,388.77 360.813,385.437 358.5,382.5C 363.854,376.479 369.521,370.812 375.5,365.5 Z"/></g>
<g><path style="opacity:1" fill="#7fbfc0" d="M 397.5,371.5 C 398.043,371.56 398.376,371.893 398.5,372.5C 396.257,373.474 393.924,373.808 391.5,373.5C 391.832,407.004 391.498,440.338 390.5,473.5C 390.5,439.833 390.5,406.167 390.5,372.5C 393.059,372.802 395.393,372.468 397.5,371.5 Z"/></g>
<g><path style="opacity:1" fill="#edf1ef" d="M 210.5,373.5 C 222.159,373.324 227.326,378.99 226,390.5C 222.307,397.759 216.474,400.259 208.5,398C 202.333,394.155 200.166,388.655 202,381.5C 204.074,377.923 206.907,375.256 210.5,373.5 Z"/></g>
<g><path style="opacity:1" fill="#eaf1f1" d="M 328.5,380.5 C 347.098,381.036 353.264,390.036 347,407.5C 340.315,414.854 332.482,416.354 323.5,412C 316.915,406.643 314.749,399.809 317,391.5C 319.495,386.353 323.329,382.686 328.5,380.5 Z"/></g>
<g><path style="opacity:1" fill="#bbf3f6" d="M 259.5,392.5 C 274.167,392.5 288.833,392.5 303.5,392.5C 303.5,394.5 303.5,396.5 303.5,398.5C 287.244,397.516 270.911,397.182 254.5,397.5C 255.833,395.5 257.5,393.833 259.5,392.5 Z"/></g>
<g><path style="opacity:1" fill="#b8f1f4" d="M 362.5,392.5 C 368.833,392.5 375.167,392.5 381.5,392.5C 381.5,394.167 381.5,395.833 381.5,397.5C 375.5,397.5 369.5,397.5 363.5,397.5C 363.768,399.099 363.434,400.432 362.5,401.5C 362.5,398.5 362.5,395.5 362.5,392.5 Z"/></g>
<g><path style="opacity:1" fill="#e9f2f3" d="M 254.5,397.5 C 270.911,397.182 287.244,397.516 303.5,398.5C 303.508,401.545 303.841,404.545 304.5,407.5C 284.194,409.488 263.527,410.155 242.5,409.5C 246.167,405.167 250.167,401.167 254.5,397.5 Z"/></g>
<g><path style="opacity:1" fill="#7cd1de" d="M 423.5,404.5 C 429.5,404.5 435.5,404.5 441.5,404.5C 441.5,404.833 441.5,405.167 441.5,405.5C 441.5,420.5 441.5,435.5 441.5,450.5C 435.5,455.833 429.833,461.5 424.5,467.5C 423.503,446.673 423.169,425.673 423.5,404.5 Z"/></g>
<g><path style="opacity:0.991" fill="#e2a72f" d="M 441.5,405.5 C 452.167,405.5 462.833,405.5 473.5,405.5C 473.171,419.677 473.504,433.677 474.5,447.5C 474.5,465.833 474.5,484.167 474.5,502.5C 463.5,502.5 452.5,502.5 441.5,502.5C 441.5,485.167 441.5,467.833 441.5,450.5C 441.5,435.5 441.5,420.5 441.5,405.5 Z"/></g>
<g><path style="opacity:1" fill="#bbf3f6" d="M 304.5,407.5 C 305.551,409.929 306.884,412.262 308.5,414.5C 284.833,414.5 261.167,414.5 237.5,414.5C 238.833,412.5 240.5,410.833 242.5,409.5C 263.527,410.155 284.194,409.488 304.5,407.5 Z"/></g>
<g><path style="opacity:1" fill="#bbf3f6" d="M 361.5,408.5 C 367.979,409.491 374.646,409.824 381.5,409.5C 381.5,411.167 381.5,412.833 381.5,414.5C 373.833,414.5 366.167,414.5 358.5,414.5C 358.992,412.181 359.992,410.181 361.5,408.5 Z"/></g>
<g><path style="opacity:1" fill="#e1efee" d="M 205.5,410.5 C 211.167,411.833 216.833,411.833 222.5,410.5C 218.37,415.131 214.037,419.631 209.5,424C 207.588,424.279 206.254,423.446 205.5,421.5C 205.5,417.833 205.5,414.167 205.5,410.5 Z"/></g>
<g><path style="opacity:1" fill="#bdbb7d" d="M 441.5,405.5 C 441.5,405.167 441.5,404.833 441.5,404.5C 452.5,404.5 463.5,404.5 474.5,404.5C 474.5,404.833 474.5,405.167 474.5,405.5C 474.5,419.5 474.5,433.5 474.5,447.5C 473.504,433.677 473.171,419.677 473.5,405.5C 462.833,405.5 452.167,405.5 441.5,405.5 Z"/></g>
<g><path style="opacity:1" fill="#eaf1f1" d="M 128.5,420.5 C 146.182,420.011 153.015,428.344 149,445.5C 140.113,456.671 130.447,457.338 120,447.5C 114.429,435.691 117.262,426.691 128.5,420.5 Z"/></g>
<g><path style="opacity:1" fill="#edf1ee" d="M 22.5,420.5 C 37.3356,421.196 42.5022,428.53 38,442.5C 32.0526,448.848 25.2193,450.014 17.5,446C 9.52599,435.525 11.1927,427.025 22.5,420.5 Z"/></g>
<g><path style="opacity:0.992" fill="#e2a72e" d="M 272.5,473.5 C 272.5,483.167 272.5,492.833 272.5,502.5C 261.167,502.5 249.833,502.5 238.5,502.5C 238.5,492.833 238.5,483.167 238.5,473.5C 239.497,457.008 239.83,440.342 239.5,423.5C 250.167,423.5 260.833,423.5 271.5,423.5C 271.17,440.342 271.503,457.008 272.5,473.5 Z"/></g>
<g><path style="opacity:0.992" fill="#e3a730" d="M 373.5,473.5 C 373.5,483.167 373.5,492.833 373.5,502.5C 362.5,502.5 351.5,502.5 340.5,502.5C 340.5,492.833 340.5,483.167 340.5,473.5C 340.5,462.167 340.5,450.833 340.5,439.5C 351.5,439.5 362.5,439.5 373.5,439.5C 373.5,450.833 373.5,462.167 373.5,473.5 Z"/></g>
<g><path style="opacity:1" fill="#84c2c3" d="M 322.5,465.5 C 311.833,465.5 301.167,465.5 290.5,465.5C 290.806,468.385 290.473,471.052 289.5,473.5C 289.5,470.5 289.5,467.5 289.5,464.5C 300.679,464.172 311.679,464.505 322.5,465.5 Z"/></g>
<g><path style="opacity:0.986" fill="#048789" d="M 322.5,465.5 C 322.5,468.167 322.5,470.833 322.5,473.5C 322.5,483.167 322.5,492.833 322.5,502.5C 311.5,502.5 300.5,502.5 289.5,502.5C 289.5,492.833 289.5,483.167 289.5,473.5C 290.473,471.052 290.806,468.385 290.5,465.5C 301.167,465.5 311.833,465.5 322.5,465.5 Z"/></g>
</svg>
